{
.appVersion = "3326";
.formatVersion = 3;
classes = (
{
automatic = 1;
code = "A B C D E F G H I J K L M N O P Q R S T U V W X Y Z Aacute Abreve Acircumflex Adieresis Agrave Amacron Aogonek Aring Atilde AE AEacute Cacute Ccaron Ccedilla Ccircumflex Cdotaccent Eth Dcaron Dcroat Eacute Ebreve Ecaron Ecircumflex Edieresis Edotaccent Egrave Emacron Eogonek Gbreve Gcircumflex Gcommaaccent Gdotaccent Hbar Hcircumflex Iacute Ibreve Icircumflex Idieresis Idotaccent Igrave Imacron Iogonek Itilde Jcircumflex Kcommaaccent Lacute Lcaron Lcommaaccent Ldot Lslash Nacute Ncaron Ncommaaccent Eng Ntilde Oacute Obreve Ocircumflex Odieresis Ograve Ohungarumlaut Omacron Oslash Oslashacute Otilde OE Thorn Racute Rcaron Rcommaaccent Sacute Scaron Scircumflex Scommaaccent Germandbls Tbar Tcaron Tcommaaccent Uacute Ubreve Ucircumflex Udieresis Ugrave Uhungarumlaut Umacron Uogonek Uring Utilde Wacute Wcircumflex Wdieresis Wgrave Yacute Ycircumflex Ydieresis Ygrave Zacute Zcaron Zdotaccent Delta Mu Omega";
name = Uppercase;
}
);
customParameters = (
{
disabled = 1;
name = glyphOrder;
value = (
.notdef,
.null,
CR,
nbspace,
space,
A,
B,
C,
D,
E,
F,
G,
H,
I,
J,
K,
L,
M,
N,
O,
P,
Q,
R,
S,
T,
U,
V,
W,
X,
Y,
Z,
a,
b,
c,
d,
e,
f,
g,
g.ss01,
h,
i,
j,
k,
l,
m,
n,
o,
p,
q,
r,
s,
t,
u,
v,
w,
x,
y,
z,
Aacute,
Abreve,
Acircumflex,
Adieresis,
Agrave,
Amacron,
Aogonek,
Aring,
Atilde,
AE,
AEacute,
Cacute,
Ccaron,
Ccedilla,
Ccircumflex,
Cdotaccent,
Eth,
Dcaron,
Dcroat,
Eacute,
Ebreve,
Ecaron,
Ecircumflex,
Edieresis,
Edotaccent,
Egrave,
Emacron,
Eogonek,
Gbreve,
Gcircumflex,
Gcommaaccent,
Gdotaccent,
Hbar,
Hcircumflex,
Iacute,
Ibreve,
Icircumflex,
Idieresis,
Idotaccent,
Igrave,
IJ,
Imacron,
Iogonek,
Itilde,
Jcircumflex,
Kcommaaccent,
Lacute,
Lcaron,
Lcommaaccent,
Ldot,
Lslash,
Nacute,
Ncaron,
Ncommaaccent,
Eng,
Ntilde,
Oacute,
Obreve,
Ocircumflex,
Odieresis,
Ograve,
Ohungarumlaut,
Omacron,
Oslash,
Oslashacute,
Otilde,
OE,
Thorn,
Racute,
Rcaron,
Rcommaaccent,
Sacute,
Scaron,
Scedilla,
Scircumflex,

glyphs = (
{
glyphname = A;
kernLeft = A;
kernRight = A;
lastChange = "2024-12-19 13:17:24 +0000";
layers = (
{
anchors = (
{
name = bottom;
pos = (450,0);
},
{
name = ogonek;
pos = (870,0);
},
{
name = top;
pos = (450,710);
}
);
background = {
anchors = (
{
name = bottom;
pos = (450,0);
},
{
name = ogonek;
pos = (870,0);
},
{
name = top;
pos = (450,710);
}
);
shapes = (
{
closed = 1;
nodes = (
(199,0,l),
(294,207,l),
(312,244,l),
(466,573,l),
(424,573,l),
(577,244,l),
(593,207,l),
(689,0,l),
(902,0,l),
(556,710,l),
(344,710,l),
(-2,0,l)
);
},
{
closed = 1;
nodes = (
(711,168,l),
(711,304,l),
(184,304,l),
(184,168,l)
);
}
);
};
guides = (
{
angle = 180;
pos = (372,244);
}
);
layerId = "E5B4AC11-8521-476B-8B52-54F023F880B1";
shapes = (
{
closed = 1;
nodes = (
(199,0,l),
(294,207,l),
(312,244,l),
(466,573,l),
(424,573,l),
(577,244,l),
(593,207,l),
(689,0,l),
(902,0,l),
(556,710,l),
(344,710,l),
(-2,0,l)
);
},
{
closed = 1;
nodes = (
(711,168,l),
(711,304,l),
(184,304,l),
(184,168,l)
);
}
);
width = 900;
}
);
note = A;
unicode = 65;
},
{
glyphname = Aacute;
kernLeft = A;
kernRight = A;
lastChange = "2024-12-19 13:17:37 +0000";
layers = (
{
background = {
anchors = (
{
name = bottom;
pos = (450,0);
},
{
name = ogonek;
pos = (870,0);
},
{
name = top;
pos = (508,956);
}
);
shapes = (
{
closed = 1;
nodes = (
(199,0,l),
(294,207,l),
(312,244,l),
(466,573,l),
(424,573,l),
(577,244,l),
(593,207,l),
(689,0,l),
(902,0,l),
(556,710,l),
(344,710,l),
(-2,0,l)
);
},
{
closed = 1;
nodes = (
(711,168,l),
(711,304,l),
(184,304,l),
(184,168,l)
);
},
{
closed = 1;
nodes = (
(645,910,l),
(503,956,l),
(379,782,l),
(503,760,l)
);
}
);
};
layerId = "E5B4AC11-8521-476B-8B52-54F023F880B1";
shapes = (
{
ref = A;
},
{
pos = (379,0);
ref = acutecomb.case;
}
);
width = 900;
}
);
unicode = 193;
},
{
glyphname = Abreve;
kernLeft = A;
kernRight = A;
lastChange = "2024-12-19 13:17:37 +0000";
layers = (
{
background = {
anchors = (
{
name = bottom;
pos = (450,0);
},
{
name = ogonek;
pos = (870,0);
},
{
name = top;
pos = (450,930);
}
);
shapes = (
{
closed = 1;
nodes = (
(199,0,l),
(294,207,l),
(312,244,l),
(466,573,l),
(424,573,l),
(577,244,l),
(593,207,l),
(689,0,l),
(902,0,l),
(556,710,l),
(344,710,l),
(-2,0,l)
);
},
{
closed = 1;
nodes = (
(711,168,l),
(711,304,l),
(184,304,l),
(184,168,l)
);
},
{
closed = 1;
nodes = (
(572,765,o),
(654,828,o),
(661,930,c),
(538,930,l),
(534,892,o),
(510,861,o),
(450,861,cs),
(390,861,o),
(366,892,o),
(362,930,c),
(239,930,l),
(246,828,o),
(328,765,o),
(450,765,cs)
);
}
);
};
layerId = "E5B4AC11-8521-476B-8B52-54F023F880B1";
shapes = (
{
ref = A;
},
{
pos = (239,0);
ref = brevecomb.case;
}
);
width = 900;
}
);
unicode = 258;
},
{
glyphname = Acircumflex;
kernLeft = A;
kernRight = A;
lastChange = "2024-12-19 13:17:37 +0000";
layers = (
{
background = {
anchors = (
{
name = bottom;
pos = (450,0);
},
{
name = ogonek;
pos = (870,0);
},
{
name = top;
pos = (450,920);
}
);
shapes = (
{
closed = 1;
nodes = (
(199,0,l),
(294,207,l),
(312,244,l),
(466,573,l),
(424,573,l),
(577,244,l),
(593,207,l),
(689,0,l),
(902,0,l),
(556,710,l),
(344,710,l),
(-2,0,l)
);
},
{
closed = 1;
nodes = (
(711,168,l),
(711,304,l),
(184,304,l),
(184,168,l)
);
},
{
closed = 1;
nodes = (
(374,768,l),
(504,886,l),
(396,886,l),
(525,768,l),
(687,768,l),
(523,920,l),
(377,920,l),
(213,768,l)
);
}
);
};
layerId = "E5B4AC11-8521-476B-8B52-54F023F880B1";
shapes = (
{
ref = A;
},
{
pos = (207,0);
ref = circumflexcomb.case;
}
);
width = 900;
}
);
unicode = 194;
},
{
glyphname = Adieresis;
kernLeft = A;
kernRight = A;
lastChange = "2024-12-19 13:17:37 +0000";
layers = (
{
background = {
anchors = (
{
name = bottom;
pos = (450,0);
},
{
name = ogonek;
pos = (870,0);
},
{
name = top;
pos = (450,916);
}
);
shapes = (
{
closed = 1;
nodes = (
(199,0,l),
(294,207,l),
(312,244,l),
(466,573,l),
(424,573,l),
(577,244,l),
(593,207,l),
(689,0,l),
(902,0,l),
(556,710,l),
(344,710,l),
(-2,0,l)
);
},
{
closed = 1;
nodes = (
(711,168,l),
(711,304,l),
(184,304,l),
(184,168,l)
);
},
{
closed = 1;
nodes = (
(416,776,l),
(416,916,l),
(243,916,l),
(243,776,l)
);
},
{
closed = 1;
nodes = (
(658,776,l),
(658,916,l),
(485,916,l),
(485,776,l)
);
}
);
};
layerId = "E5B4AC11-8521-476B-8B52-54F023F880B1";
shapes = (
{
ref = A;
},
{
pos = (243,0);
ref = dieresiscomb.case;
}
);
width = 900;
}
);
unicode = 196;
},
{
glyphname = Agrave;
kernLeft = A;
kernRight = A;
lastChange = "2024-12-19 13:17:37 +0000";
layers = (
{
background = {
anchors = (
{
name = bottom;
pos = (450,0);
},
{
name = ogonek;
pos = (870,0);
},
{
name = top;
pos = (392,956);
}
);
shapes = (
{
closed = 1;
nodes = (
(199,0,l),
(294,207,l),
(312,244,l),
(466,573,l),
(424,573,l),
(577,244,l),
(593,207,l),
(689,0,l),
(902,0,l),
(556,710,l),
(344,710,l),
(-2,0,l)
);
},
{
closed = 1;
nodes = (
(711,168,l),
(711,304,l),
(184,304,l),
(184,168,l)
);
},
{
closed = 1;
nodes = (
(521,782,l),
(397,956,l),
(255,910,l),
(397,760,l)
);
}
);
};
layerId = "E5B4AC11-8521-476B-8B52-54F023F880B1";
shapes = (
{
ref = A;
},
{
pos = (255,0);
ref = gravecomb.case;
}
);
width = 900;
}
);
unicode = 192;
},
{
glyphname = Amacron;
kernLeft = A;
kernRight = A;
lastChange = "2024-12-19 13:17:37 +0000";
layers = (
{
background = {
anchors = (
{
name = bottom;
pos = (450,0);
},
{
name = ogonek;
pos = (870,0);
},
{
name = top;
pos = (450,883);
}
);
shapes = (
{
closed = 1;
nodes = (
(199,0,l),
(294,207,l),
(312,244,l),
(466,573,l),
(424,573,l),
(577,244,l),
(593,207,l),
(689,0,l),
(902,0,l),
(556,710,l),
(344,710,l),
(-2,0,l)
);
},
{
closed = 1;
nodes = (
(711,168,l),
(711,304,l),
(184,304,l),
(184,168,l)
);
},
{
closed = 1;
nodes = (
(690,782,l),
(690,883,l),
(209,883,l),
(209,782,l)
);
}
);
};
layerId = "E5B4AC11-8521-476B-8B52-54F023F880B1";
shapes = (
{
ref = A;
},
{
pos = (209,0);
ref = macroncomb.case;
}
);
width = 900;
}
);
unicode = 256;
},
{
glyphname = Aogonek;
kernLeft = A;
kernRight = A;
lastChange = "2024-12-19 13:17:24 +0000";
layers = (
{
background = {
shapes = (
{
closed = 1;
nodes = (
(879,-68,l),
(845,-75,o),
(783,-81,o),
(783,-42,cs),
(783,-27,o),
(792,-15,o),
(809,0,c),
(902,0,l),
(556,710,l),
(344,710,l),
(-2,0,l),
(199,0,l),
(294,207,l),
(312,244,l),
(445,528,l),
(577,244,l),
(593,207,l),
(686,6,l),
(664,-19,o),
(648,-43,o),
(648,-71,cs),
(648,-170,o),
(795,-183,o),
(879,-159,c)
);
},
{
closed = 1;
nodes = (
(711,168,l),
(711,304,l),
(184,304,l),
(184,168,l)
);
}
);
};
layerId = "E5B4AC11-8521-476B-8B52-54F023F880B1";
shapes = (
{
closed = 1;
nodes = (
(879,-68,l),
(845,-75,o),
(783,-81,o),
(783,-42,cs),
(783,-27,o),
(792,-15,o),
(809,0,c),
(902,0,l),
(556,710,l),
(344,710,l),
(-2,0,l),
(199,0,l),
(294,207,l),
(312,244,l),
(445,528,l),
(577,244,l),
(593,207,l),
(686,6,l),
(664,-19,o),
(648,-43,o),
(648,-71,cs),
(648,-170,o),
(795,-183,o),
(879,-159,c)
);
},
{
closed = 1;
nodes = (
(711,168,l),
(711,304,l),
(184,304,l),
(184,168,l)
);
}
);
width = 900;
}
);
unicode = 260;
},
{
glyphname = Aring;
kernLeft = A;
kernRight = A;
lastChange = "2024-12-19 13:17:37 +0000";
layers = (
{
background = {
anchors = (
{
name = bottom;
pos = (450,0);
},
{
name = ogonek;
pos = (870,0);
},
{
name = top;
pos = (450,902);
}
);
shapes = (
{
closed = 1;
nodes = (
(199,0,l),
(294,207,l),
(312,244,l),
(466,573,l),
(424,573,l),
(577,244,l),
(593,207,l),
(689,0,l),
(902,0,l),
(556,710,l),
(344,710,l),
(-2,0,l)
);
},
{
closed = 1;
nodes = (
(711,168,l),
(711,304,l),
(184,304,l),
(184,168,l)
);
},
{
closed = 1;
nodes = (
(552,635,o),
(611,694,o),
(611,768,cs),
(611,843,o),
(552,902,o),
(449,902,cs),
(347,902,o),
(288,843,o),
(288,768,cs),
(288,694,o),
(347,635,o),
(449,635,cs)
);
},
{
closed = 1;
nodes = (
(411,710,o),
(385,734,o),
(385,768,cs),
(385,803,o),
(411,827,o),
(449,827,cs),
(488,827,o),
(514,803,o),
(514,768,cs),
(514,734,o),
(488,710,o),
(449,710,cs)
);
}
);
};
layerId = "E5B4AC11-8521-476B-8B52-54F023F880B1";
shapes = (
{
ref = A;
},
{
pos = (288,0);
ref = ringcomb.case;
}
);
width = 900;
}
);
unicode = 197;
},
{
glyphname = Atilde;
kernLeft = A;
kernRight = A;
lastChange = "2024-12-19 13:17:37 +0000";
layers = (
{
background = {
anchors = (
{
name = bottom;
pos = (450,0);
},
{
name = ogonek;
pos = (870,0);
},
{
name = top;
pos = (450,934);
}
);
shapes = (
{
closed = 1;
nodes = (
(199,0,l),
(294,207,l),
(312,244,l),
(466,573,l),
(424,573,l),
(577,244,l),
(593,207,l),
(689,0,l),
(902,0,l),
(556,710,l),
(344,710,l),
(-2,0,l)
);
},
{
closed = 1;
nodes = (
(711,168,l),
(711,304,l),
(184,304,l),
(184,168,l)
);
},
{
closed = 1;
nodes = (
(632,782,o),
(680,839,o),
(688,931,c),
(584,931,l),
(580,899,o),
(562,881,o),
(530,881,cs),
(484,881,o),
(434,934,o),
(351,934,cs),
(268,934,o),
(219,877,o),
(211,786,c),
(317,786,l),
(320,813,o),
(335,836,o),
(373,836,cs),
(417,836,o),
(470,782,o),
(545,782,cs)
);
}
);
};
layerId = "E5B4AC11-8521-476B-8B52-54F023F880B1";
shapes = (
{
ref = A;
},
{
pos = (211,0);
ref = tildecomb.case;
}
);
width = 900;
}
);
unicode = 195;
},
{
glyphname = AE;
kernLeft = AE;
kernRight = E;
lastChange = "2024-12-19 13:17:24 +0000";
layers = (
{
anchors = (
{
name = bottom;
pos = (651,0);
},
{
name = top;
pos = (847,710);
}
);
background = {
anchors = (
{
name = bottom;
pos = (651,0);
},
{
name = top;
pos = (847,710);
}
);
shapes = (
{
closed = 1;
nodes = (
(198,0,l),
(318,207,l),
(340,244,l),
(566,626,l),
(456,562,l),
(677,562,l),
(677,710,l),
(419,710,l),
(-23,0,l)
);
},
{
closed = 1;
nodes = (
(678,168,l),
(678,304,l),
(216,304,l),
(216,168,l)
);
},
{
closed = 1;
nodes = (
(1286,0,l),
(1286,148,l),
(767,148,l),
(819,95,l),
(819,615,l),
(767,562,l),
(1279,562,l),
(1279,710,l),
(619,710,l),
(619,0,l)
);
},
{
closed = 1;
nodes = (
(1234,288,l),
(1234,430,l),
(710,430,l),
(710,288,l)
);
}
);
};
layerId = "E5B4AC11-8521-476B-8B52-54F023F880B1";
shapes = (
{
closed = 1;
nodes = (
(198,0,l),
(318,207,l),
(340,244,l),
(566,626,l),
(456,562,l),
(677,562,l),
(677,710,l),
(419,710,l),
(-23,0,l)
);
},
{
closed = 1;
nodes = (
(678,168,l),
(678,304,l),
(216,304,l),
(216,168,l)
);
},
{
closed = 1;
nodes = (
(1286,0,l),
(1286,148,l),
(767,148,l),
(819,95,l),
(819,615,l),
(767,562,l),
(1279,562,l),
(1279,710,l),
(619,710,l),
(619,0,l)
);
},
{
closed = 1;
nodes = (
(1234,288,l),
(1234,430,l),
(710,430,l),
(710,288,l)
);
}
);
width = 1324;
}
);
unicode = 198;
},
{
glyphname = AEacute;
kernLeft = AE;
kernRight = E;
lastChange = "2024-12-19 13:17:37 +0000";
layers = (
{
background = {
anchors = (
{
name = bottom;
pos = (651,0);
},
{
name = top;
pos = (905,956);
}
);
shapes = (
{
closed = 1;
nodes = (
(198,0,l),
(318,207,l),
(340,244,l),
(566,626,l),
(456,562,l),
(677,562,l),
(677,710,l),
(419,710,l),
(-23,0,l)
);
},
{
closed = 1;
nodes = (
(678,168,l),
(678,304,l),
(216,304,l),
(216,168,l)
);
},
{
closed = 1;
nodes = (
(1286,0,l),
(1286,148,l),
(767,148,l),
(819,95,l),
(819,615,l),
(767,562,l),
(1279,562,l),
(1279,710,l),
(619,710,l),
(619,0,l)
);
},
{
closed = 1;
nodes = (
(1234,288,l),
(1234,430,l),
(710,430,l),
(710,288,l)
);
},
{
closed = 1;
nodes = (
(1042,910,l),
(900,956,l),
(776,782,l),
(900,760,l)
);
}
);
};
layerId = "E5B4AC11-8521-476B-8B52-54F023F880B1";
shapes = (
{
ref = AE;
},
{
pos = (776,0);
ref = acutecomb.case;
}
);
width = 1324;
}
);
unicode = 508;
},
{
glyphname = B;
kernLeft = H;
lastChange = "2024-12-19 13:17:24 +0000";
layers = (
{
anchors = (
{
name = bottom;
pos = (419,0);
},
{
name = center;
pos = (419,355);
},
{
name = top;
pos = (419,710);
}
);
background = {
anchors = (
{
name = bottom;
pos = (419,0);
},
{
name = center;
pos = (419,355);
},
{
name = top;
pos = (419,710);
}
);
shapes = (
{
closed = 1;
nodes = (
(486,0,ls),
(677,0,o),
(786,69,o),
(786,207,cs),
(786,295,o),
(737,352,o),
(603,379,c),
(608,348,l),
(725,374,o),
(771,440,o),
(771,521,cs),
(771,650,o),
(664,710,o),
(477,710,cs),
(58,710,l),
(58,0,l)
);
},
{
closed = 1;
nodes = (
(258,565,l),
(478,565,ls),
(545,565,o),
(578,544,o),
(578,501,cs),
(578,492,ls),
(578,449,o),
(545,427,o),
(478,427,cs),
(213,427,l),
(213,290,l),
(486,290,ls),
(555,290,o),
(589,268,o),
(589,226,cs),
(589,217,ls),
(589,170,o),
(555,148,o),
(486,148,cs),
(258,148,l)
);
}
);
};
layerId = "E5B4AC11-8521-476B-8B52-54F023F880B1";
shapes = (
{
closed = 1;
nodes = (
(486,0,ls),
(677,0,o),
(786,69,o),
(786,207,cs),
(786,295,o),
(737,352,o),
(603,379,c),
(608,348,l),
(725,374,o),
(771,440,o),
(771,521,cs),
(771,650,o),
(664,710,o),
(477,710,cs),
(58,710,l),
(58,0,l)
);
},
{
closed = 1;
nodes = (
(258,565,l),
(478,565,ls),
(545,565,o),
(578,544,o),
(578,501,cs),
(578,492,ls),
(578,449,o),
(545,427,o),
(478,427,cs),
(213,427,l),
(213,290,l),
(486,290,ls),
(555,290,o),
(589,268,o),
(589,226,cs),
(589,217,ls),
(589,170,o),
(555,148,o),
(486,148,cs),
(258,148,l)
);
}
);
width = 819;
}
);
note = B;
unicode = 66;
},
{
glyphname = C;
kernLeft = O;
kernRight = C;
lastChange = "2024-12-19 13:17:24 +0000";
layers = (
{
anchors = (
{
name = bottom;
pos = (476,0);
},
{
name = top;
pos = (463,710);
}
);
background = {
anchors = (
{
name = bottom;
pos = (476,0);
},
{
name = top;
pos = (463,710);
}
);
shapes = (
{
closed = 1;
nodes = (
(694,-13,o),
(843,95,o),
(882,233,c),
(703,276,l),
(661,172,o),
(572,141,o),
(474,141,cs),
(341,141,o),
(233,208,o),
(233,345,cs),
(233,365,ls),
(233,502,o),
(341,569,o),
(474,569,cs),
(572,569,o),
(661,538,o),
(703,434,c),
(882,477,l),
(843,615,o),
(694,721,o),
(471,721,cs),
(214,721,o),
(31,579,o),
(31,355,cs),
(31,131,o),
(214,-13,o),
(471,-13,cs)
);
}
);
};
layerId = "E5B4AC11-8521-476B-8B52-54F023F880B1";
shapes = (
{
closed = 1;
nodes = (
(694,-13,o),
(843,95,o),
(882,233,c),
(703,276,l),
(661,172,o),
(572,141,o),
(474,141,cs),
(341,141,o),
(233,208,o),
(233,345,cs),
(233,365,ls),
(233,502,o),
(341,569,o),
(474,569,cs),
(572,569,o),
(661,538,o),
(703,434,c),
(882,477,l),
(843,615,o),
(694,721,o),
(471,721,cs),
(214,721,o),
(31,579,o),
(31,355,cs),
(31,131,o),
(214,-13,o),
(471,-13,cs)
);
}
);
width = 902;
}
);
note = C;
unicode = 67;
},
{
glyphname = Cacute;
kernLeft = O;
kernRight = C;
lastChange = "2024-12-19 13:17:37 +0000";
layers = (
{
background = {
anchors = (
{
name = bottom;
pos = (476,0);
},
{
name = top;
pos = (521,956);
}
);
shapes = (
{
closed = 1;
nodes = (
(694,-13,o),
(843,95,o),
(882,233,c),
(703,276,l),
(661,172,o),
(572,141,o),
(474,141,cs),
(341,141,o),
(233,208,o),
(233,345,cs),
(233,365,ls),
(233,502,o),
(341,569,o),
(474,569,cs),
(572,569,o),
(661,538,o),
(703,434,c),
(882,477,l),
(843,615,o),
(694,721,o),
(471,721,cs),
(214,721,o),
(31,579,o),
(31,355,cs),
(31,131,o),
(214,-13,o),
(471,-13,cs)
);
},
{
closed = 1;
nodes = (
(658,910,l),
(516,956,l),
(392,782,l),
(516,760,l)
);
}
);
};
layerId = "E5B4AC11-8521-476B-8B52-54F023F880B1";
shapes = (
{
ref = C;
},
{
pos = (392,0);
ref = acutecomb.case;
}
);
width = 902;
}
);
unicode = 262;
},
{
glyphname = Ccaron;
kernLeft = O;
kernRight = C;
lastChange = "2024-12-19 13:17:37 +0000";
layers = (
{
background = {
anchors = (
{
name = bottom;
pos = (476,0);
},
{
name = top;
pos = (463,920);
}
);
shapes = (
{
closed = 1;
nodes = (
(694,-13,o),
(843,95,o),
(882,233,c),
(703,276,l),
(661,172,o),
(572,141,o),
(474,141,cs),
(341,141,o),
(233,208,o),
(233,345,cs),
(233,365,ls),
(233,502,o),
(341,569,o),
(474,569,cs),
(572,569,o),
(661,538,o),
(703,434,c),
(882,477,l),
(843,615,o),
(694,721,o),
(471,721,cs),
(214,721,o),
(31,579,o),
(31,355,cs),
(31,131,o),
(214,-13,o),
(471,-13,cs)
);
},
{
closed = 1;
nodes = (
(536,768,l),
(700,920,l),
(538,920,l),
(409,802,l),
(517,802,l),
(387,920,l),
(226,920,l),
(390,768,l)
);
}
);
};
layerId = "E5B4AC11-8521-476B-8B52-54F023F880B1";
shapes = (
{
ref = C;
},
{
pos = (220,0);
ref = caroncomb.case;
}
);
width = 902;
}
);
unicode = 268;
},
{
glyphname = Ccedilla;
kernLeft = O;
kernRight = C;
lastChange = "2024-12-19 13:17:37 +0000";
layers = (
{
background = {
anchors = (
{
name = bottom;
pos = (494,-171);
},
{
name = top;
pos = (463,710);
}
);
shapes = (
{
closed = 1;
nodes = (
(694,-13,o),
(843,95,o),
(882,233,c),
(703,276,l),
(661,172,o),
(572,141,o),
(474,141,cs),
(341,141,o),
(233,208,o),
(233,345,cs),
(233,365,ls),
(233,502,o),
(341,569,o),
(474,569,cs),
(572,569,o),
(661,538,o),
(703,434,c),
(882,477,l),
(843,615,o),
(694,721,o),
(471,721,cs),
(214,721,o),
(31,579,o),
(31,355,cs),
(31,131,o),
(214,-13,o),
(471,-13,cs)
);
},
{
closed = 1;
nodes = (
(583,-171,o),
(651,-145,o),
(651,-95,cs),
(651,-48,o),
(584,-25,o),
(489,-18,c),
(513,-55,l),
(513,2,l),
(404,2,l),
(400,-65,l),
(507,-72,o),
(517,-78,o),
(517,-87,cs),
(517,-109,o),
(404,-103,o),
(324,-92,c),
(324,-164,l),
(367,-168,o),
(396,-171,o),
(464,-171,cs)
);
}
);
};
layerId = "E5B4AC11-8521-476B-8B52-54F023F880B1";
shapes = (
{
ref = C;
},
{
pos = (324,0);
ref = cedillacomb;
}
);
width = 902;
}
);
unicode = 199;
},
{
glyphname = Ccircumflex;
kernLeft = O;
kernRight = C;
lastChange = "2024-12-19 13:17:37 +0000";
layers = (
{
background = {
anchors = (
{
name = bottom;
pos = (476,0);
},
{
name = top;
pos = (463,920);
}
);
shapes = (
{
closed = 1;
nodes = (
(694,-13,o),
(843,95,o),
(882,233,c),
(703,276,l),
(661,172,o),
(572,141,o),
(474,141,cs),
(341,141,o),
(233,208,o),
(233,345,cs),
(233,365,ls),
(233,502,o),
(341,569,o),
(474,569,cs),
(572,569,o),
(661,538,o),
(703,434,c),
(882,477,l),
(843,615,o),
(694,721,o),
(471,721,cs),
(214,721,o),
(31,579,o),
(31,355,cs),
(31,131,o),
(214,-13,o),
(471,-13,cs)
);
},
{
closed = 1;
nodes = (
(387,768,l),
(517,886,l),
(409,886,l),
(538,768,l),
(700,768,l),
(536,920,l),
(390,920,l),
(226,768,l)
);
}
);
};
layerId = "E5B4AC11-8521-476B-8B52-54F023F880B1";
shapes = (
{
ref = C;
},
{
pos = (220,0);
ref = circumflexcomb.case;
}
);
width = 902;
}
);
unicode = 264;
},
{
glyphname = Cdotaccent;
kernLeft = O;
kernRight = C;
lastChange = "2024-12-19 13:17:37 +0000";
layers = (
{
background = {
anchors = (
{
name = bottom;
pos = (476,0);
},
{
name = top;
pos = (463,916);
}
);
shapes = (
{
closed = 1;
nodes = (
(694,-13,o),
(843,95,o),
(882,233,c),
(703,276,l),
(661,172,o),
(572,141,o),
(474,141,cs),
(341,141,o),
(233,208,o),
(233,345,cs),
(233,365,ls),
(233,502,o),
(341,569,o),
(474,569,cs),
(572,569,o),
(661,538,o),
(703,434,c),
(882,477,l),
(843,615,o),
(694,721,o),
(471,721,cs),
(214,721,o),
(31,579,o),
(31,355,cs),
(31,131,o),
(214,-13,o),
(471,-13,cs)
);
},
{
closed = 1;
nodes = (
(559,776,l),
(559,916,l),
(367,916,l),
(367,776,l)
);
}
);
};
layerId = "E5B4AC11-8521-476B-8B52-54F023F880B1";
shapes = (
{
ref = C;
},
{
pos = (367,0);
ref = dotaccentcomb.case;
}
);
width = 902;
}
);
unicode = 266;
},
{
glyphname = D;
kernLeft = H;
kernRight = D;
lastChange = "2024-12-19 13:17:24 +0000";
layers = (
{
anchors = (
{
name = bottom;
pos = (443,0);
},
{
name = center;
pos = (443,355);
},
{
name = top;
pos = (388,710);
}
);
background = {
anchors = (
{
name = bottom;
pos = (443,0);
},
{
name = center;
pos = (443,355);
},
{
name = top;
pos = (388,710);
}
);
shapes = (
{
closed = 1;
nodes = (
(441,0,ls),
(722,0,o),
(859,150,o),
(859,354,cs),
(859,560,o),
(722,710,o),
(441,710,cs),
(58,710,l),
(58,0,l)
);
},
{
closed = 1;
nodes = (
(258,562,l),
(427,562,ls),
(583,562,o),
(657,490,o),
(657,368,cs),
(657,342,ls),
(657,222,o),
(583,148,o),
(427,148,cs),
(258,148,l)
);
}
);
};
layerId = "E5B4AC11-8521-476B-8B52-54F023F880B1";
shapes = (
{
closed = 1;
nodes = (
(441,0,ls),
(722,0,o),
(859,150,o),
(859,354,cs),
(859,560,o),
(722,710,o),
(441,710,cs),
(58,710,l),
(58,0,l)
);
},
{
closed = 1;
nodes = (
(258,562,l),
(427,562,ls),
(583,562,o),
(657,490,o),
(657,368,cs),
(657,342,ls),
(657,222,o),
(583,148,o),
(427,148,cs),
(258,148,l)
);
}
);
width = 891;
}
);
note = D;
unicode = 68;
},
{
glyphname = Dcaron;
kernLeft = H;
kernRight = D;
lastChange = "2024-12-19 13:17:37 +0000";
layers = (
{
background = {
anchors = (
{
name = bottom;
pos = (443,0);
},
{
name = center;
pos = (443,355);
},
{
name = top;
pos = (388,920);
}
);
shapes = (
{
closed = 1;
nodes = (
(441,0,ls),
(722,0,o),
(859,150,o),
(859,354,cs),
(859,560,o),
(722,710,o),
(441,710,cs),
(58,710,l),
(58,0,l)
);
},
{
closed = 1;
nodes = (
(258,562,l),
(427,562,ls),
(583,562,o),
(657,490,o),
(657,368,cs),
(657,342,ls),
(657,222,o),
(583,148,o),
(427,148,cs),
(258,148,l)
);
},
{
closed = 1;
nodes = (
(461,768,l),
(625,920,l),
(463,920,l),
(334,802,l),
(442,802,l),
(312,920,l),
(151,920,l),
(315,768,l)
);
}
);
};
layerId = "E5B4AC11-8521-476B-8B52-54F023F880B1";
shapes = (
{
ref = D;
},
{
pos = (145,0);
ref = caroncomb.case;
}
);
width = 891;
}
);
unicode = 270;
},
{
glyphname = Dcroat;
kernLeft = H;
kernRight = D;
lastChange = "2024-12-19 13:17:37 +0000";
layers = (
{
background = {
anchors = (
{
name = bottom;
pos = (498,0);
},
{
name = center;
pos = (498,355);
},
{
name = top;
pos = (443,710);
}
);
shapes = (
{
closed = 1;
nodes = (
(477,284,l),
(477,427,l),
(29,427,l),
(29,284,l)
);
},
{
closed = 1;
nodes = (
(496,0,ls),
(777,0,o),
(914,150,o),
(914,354,cs),
(914,560,o),
(777,710,o),
(496,710,cs),
(113,710,l),
(113,0,l)
);
},
{
closed = 1;
nodes = (
(313,562,l),
(482,562,ls),
(638,562,o),
(712,490,o),
(712,368,cs),
(712,342,ls),
(712,222,o),
(638,148,o),
(482,148,cs),
(313,148,l)
);
}
);
};
layerId = "E5B4AC11-8521-476B-8B52-54F023F880B1";
shapes = (
{
closed = 1;
nodes = (
(477,284,l),
(477,427,l),
(29,427,l),
(29,284,l)
);
},
{
pos = (55,0);
ref = D;
}
);
width = 946;
}
);
unicode = 272;
},
{
glyphname = Eth;
kernLeft = H;
kernRight = D;
lastChange = "2024-12-19 13:17:37 +0000";
layers = (
{
background = {
anchors = (
{
name = bottom;
pos = (498,0);
},
{
name = center;
pos = (498,355);
},
{
name = top;
pos = (443,710);
}
);
shapes = (
{
closed = 1;
nodes = (
(477,284,l),
(477,427,l),
(29,427,l),
(29,284,l)
);
},
{
closed = 1;
nodes = (
(496,0,ls),
(777,0,o),
(914,150,o),
(914,354,cs),
(914,560,o),
(777,710,o),
(496,710,cs),
(113,710,l),
(113,0,l)
);
},
{
closed = 1;
nodes = (
(313,562,l),
(482,562,ls),
(638,562,o),
(712,490,o),
(712,368,cs),
(712,342,ls),
(712,222,o),
(638,148,o),
(482,148,cs),
(313,148,l)
);
}
);
};
layerId = "E5B4AC11-8521-476B-8B52-54F023F880B1";
shapes = (
{
ref = Dcroat;
}
);
width = 946;
}
);
unicode = 208;
},
{
glyphname = E;
kernLeft = H;
kernRight = E;
lastChange = "2024-12-19 13:17:24 +0000";
layers = (
{
anchors = (
{
name = bottom;
pos = (392,0);
},
{
name = ogonek;
pos = (684,0);
},
{
name = top;
pos = (392,710);
},
{
name = topleft;
pos = (30,710);
}
);
background = {
anchors = (
{
name = bottom;
pos = (392,0);
},
{
name = ogonek;
pos = (684,0);
},
{
name = top;
pos = (392,710);
},
{
name = topleft;
pos = (30,710);
}
);
shapes = (
{
closed = 1;
nodes = (
(725,0,l),
(725,148,l),
(206,148,l),
(258,95,l),
(258,615,l),
(206,562,l),
(718,562,l),
(718,710,l),
(58,710,l),
(58,0,l)
);
},
{
closed = 1;
nodes = (
(673,288,l),
(673,430,l),
(149,430,l),
(149,288,l)
);
}
);
};
layerId = "E5B4AC11-8521-476B-8B52-54F023F880B1";
shapes = (
{
closed = 1;
nodes = (
(725,0,l),
(725,148,l),
(206,148,l),
(258,95,l),
(258,615,l),
(206,562,l),
(718,562,l),
(718,710,l),
(58,710,l),
(58,0,l)
);
},
{
closed = 1;
nodes = (
(673,288,l),
(673,430,l),
(149,430,l),
(149,288,l)
);
}
);
width = 763;
}
);
note = E;
unicode = 69;
},
{
glyphname = Eacute;
kernLeft = H;
kernRight = E;
lastChange = "2024-12-19 13:17:37 +0000";
layers = (
{
background = {
anchors = (
{
name = bottom;
pos = (392,0);
},
{
name = ogonek;
pos = (684,0);
},
{
name = top;
pos = (450,956);
},
{
name = topleft;
pos = (30,710);
}
);
shapes = (
{
closed = 1;
nodes = (
(725,0,l),
(725,148,l),
(206,148,l),
(258,95,l),
(258,615,l),
(206,562,l),
(718,562,l),
(718,710,l),
(58,710,l),
(58,0,l)
);
},
{
closed = 1;
nodes = (
(673,288,l),
(673,430,l),
(149,430,l),
(149,288,l)
);
},
{
closed = 1;
nodes = (
(587,910,l),
(445,956,l),
(321,782,l),
(445,760,l)
);
}
);
};
layerId = "E5B4AC11-8521-476B-8B52-54F023F880B1";
shapes = (
{
ref = E;
},
{
pos = (321,0);
ref = acutecomb.case;
}
);
width = 763;
}
);
unicode = 201;
},
{
glyphname = Ebreve;
kernLeft = H;
kernRight = E;
lastChange = "2024-12-19 13:17:37 +0000";
layers = (
{
background = {
anchors = (
{
name = bottom;
pos = (392,0);
},
{
name = ogonek;
pos = (684,0);
},
{
name = top;
pos = (392,930);
},
{
name = topleft;
pos = (30,710);
}
);
shapes = (
{
closed = 1;
nodes = (
(725,0,l),
(725,148,l),
(206,148,l),
(258,95,l),
(258,615,l),
(206,562,l),
(718,562,l),
(718,710,l),
(58,710,l),
(58,0,l)
);
},
{
closed = 1;
nodes = (
(673,288,l),
(673,430,l),
(149,430,l),
(149,288,l)
);
},
{
closed = 1;
nodes = (
(514,765,o),
(596,828,o),
(603,930,c),
(480,930,l),
(476,892,o),
(452,861,o),
(392,861,cs),
(332,861,o),
(308,892,o),
(304,930,c),
(181,930,l),
(188,828,o),
(270,765,o),
(392,765,cs)
);
}
);
};
layerId = "E5B4AC11-8521-476B-8B52-54F023F880B1";
shapes = (
{
ref = E;
},
{
pos = (181,0);
ref = brevecomb.case;
}
);
width = 763;
}
);
unicode = 276;
},
{
glyphname = Ecaron;
kernLeft = H;
kernRight = E;
lastChange = "2024-12-19 13:17:37 +0000";
layers = (
{
background = {
anchors = (
{
name = bottom;
pos = (392,0);
},
{
name = ogonek;
pos = (684,0);
},
{
name = top;
pos = (392,920);
},
{
name = topleft;
pos = (30,710);
}
);
shapes = (
{
closed = 1;
nodes = (
(725,0,l),
(725,148,l),
(206,148,l),
(258,95,l),
(258,615,l),
(206,562,l),
(718,562,l),
(718,710,l),
(58,710,l),
(58,0,l)
);
},
{
closed = 1;
nodes = (
(673,288,l),
(673,430,l),
(149,430,l),
(149,288,l)
);
},
{
closed = 1;
nodes = (
(465,768,l),
(629,920,l),
(467,920,l),
(338,802,l),
(446,802,l),
(316,920,l),
(155,920,l),
(319,768,l)
);
}
);
};
layerId = "E5B4AC11-8521-476B-8B52-54F023F880B1";
shapes = (
{
ref = E;
},
{
pos = (149,0);
ref = caroncomb.case;
}
);
width = 763;
}
);
unicode = 282;
},
{
glyphname = Ecircumflex;
kernLeft = H;
kernRight = E;
lastChange = "2024-12-19 13:17:37 +0000";
layers = (
{
background = {
anchors = (
{
name = bottom;
pos = (392,0);
},
{
name = ogonek;
pos = (684,0);
},
{
name = top;
pos = (392,920);
},
{
name = topleft;
pos = (30,710);
}
);
shapes = (
{
closed = 1;
nodes = (
(725,0,l),
(725,148,l),
(206,148,l),
(258,95,l),
(258,615,l),
(206,562,l),
(718,562,l),
(718,710,l),
(58,710,l),
(58,0,l)
);
},
{
closed = 1;
nodes = (
(673,288,l),
(673,430,l),
(149,430,l),
(149,288,l)
);
},
{
closed = 1;
nodes = (
(316,768,l),
(446,886,l),
(338,886,l),
(467,768,l),
(629,768,l),
(465,920,l),
(319,920,l),
(155,768,l)
);
}
);
};
layerId = "E5B4AC11-8521-476B-8B52-54F023F880B1";
shapes = (
{
ref = E;
},
{
pos = (149,0);
ref = circumflexcomb.case;
}
);
width = 763;
}
);
unicode = 202;
},
{
glyphname = Edieresis;
kernLeft = H;
kernRight = E;
lastChange = "2024-12-19 13:17:37 +0000";
layers = (
{
background = {
anchors = (
{
name = bottom;
pos = (392,0);
},
{
name = ogonek;
pos = (684,0);
},
{
name = top;
pos = (392,916);
},
{
name = topleft;
pos = (30,710);
}
);
shapes = (
{
closed = 1;
nodes = (
(725,0,l),
(725,148,l),
(206,148,l),
(258,95,l),
(258,615,l),
(206,562,l),
(718,562,l),
(718,710,l),
(58,710,l),
(58,0,l)
);
},
{
closed = 1;
nodes = (
(673,288,l),
(673,430,l),
(149,430,l),
(149,288,l)
);
},
{
closed = 1;
nodes = (
(358,776,l),
(358,916,l),
(185,916,l),
(185,776,l)
);
},
{
closed = 1;
nodes = (
(600,776,l),
(600,916,l),
(427,916,l),
(427,776,l)
);
}
);
};
layerId = "E5B4AC11-8521-476B-8B52-54F023F880B1";
shapes = (
{
ref = E;
},
{
pos = (185,0);
ref = dieresiscomb.case;
}
);
width = 763;
}
);
unicode = 203;
},
{
glyphname = Edotaccent;
kernLeft = H;
kernRight = E;
lastChange = "2024-12-19 13:17:37 +0000";
layers = (
{
background = {
anchors = (
{
name = bottom;
pos = (392,0);
},
{
name = ogonek;
pos = (684,0);
},
{
name = top;
pos = (392,916);
},
{
name = topleft;
pos = (30,710);
}
);
shapes = (
{
closed = 1;
nodes = (
(725,0,l),
(725,148,l),
(206,148,l),
(258,95,l),
(258,615,l),
(206,562,l),
(718,562,l),
(718,710,l),
(58,710,l),
(58,0,l)
);
},
{
closed = 1;
nodes = (
(673,288,l),
(673,430,l),
(149,430,l),
(149,288,l)
);
},
{
closed = 1;
nodes = (
(488,776,l),
(488,916,l),
(296,916,l),
(296,776,l)
);
}
);
};
layerId = "E5B4AC11-8521-476B-8B52-54F023F880B1";
shapes = (
{
ref = E;
},
{
pos = (296,0);
ref = dotaccentcomb.case;
}
);
width = 763;
}
);
unicode = 278;
},
{
glyphname = Egrave;
kernLeft = H;
kernRight = E;
lastChange = "2024-12-19 13:17:37 +0000";
layers = (
{
background = {
anchors = (
{
name = bottom;
pos = (392,0);
},
{
name = ogonek;
pos = (684,0);
},
{
name = top;
pos = (334,956);
},
{
name = topleft;
pos = (30,710);
}
);
shapes = (
{
closed = 1;
nodes = (
(725,0,l),
(725,148,l),
(206,148,l),
(258,95,l),
(258,615,l),
(206,562,l),
(718,562,l),
(718,710,l),
(58,710,l),
(58,0,l)
);
},
{
closed = 1;
nodes = (
(673,288,l),
(673,430,l),
(149,430,l),
(149,288,l)
);
},
{
closed = 1;
nodes = (
(463,782,l),
(339,956,l),
(197,910,l),
(339,760,l)
);
}
);
};
layerId = "E5B4AC11-8521-476B-8B52-54F023F880B1";
shapes = (
{
ref = E;
},
{
pos = (197,0);
ref = gravecomb.case;
}
);
width = 763;
}
);
unicode = 200;
},
{
glyphname = Emacron;
kernLeft = H;
kernRight = E;
lastChange = "2024-12-19 13:17:37 +0000";
layers = (
{
background = {
anchors = (
{
name = bottom;
pos = (392,0);
},
{
name = ogonek;
pos = (684,0);
},
{
name = top;
pos = (392,883);
},
{
name = topleft;
pos = (30,710);
}
);
shapes = (
{
closed = 1;
nodes = (
(725,0,l),
(725,148,l),
(206,148,l),
(258,95,l),
(258,615,l),
(206,562,l),
(718,562,l),
(718,710,l),
(58,710,l),
(58,0,l)
);
},
{
closed = 1;
nodes = (
(673,288,l),
(673,430,l),
(149,430,l),
(149,288,l)
);
},
{
closed = 1;
nodes = (
(632,782,l),
(632,883,l),
(151,883,l),
(151,782,l)
);
}
);
};
layerId = "E5B4AC11-8521-476B-8B52-54F023F880B1";
shapes = (
{
ref = E;
},
{
pos = (151,0);
ref = macroncomb.case;
}
);
width = 763;
}
);
unicode = 274;
},
{
glyphname = Eogonek;
kernLeft = H;
kernRight = E;
lastChange = "2024-12-19 13:17:37 +0000";
layers = (
{
anchors = (
{
name = top;
pos = (589,710);
}
);
background = {
anchors = (
{
name = bottom;
pos = (392,0);
},
{
name = ogonek;
pos = (684,0);
},
{
name = top;
pos = (589,710);
},
{
name = topleft;
pos = (30,710);
}
);
shapes = (
{
closed = 1;
nodes = (
(725,0,l),
(725,148,l),
(206,148,l),
(258,95,l),
(258,615,l),
(206,562,l),
(718,562,l),
(718,710,l),
(58,710,l),
(58,0,l)
);
},
{
closed = 1;
nodes = (
(673,288,l),
(673,430,l),
(149,430,l),
(149,288,l)
);
},
{
closed = 1;
nodes = (
(707,-71,l),
(673,-78,o),
(616,-84,o),
(616,-48,cs),
(616,-28,o),
(635,-13,o),
(659,0,c),
(530,12,l),
(530,2,l),
(508,-18,o),
(476,-49,o),
(476,-86,cs),
(476,-181,o),
(623,-183,o),
(707,-159,c)
);
}
);
};
layerId = "E5B4AC11-8521-476B-8B52-54F023F880B1";
shapes = (
{
ref = E;
},
{
pos = (476,0);
ref = ogonekcomb;
}
);
width = 763;
}
);
unicode = 280;
},
{
glyphname = F;
kernLeft = H;
lastChange = "2024-12-19 13:17:24 +0000";
layers = (
{
anchors = (
{
name = bottom;
pos = (361,0);
},
{
name = top;
pos = (361,710);
}
);
background = {
anchors = (
{
name = bottom;
pos = (361,0);
},
{
name = top;
pos = (361,710);
}
);
shapes = (
{
closed = 1;
nodes = (
(258,0,l),
(258,615,l),
(206,562,l),
(688,562,l),
(688,710,l),
(58,710,l),
(58,0,l)
);
},
{
closed = 1;
nodes = (
(666,266,l),
(666,408,l),
(149,408,l),
(149,266,l)
);
}
);
};
layerId = "E5B4AC11-8521-476B-8B52-54F023F880B1";
shapes = (
{
closed = 1;
nodes = (
(258,0,l),
(258,615,l),
(206,562,l),
(688,562,l),
(688,710,l),
(58,710,l),
(58,0,l)
);
},
{
closed = 1;
nodes = (
(666,266,l),
(666,408,l),
(149,408,l),
(149,266,l)
);
}
);
width = 715;
}
);
note = F;
unicode = 70;
},
{
glyphname = G;
kernLeft = O;
kernRight = G;
lastChange = "2024-12-19 13:17:24 +0000";
layers = (
{
anchors = (
{
name = bottom;
pos = (479,0);
},
{
name = top;
pos = (478,710);
}
);
background = {
anchors = (
{
name = bottom;
pos = (479,0);
},
{
name = top;
pos = (478,710);
}
);
shapes = (
{
closed = 1;
nodes = (
(611,-13,o),
(758,47,o),
(801,182,c),
(712,182,l),
(733,0,l),
(892,0,l),
(892,404,l),
(452,404,l),
(452,266,l),
(708,266,l),
(708,259,ls),
(708,181,o),
(619,137,o),
(495,137,cs),
(342,137,o),
(233,208,o),
(233,345,cs),
(233,365,ls),
(233,502,o),
(341,569,o),
(477,569,cs),
(575,569,o),
(658,548,o),
(699,450,c),
(878,493,l),
(840,625,o),
(700,721,o),
(474,721,cs),
(215,721,o),
(31,579,o),
(31,355,cs),
(31,131,o),
(208,-13,o),
(458,-13,cs)
);
}
);
};
layerId = "E5B4AC11-8521-476B-8B52-54F023F880B1";
shapes = (
{
closed = 1;
nodes = (
(611,-13,o),
(758,47,o),
(801,182,c),
(712,182,l),
(733,0,l),
(892,0,l),
(892,404,l),
(452,404,l),
(452,266,l),
(708,266,l),
(708,259,ls),
(708,181,o),
(619,137,o),
(495,137,cs),
(342,137,o),
(233,208,o),
(233,345,cs),
(233,365,ls),
(233,502,o),
(341,569,o),
(477,569,cs),
(575,569,o),
(658,548,o),
(699,450,c),
(878,493,l),
(840,625,o),
(700,721,o),
(474,721,cs),
(215,721,o),
(31,579,o),
(31,355,cs),
(31,131,o),
(208,-13,o),
(458,-13,cs)
);
}
);
width = 939;
}
);
note = G;
unicode = 71;
},
{
glyphname = Gbreve;
kernLeft = O;
kernRight = G;
lastChange = "2024-12-19 13:17:37 +0000";
layers = (
{
background = {
anchors = (
{
name = bottom;
pos = (479,0);
},
{
name = top;
pos = (478,930);
}
);
shapes = (
{
closed = 1;
nodes = (
(611,-13,o),
(758,47,o),
(801,182,c),
(712,182,l),
(733,0,l),
(892,0,l),
(892,404,l),
(452,404,l),
(452,266,l),
(708,266,l),
(708,259,ls),
(708,181,o),
(619,137,o),
(495,137,cs),
(342,137,o),
(233,208,o),
(233,345,cs),
(233,365,ls),
(233,502,o),
(341,569,o),
(477,569,cs),
(575,569,o),
(658,548,o),
(699,450,c),
(878,493,l),
(840,625,o),
(700,721,o),
(474,721,cs),
(215,721,o),
(31,579,o),
(31,355,cs),
(31,131,o),
(208,-13,o),
(458,-13,cs)
);
},
{
closed = 1;
nodes = (
(600,765,o),
(682,828,o),
(689,930,c),
(566,930,l),
(562,892,o),
(538,861,o),
(478,861,cs),
(418,861,o),
(394,892,o),
(390,930,c),
(267,930,l),
(274,828,o),
(356,765,o),
(478,765,cs)
);
}
);
};
layerId = "E5B4AC11-8521-476B-8B52-54F023F880B1";
shapes = (
{
ref = G;
},
{
pos = (267,0);
ref = brevecomb.case;
}
);
width = 939;
}
);
unicode = 286;
},
{
glyphname = Gcircumflex;
kernLeft = O;
kernRight = G;
lastChange = "2024-12-19 13:17:37 +0000";
layers = (
{
background = {
anchors = (
{
name = bottom;
pos = (479,0);
},
{
name = top;
pos = (478,920);
}
);
shapes = (
{
closed = 1;
nodes = (
(611,-13,o),
(758,47,o),
(801,182,c),
(712,182,l),
(733,0,l),
(892,0,l),
(892,404,l),
(452,404,l),
(452,266,l),
(708,266,l),
(708,259,ls),
(708,181,o),
(619,137,o),
(495,137,cs),
(342,137,o),
(233,208,o),
(233,345,cs),
(233,365,ls),
(233,502,o),
(341,569,o),
(477,569,cs),
(575,569,o),
(658,548,o),
(699,450,c),
(878,493,l),
(840,625,o),
(700,721,o),
(474,721,cs),
(215,721,o),
(31,579,o),
(31,355,cs),
(31,131,o),
(208,-13,o),
(458,-13,cs)
);
},
{
closed = 1;
nodes = (
(402,768,l),
(532,886,l),
(424,886,l),
(553,768,l),
(715,768,l),
(551,920,l),
(405,920,l),
(241,768,l)
);
}
);
};
layerId = "E5B4AC11-8521-476B-8B52-54F023F880B1";
shapes = (
{
ref = G;
},
{
pos = (235,0);
ref = circumflexcomb.case;
}
);
width = 939;
}
);
unicode = 284;
},
{
glyphname = Gcommaaccent;
kernLeft = O;
kernRight = G;
lastChange = "2024-12-19 13:17:37 +0000";
layers = (
{
background = {
anchors = (
{
name = bottom;
pos = (479,-298);
},
{
name = top;
pos = (478,710);
}
);
shapes = (
{
closed = 1;
nodes = (
(611,-13,o),
(758,47,o),
(801,182,c),
(712,182,l),
(733,0,l),
(892,0,l),
(892,404,l),
(452,404,l),
(452,266,l),
(708,266,l),
(708,259,ls),
(708,181,o),
(619,137,o),
(495,137,cs),
(342,137,o),
(233,208,o),
(233,345,cs),
(233,365,ls),
(233,502,o),
(341,569,o),
(477,569,cs),
(575,569,o),
(658,548,o),
(699,450,c),
(878,493,l),
(840,625,o),
(700,721,o),
(474,721,cs),
(215,721,o),
(31,579,o),
(31,355,cs),
(31,131,o),
(208,-13,o),
(458,-13,cs)
);
},
{
closed = 1;
nodes = (
(493,-298,l),
(569,-186,l),
(569,-70,l),
(389,-70,l),
(389,-204,l),
(459,-204,l),
(413,-298,l)
);
}
);
};
layerId = "E5B4AC11-8521-476B-8B52-54F023F880B1";
shapes = (
{
ref = G;
},
{
pos = (389,0);
ref = commaaccentcomb;
}
);
width = 939;
}
);
unicode = 290;
},
{
glyphname = Gdotaccent;
kernLeft = O;
kernRight = G;
lastChange = "2024-12-19 13:17:37 +0000";
layers = (
{
background = {
anchors = (
{
name = bottom;
pos = (479,0);
},
{
name = top;
pos = (478,916);
}
);
shapes = (
{
closed = 1;
nodes = (
(611,-13,o),
(758,47,o),
(801,182,c),
(712,182,l),
(733,0,l),
(892,0,l),
(892,404,l),
(452,404,l),
(452,266,l),
(708,266,l),
(708,259,ls),
(708,181,o),
(619,137,o),
(495,137,cs),
(342,137,o),
(233,208,o),
(233,345,cs),
(233,365,ls),
(233,502,o),
(341,569,o),
(477,569,cs),
(575,569,o),
(658,548,o),
(699,450,c),
(878,493,l),
(840,625,o),
(700,721,o),
(474,721,cs),
(215,721,o),
(31,579,o),
(31,355,cs),
(31,131,o),
(208,-13,o),
(458,-13,cs)
);
},
{
closed = 1;
nodes = (
(574,776,l),
(574,916,l),
(382,916,l),
(382,776,l)
);
}
);
};
layerId = "E5B4AC11-8521-476B-8B52-54F023F880B1";
shapes = (
{
ref = G;
},
{
pos = (382,0);
ref = dotaccentcomb.case;
}
);
width = 939;
}
);
unicode = 288;
},
{
glyphname = H;
kernLeft = H;
kernRight = H;
lastChange = "2024-12-19 13:17:24 +0000";
layers = (
{
anchors = (
{
name = bottom;
pos = (437,0);
},
{
name = center;
pos = (437,355);
},
{
name = top;
pos = (437,710);
},
{
name = topleft;
pos = (24,710);
}
);
background = {
anchors = (
{
name = bottom;
pos = (437,0);
},
{
name = center;
pos = (437,355);
},
{
name = top;
pos = (437,710);
},
{
name = topleft;
pos = (24,710);
}
);
shapes = (
{
closed = 1;
nodes = (
(816,0,l),
(816,710,l),
(616,710,l),
(616,0,l)
);
},
{
closed = 1;
nodes = (
(258,0,l),
(258,710,l),
(58,710,l),
(58,0,l)
);
},
{
closed = 1;
nodes = (
(725,281,l),
(725,429,l),
(149,429,l),
(149,281,l)
);
}
);
};
layerId = "E5B4AC11-8521-476B-8B52-54F023F880B1";
shapes = (
{
closed = 1;
nodes = (
(816,0,l),
(816,710,l),
(616,710,l),
(616,0,l)
);
},
{
closed = 1;
nodes = (
(258,0,l),
(258,710,l),
(58,710,l),
(58,0,l)
);
},
{
closed = 1;
nodes = (
(725,281,l),
(725,429,l),
(149,429,l),
(149,281,l)
);
}
);
width = 874;
}
);
note = H;
unicode = 72;
},
{
glyphname = Hbar;
kernLeft = H;
kernRight = H;
lastChange = "2024-12-19 13:17:24 +0000";
layers = (
{
background = {
shapes = (
{
closed = 1;
nodes = (
(845,0,l),
(845,710,l),
(645,710,l),
(645,0,l)
);
},
{
closed = 1;
nodes = (
(287,0,l),
(287,710,l),
(87,710,l),
(87,0,l)
);
},
{
closed = 1;
nodes = (
(754,231,l),
(754,379,l),
(178,379,l),
(178,231,l)
);
},
{
closed = 1;
nodes = (
(909,463,l),
(909,587,l),
(23,587,l),
(23,463,l)
);
}
);
};
layerId = "E5B4AC11-8521-476B-8B52-54F023F880B1";
shapes = (
{
closed = 1;
nodes = (
(845,0,l),
(845,710,l),
(645,710,l),
(645,0,l)
);
},
{
closed = 1;
nodes = (
(287,0,l),
(287,710,l),
(87,710,l),
(87,0,l)
);
},
{
closed = 1;
nodes = (
(754,231,l),
(754,379,l),
(178,379,l),
(178,231,l)
);
},
{
closed = 1;
nodes = (
(909,463,l),
(909,587,l),
(23,587,l),
(23,463,l)
);
}
);
width = 932;
}
);
unicode = 294;
},
{
glyphname = Hcircumflex;
kernLeft = H;
kernRight = H;
lastChange = "2024-12-19 13:17:37 +0000";
layers = (
{
background = {
anchors = (
{
name = bottom;
pos = (437,0);
},
{
name = center;
pos = (437,355);
},
{
name = top;
pos = (437,920);
},
{
name = topleft;
pos = (24,710);
}
);
shapes = (
{
closed = 1;
nodes = (
(816,0,l),
(816,710,l),
(616,710,l),
(616,0,l)
);
},
{
closed = 1;
nodes = (
(258,0,l),
(258,710,l),
(58,710,l),
(58,0,l)
);
},
{
closed = 1;
nodes = (
(725,281,l),
(725,429,l),
(149,429,l),
(149,281,l)
);
},
{
closed = 1;
nodes = (
(361,768,l),
(491,886,l),
(383,886,l),
(512,768,l),
(674,768,l),
(510,920,l),
(364,920,l),
(200,768,l)
);
}
);
};
layerId = "E5B4AC11-8521-476B-8B52-54F023F880B1";
shapes = (
{
ref = H;
},
{
pos = (194,0);
ref = circumflexcomb.case;
}
);
width = 874;
}
);
unicode = 292;
},
{
glyphname = I;
kernLeft = H;
kernRight = H;
lastChange = "2024-12-19 13:17:24 +0000";
layers = (
{
anchors = (
{
name = bottom;
pos = (158,0);
},
{
name = ogonek;
pos = (235,0);
},
{
name = top;
pos = (158,710);
},
{
name = topleft;
pos = (30,710);
}
);
background = {
anchors = (
{
name = bottom;
pos = (158,0);
},
{
name = ogonek;
pos = (235,0);
},
{
name = top;
pos = (158,710);
},
{
name = topleft;
pos = (30,710);
}
);
shapes = (
{
closed = 1;
nodes = (
(258,0,l),
(258,710,l),
(58,710,l),
(58,0,l)
);
}
);
};
layerId = "E5B4AC11-8521-476B-8B52-54F023F880B1";
shapes = (
{
closed = 1;
nodes = (
(258,0,l),
(258,710,l),
(58,710,l),
(58,0,l)
);
}
);
width = 316;
}
);
note = I;
unicode = 73;
},
{
glyphname = IJ;
kernLeft = H;
kernRight = J;
lastChange = "2024-12-19 13:17:24 +0000";
layers = (
{
background = {
shapes = (
{
closed = 1;
nodes = (
(515,-12,o),
(647,61,o),
(647,260,cs),
(647,710,l),
(449,710,l),
(449,251,ls),
(449,154,o),
(378,144,o),
(300,144,cs),
(262,144,o),
(222,148,o),
(157,156,c),
(157,2,l),
(228,-8,o),
(267,-12,o),
(323,-12,cs)
);
},
{
closed = 1;
nodes = (
(258,277,l),
(258,710,l),
(58,710,l),
(58,277,l)
);
}
);
};
layerId = "E5B4AC11-8521-476B-8B52-54F023F880B1";
shapes = (
{
closed = 1;
nodes = (
(515,-12,o),
(647,61,o),
(647,260,cs),
(647,710,l),
(449,710,l),
(449,251,ls),
(449,154,o),
(378,144,o),
(300,144,cs),
(262,144,o),
(222,148,o),
(157,156,c),
(157,2,l),
(228,-8,o),
(267,-12,o),
(323,-12,cs)
);
},
{
closed = 1;
nodes = (
(258,277,l),
(258,710,l),
(58,710,l),
(58,277,l)
);
}
);
width = 699;
}
);
metricLeft = H;
metricRight = J;
unicode = 306;
},
{
glyphname = Iacute;
kernLeft = H;
kernRight = H;
lastChange = "2024-12-19 13:17:37 +0000";
layers = (
{
background = {
anchors = (
{
name = bottom;
pos = (158,0);
},
{
name = ogonek;
pos = (235,0);
},
{
name = top;
pos = (216,956);
},
{
name = topleft;
pos = (30,710);
}
);
shapes = (
{
closed = 1;
nodes = (
(258,0,l),
(258,710,l),
(58,710,l),
(58,0,l)
);
},
{
closed = 1;
nodes = (
(353,910,l),
(211,956,l),
(87,782,l),
(211,760,l)
);
}
);
};
layerId = "E5B4AC11-8521-476B-8B52-54F023F880B1";
shapes = (
{
ref = I;
},
{
pos = (87,0);
ref = acutecomb.case;
}
);
width = 316;
}
);
unicode = 205;
},
{
glyphname = Ibreve;
kernLeft = H;
kernRight = H;
lastChange = "2024-12-19 13:17:37 +0000";
layers = (
{
background = {
anchors = (
{
name = bottom;
pos = (158,0);
},
{
name = ogonek;
pos = (235,0);
},
{
name = top;
pos = (158,930);
},
{
name = topleft;
pos = (30,710);
}
);
shapes = (
{
closed = 1;
nodes = (
(258,0,l),
(258,710,l),
(58,710,l),
(58,0,l)
);
},
{
closed = 1;
nodes = (
(280,765,o),
(362,828,o),
(369,930,c),
(246,930,l),
(242,892,o),
(218,861,o),
(158,861,cs),
(98,861,o),
(74,892,o),
(70,930,c),
(-53,930,l),
(-46,828,o),
(36,765,o),
(158,765,cs)
);
}
);
};
layerId = "E5B4AC11-8521-476B-8B52-54F023F880B1";
shapes = (
{
ref = I;
},
{
pos = (-53,0);
ref = brevecomb.case;
}
);
width = 316;
}
);
unicode = 300;
},
{
glyphname = Icircumflex;
kernLeft = H;
kernRight = H;
lastChange = "2024-12-19 13:17:37 +0000";
layers = (
{
background = {
anchors = (
{
name = bottom;
pos = (158,0);
},
{
name = ogonek;
pos = (235,0);
},
{
name = top;
pos = (158,920);
},
{
name = topleft;
pos = (30,710);
}
);
shapes = (
{
closed = 1;
nodes = (
(258,0,l),
(258,710,l),
(58,710,l),
(58,0,l)
);
},
{
closed = 1;
nodes = (
(82,768,l),
(212,886,l),
(104,886,l),
(233,768,l),
(395,768,l),
(231,920,l),
(85,920,l),
(-79,768,l)
);
}
);
};
layerId = "E5B4AC11-8521-476B-8B52-54F023F880B1";
shapes = (
{
ref = I;
},
{
pos = (-85,0);
ref = circumflexcomb.case;
}
);
width = 316;
}
);
unicode = 206;
},
{
glyphname = Idieresis;
kernLeft = H;
kernRight = H;
lastChange = "2024-12-19 13:17:37 +0000";
layers = (
{
background = {
anchors = (
{
name = bottom;
pos = (158,0);
},
{
name = ogonek;
pos = (235,0);
},
{
name = top;
pos = (158,916);
},
{
name = topleft;
pos = (30,710);
}
);
shapes = (
{
closed = 1;
nodes = (
(258,0,l),
(258,710,l),
(58,710,l),
(58,0,l)
);
},
{
closed = 1;
nodes = (
(124,776,l),
(124,916,l),
(-49,916,l),
(-49,776,l)
);
},
{
closed = 1;
nodes = (
(366,776,l),
(366,916,l),
(193,916,l),
(193,776,l)
);
}
);
};
layerId = "E5B4AC11-8521-476B-8B52-54F023F880B1";
shapes = (
{
ref = I;
},
{
pos = (-49,0);
ref = dieresiscomb.case;
}
);
width = 316;
}
);
unicode = 207;
},
{
glyphname = Idotaccent;
kernLeft = H;
kernRight = H;
lastChange = "2024-12-19 13:17:37 +0000";
layers = (
{
background = {
anchors = (
{
name = bottom;
pos = (158,0);
},
{
name = ogonek;
pos = (235,0);
},
{
name = top;
pos = (158,916);
},
{
name = topleft;
pos = (30,710);
}
);
shapes = (
{
closed = 1;
nodes = (
(258,0,l),
(258,710,l),
(58,710,l),
(58,0,l)
);
},
{
closed = 1;
nodes = (
(254,776,l),
(254,916,l),
(62,916,l),
(62,776,l)
);
}
);
};
layerId = "E5B4AC11-8521-476B-8B52-54F023F880B1";
shapes = (
{
ref = I;
},
{
pos = (62,0);
ref = dotaccentcomb.case;
}
);
width = 316;
}
);
unicode = 304;
},
{
glyphname = Igrave;
kernLeft = H;
kernRight = H;
lastChange = "2024-12-19 13:17:37 +0000";
layers = (
{
background = {
anchors = (
{
name = bottom;
pos = (158,0);
},
{
name = ogonek;
pos = (235,0);
},
{
name = top;
pos = (100,956);
},
{
name = topleft;
pos = (30,710);
}
);
shapes = (
{
closed = 1;
nodes = (
(258,0,l),
(258,710,l),
(58,710,l),
(58,0,l)
);
},
{
closed = 1;
nodes = (
(229,782,l),
(105,956,l),
(-37,910,l),
(105,760,l)
);
}
);
};
layerId = "E5B4AC11-8521-476B-8B52-54F023F880B1";
shapes = (
{
ref = I;
},
{
pos = (-37,0);
ref = gravecomb.case;
}
);
width = 316;
}
);
unicode = 204;
},
{
glyphname = Imacron;
kernLeft = H;
kernRight = H;
lastChange = "2024-12-19 13:17:37 +0000";
layers = (
{
background = {
anchors = (
{
name = bottom;
pos = (158,0);
},
{
name = ogonek;
pos = (235,0);
},
{
name = top;
pos = (158,883);
},
{
name = topleft;
pos = (30,710);
}
);
shapes = (
{
closed = 1;
nodes = (
(258,0,l),
(258,710,l),
(58,710,l),
(58,0,l)
);
},
{
closed = 1;
nodes = (
(398,782,l),
(398,883,l),
(-83,883,l),
(-83,782,l)
);
}
);
};
layerId = "E5B4AC11-8521-476B-8B52-54F023F880B1";
shapes = (
{
ref = I;
},
{
pos = (-83,0);
ref = macroncomb.case;
}
);
width = 316;
}
);
unicode = 298;
},
{
glyphname = Iogonek;
kernLeft = H;
kernRight = H;
lastChange = "2024-12-19 13:17:37 +0000";
layers = (
{
background = {
anchors = (
{
name = bottom;
pos = (158,0);
},
{
name = ogonek;
pos = (235,0);
},
{
name = top;
pos = (158,710);
},
{
name = topleft;
pos = (30,710);
}
);
shapes = (
{
closed = 1;
nodes = (
(258,0,l),
(258,710,l),
(58,710,l),
(58,0,l)
);
},
{
closed = 1;
nodes = (
(258,-71,l),
(224,-78,o),
(167,-84,o),
(167,-48,cs),
(167,-28,o),
(186,-13,o),
(210,0,c),
(81,12,l),
(81,2,l),
(59,-18,o),
(27,-49,o),
(27,-86,cs),
(27,-181,o),
(174,-183,o),
(258,-159,c)
);
}
);
};
layerId = "E5B4AC11-8521-476B-8B52-54F023F880B1";
shapes = (
{
ref = I;
},
{
pos = (27,0);
ref = ogonekcomb;
}
);
width = 316;
}
);
unicode = 302;
},
{
glyphname = Itilde;
kernLeft = H;
kernRight = H;
lastChange = "2024-12-19 13:17:37 +0000";
layers = (
{
background = {
anchors = (
{
name = bottom;
pos = (158,0);
},
{
name = ogonek;
pos = (235,0);
},
{
name = top;
pos = (158,934);
},
{
name = topleft;
pos = (30,710);
}
);
shapes = (
{
closed = 1;
nodes = (
(258,0,l),
(258,710,l),
(58,710,l),
(58,0,l)
);
},
{
closed = 1;
nodes = (
(340,782,o),
(388,839,o),
(396,931,c),
(292,931,l),
(288,899,o),
(270,881,o),
(238,881,cs),
(192,881,o),
(142,934,o),
(59,934,cs),
(-24,934,o),
(-73,877,o),
(-81,786,c),
(25,786,l),
(28,813,o),
(43,836,o),
(81,836,cs),
(125,836,o),
(178,782,o),
(253,782,cs)
);
}
);
};
layerId = "E5B4AC11-8521-476B-8B52-54F023F880B1";
shapes = (
{
ref = I;
},
{
pos = (-81,0);
ref = tildecomb.case;
}
);
width = 316;
}
);
unicode = 296;
},
{
glyphname = J;
kernLeft = J;
kernRight = J;
lastChange = "2024-12-19 13:17:24 +0000";
layers = (
{
anchors = (
{
name = bottom;
pos = (129,0);
},
{
name = top;
pos = (373,710);
}
);
background = {
anchors = (
{
name = bottom;
pos = (129,0);
},
{
name = top;
pos = (373,710);
}
);
shapes = (
{
closed = 1;
nodes = (
(366,-12,o),
(475,61,o),
(475,260,cs),
(475,710,l),
(277,710,l),
(277,244,ls),
(277,157,o),
(211,144,o),
(137,144,cs),
(103,144,o),
(68,148,o),
(17,156,c),
(17,2,l),
(78,-8,o),
(116,-12,o),
(171,-12,cs)
);
}
);
};
layerId = "E5B4AC11-8521-476B-8B52-54F023F880B1";
shapes = (
{
closed = 1;
nodes = (
(366,-12,o),
(475,61,o),
(475,260,cs),
(475,710,l),
(277,710,l),
(277,244,ls),
(277,157,o),
(211,144,o),
(137,144,cs),
(103,144,o),
(68,148,o),
(17,156,c),
(17,2,l),
(78,-8,o),
(116,-12,o),
(171,-12,cs)
);
}
);
width = 527;
}
);
note = J;
unicode = 74;
},
{
glyphname = Jcircumflex;
kernLeft = J;
kernRight = J;
lastChange = "2024-12-19 13:17:37 +0000";
layers = (
{
background = {
anchors = (
{
name = bottom;
pos = (129,0);
},
{
name = top;
pos = (373,920);
}
);
shapes = (
{
closed = 1;
nodes = (
(366,-12,o),
(475,61,o),
(475,260,cs),
(475,710,l),
(277,710,l),
(277,244,ls),
(277,157,o),
(211,144,o),
(137,144,cs),
(103,144,o),
(68,148,o),
(17,156,c),
(17,2,l),
(78,-8,o),
(116,-12,o),
(171,-12,cs)
);
},
{
closed = 1;
nodes = (
(297,768,l),
(427,886,l),
(319,886,l),
(448,768,l),
(610,768,l),
(446,920,l),
(300,920,l),
(136,768,l)
);
}
);
};
layerId = "E5B4AC11-8521-476B-8B52-54F023F880B1";
shapes = (
{
ref = J;
},
{
pos = (130,0);
ref = circumflexcomb.case;
}
);
width = 527;
}
);
unicode = 308;
},
{
glyphname = K;
kernLeft = H;
kernRight = K;
lastChange = "2024-12-19 13:17:24 +0000";
layers = (
{
anchors = (
{
name = bottom;
pos = (422,0);
},
{
name = top;
pos = (422,710);
}
);
background = {
anchors = (
{
name = bottom;
pos = (422,0);
},
{
name = top;
pos = (422,710);
}
);
shapes = (
{
closed = 1;
nodes = (
(440,356,l),
(474,373,l),
(826,710,l),
(582,710,l),
(142,287,l),
(142,72,l)
);
},
{
closed = 1;
nodes = (
(258,0,l),
(258,710,l),
(58,710,l),
(58,0,l)
);
},
{
closed = 1;
nodes = (
(829,0,l),
(490,461,l),
(344,343,l),
(589,0,l)
);
}
);
};
layerId = "E5B4AC11-8521-476B-8B52-54F023F880B1";
shapes = (
{
closed = 1;
nodes = (
(440,356,l),
(474,373,l),
(826,710,l),
(582,710,l),
(142,287,l),
(142,72,l)
);
},
{
closed = 1;
nodes = (
(258,0,l),
(258,710,l),
(58,710,l),
(58,0,l)
);
},
{
closed = 1;
nodes = (
(829,0,l),
(490,461,l),
(344,343,l),
(589,0,l)
);
}
);
width = 816;
}
);
note = K;
unicode = 75;
},
{
glyphname = Kcommaaccent;
kernLeft = H;
kernRight = K;
lastChange = "2024-12-19 13:17:37 +0000";
layers = (
{
background = {
anchors = (
{
name = bottom;
pos = (422,-298);
},
{
name = top;
pos = (422,710);
}
);
shapes = (
{
closed = 1;
nodes = (
(440,356,l),
(474,373,l),
(826,710,l),
(582,710,l),
(142,287,l),
(142,72,l)
);
},
{
closed = 1;
nodes = (
(258,0,l),
(258,710,l),
(58,710,l),
(58,0,l)
);
},
{
closed = 1;
nodes = (
(829,0,l),
(490,461,l),
(344,343,l),
(589,0,l)
);
},
{
closed = 1;
nodes = (
(436,-298,l),
(512,-186,l),
(512,-70,l),
(332,-70,l),
(332,-204,l),
(402,-204,l),
(356,-298,l)
);
}
);
};
layerId = "E5B4AC11-8521-476B-8B52-54F023F880B1";
shapes = (
{
ref = K;
},
{
pos = (332,0);
ref = commaaccentcomb;
}
);
width = 816;
}
);
unicode = 310;
},
{
glyphname = L;
kernLeft = H;
kernRight = L;
lastChange = "2024-12-19 13:17:24 +0000";
layers = (
{
anchors = (
{
name = bottom;
pos = (355,0);
},
{
name = center;
pos = (355,355);
},
{
name = top;
pos = (161,710);
},
{
name = topright;
pos = (678,710);
}
);
background = {
anchors = (
{
name = bottom;
pos = (355,0);
},
{
name = center;
pos = (355,355);
},
{
name = top;
pos = (161,710);
},
{
name = topright;
pos = (678,710);
}
);
shapes = (
{
closed = 1;
nodes = (
(684,0,l),
(684,148,l),
(206,148,l),
(258,95,l),
(258,710,l),
(58,710,l),
(58,0,l)
);
}
);
};
layerId = "E5B4AC11-8521-476B-8B52-54F023F880B1";
shapes = (
{
closed = 1;
nodes = (
(684,0,l),
(684,148,l),
(206,148,l),
(258,95,l),
(258,710,l),
(58,710,l),
(58,0,l)
);
}
);
width = 700;
}
);
note = L;
unicode = 76;
},
{
glyphname = Lacute;
kernLeft = H;
kernRight = L;
lastChange = "2024-12-19 13:17:37 +0000";
layers = (
{
background = {
anchors = (
{
name = bottom;
pos = (355,0);
},
{
name = center;
pos = (355,355);
},
{
name = top;
pos = (219,956);
},
{
name = topright;
pos = (678,710);
}
);
shapes = (
{
closed = 1;
nodes = (
(684,0,l),
(684,148,l),
(206,148,l),
(258,95,l),
(258,710,l),
(58,710,l),
(58,0,l)
);
},
{
closed = 1;
nodes = (
(356,910,l),
(214,956,l),
(90,782,l),
(214,760,l)
);
}
);
};
layerId = "E5B4AC11-8521-476B-8B52-54F023F880B1";
shapes = (
{
ref = L;
},
{
pos = (90,0);
ref = acutecomb.case;
}
);
width = 700;
}
);
unicode = 313;
},
{
glyphname = Lcaron;
kernLeft = H;
kernRight = L;
lastChange = "2024-12-19 13:17:37 +0000";
layers = (
{
background = {
anchors = (
{
name = bottom;
pos = (355,0);
},
{
name = center;
pos = (355,355);
},
{
name = top;
pos = (161,710);
},
{
name = topright;
pos = (678,710);
}
);
shapes = (
{
closed = 1;
nodes = (
(424,455,l),
(461,710,l),
(328,710,l),
(318,455,l)
);
},
{
closed = 1;
nodes = (
(684,0,l),
(684,148,l),
(206,148,l),
(258,95,l),
(258,710,l),
(58,710,l),
(58,0,l)
);
}
);
};
layerId = "E5B4AC11-8521-476B-8B52-54F023F880B1";
shapes = (
{
closed = 1;
nodes = (
(424,455,l),
(461,710,l),
(328,710,l),
(318,455,l)
);
},
{
ref = L;
}
);
width = 700;
}
);
unicode = 317;
},
{
glyphname = Lcommaaccent;
kernLeft = H;
kernRight = L;
lastChange = "2024-12-19 13:17:37 +0000";
layers = (
{
background = {
anchors = (
{
name = bottom;
pos = (355,-298);
},
{
name = center;
pos = (355,355);
},
{
name = top;
pos = (161,710);
},
{
name = topright;
pos = (678,710);
}
);
shapes = (
{
closed = 1;
nodes = (
(684,0,l),
(684,148,l),
(206,148,l),
(258,95,l),
(258,710,l),
(58,710,l),
(58,0,l)
);
},
{
closed = 1;
nodes = (
(369,-298,l),
(445,-186,l),
(445,-70,l),
(265,-70,l),
(265,-204,l),
(335,-204,l),
(289,-298,l)
);
}
);
};
layerId = "E5B4AC11-8521-476B-8B52-54F023F880B1";
shapes = (
{
ref = L;
},
{
pos = (265,0);
ref = commaaccentcomb;
}
);
width = 700;
}
);
unicode = 315;
},
{
glyphname = Ldot;
kernLeft = H;
kernRight = L;
lastChange = "2024-12-19 13:17:51 +0000";
layers = (
{
background = {
anchors = (
{
name = bottom;
pos = (355,0);
},
{
name = center;
pos = (355,355);
},
{
name = top;
pos = (161,710);
},
{
name = topright;
pos = (678,710);
}
);
shapes = (
{
closed = 1;
nodes = (
(684,0,l),
(684,148,l),
(206,148,l),
(258,95,l),
(258,710,l),
(58,710,l),
(58,0,l)
);
},
{
closed = 1;
nodes = (
(604,311,l),
(604,483,l),
(415,483,l),
(415,311,l)
);
}
);
};
layerId = "E5B4AC11-8521-476B-8B52-54F023F880B1";
shapes = (
{
ref = L;
},
{
pos = (362,40);
ref = periodcentered.case;
}
);
width = 700;
}
);
unicode = 319;
},
{
glyphname = Lslash;
kernRight = L;
lastChange = "2024-12-19 13:17:37 +0000";
layers = (
{
background = {
anchors = (
{
name = bottom;
pos = (429,0);
},
{
name = center;
pos = (429,355);
},
{
name = top;
pos = (235,710);
},
{
name = topright;
pos = (752,710);
}
);
shapes = (
{
closed = 1;
nodes = (
(505,382,l),
(505,538,l),
(30,331,l),
(30,175,l)
);
},
{
closed = 1;
nodes = (
(758,0,l),
(758,148,l),
(280,148,l),
(332,95,l),
(332,710,l),
(132,710,l),
(132,0,l)
);
}
);
};
layerId = "E5B4AC11-8521-476B-8B52-54F023F880B1";
shapes = (
{
closed = 1;
nodes = (
(505,382,l),
(505,538,l),
(30,331,l),
(30,175,l)
);
},
{
pos = (74,0);
ref = L;
}
);
width = 774;
}
);
unicode = 321;
},
{
glyphname = M;
kernLeft = H;
kernRight = H;
lastChange = "2024-12-19 13:17:24 +0000";
layers = (
{
anchors = (
{
name = bottom;
pos = (600,0);
},
{
name = top;
pos = (600,710);
}
);
background = {
anchors = (
{
name = bottom;
pos = (600,0);
},
{
name = top;
pos = (600,710);
}
);
shapes = (
{
closed = 1;
nodes = (
(244,0,l),
(244,526,l),
(245,526,l),
(501,0,l),
(684,0,l),
(940,526,l),
(941,526,l),
(941,0,l),
(1141,0,l),
(1141,710,l),
(837,710,l),
(599,217,l),
(598,217,l),
(360,710,l),
(58,710,l),
(58,0,l)
);
}
);
};
layerId = "E5B4AC11-8521-476B-8B52-54F023F880B1";
shapes = (
{
closed = 1;
nodes = (
(244,0,l),
(244,526,l),
(245,526,l),
(501,0,l),
(684,0,l),
(940,526,l),
(941,526,l),
(941,0,l),
(1141,0,l),
(1141,710,l),
(837,710,l),
(599,217,l),
(598,217,l),
(360,710,l),
(58,710,l),
(58,0,l)
);
}
);
width = 1199;
}
);
note = M;
unicode = 77;
},
{
glyphname = N;
kernLeft = H;
kernRight = H;
lastChange = "2024-12-19 13:17:24 +0000";
layers = (
{
anchors = (
{
name = bottom;
pos = (424,0);
},
{
name = top;
pos = (424,710);
}
);
background = {
anchors = (
{
name = bottom;
pos = (424,0);
},
{
name = top;
pos = (424,710);
}
);
shapes = (
{
closed = 1;
nodes = (
(244,0,l),
(244,458,l),
(245,458,l),
(637,0,l),
(790,0,l),
(790,710,l),
(604,710,l),
(604,312,l),
(603,312,l),
(263,710,l),
(58,710,l),
(58,0,l)
);
}
);
};
layerId = "E5B4AC11-8521-476B-8B52-54F023F880B1";
shapes = (
{
closed = 1;
nodes = (
(244,0,l),
(244,458,l),
(245,458,l),
(637,0,l),
(790,0,l),
(790,710,l),
(604,710,l),
(604,312,l),
(603,312,l),
(263,710,l),
(58,710,l),
(58,0,l)
);
}
);
width = 848;
}
);
note = N;
unicode = 78;
},
{
glyphname = Nacute;
kernLeft = H;
kernRight = H;
lastChange = "2024-12-19 13:17:37 +0000";
layers = (
{
background = {
anchors = (
{
name = bottom;
pos = (424,0);
},
{
name = top;
pos = (482,956);
}
);
shapes = (
{
closed = 1;
nodes = (
(244,0,l),
(244,458,l),
(245,458,l),
(637,0,l),
(790,0,l),
(790,710,l),
(604,710,l),
(604,312,l),
(603,312,l),
(263,710,l),
(58,710,l),
(58,0,l)
);
},
{
closed = 1;
nodes = (
(619,910,l),
(477,956,l),
(353,782,l),
(477,760,l)
);
}
);
};
layerId = "E5B4AC11-8521-476B-8B52-54F023F880B1";
shapes = (
{
ref = N;
},
{
pos = (353,0);
ref = acutecomb.case;
}
);
width = 848;
}
);
unicode = 323;
},
{
glyphname = Ncaron;
kernLeft = H;
kernRight = H;
lastChange = "2024-12-19 13:17:37 +0000";
layers = (
{
background = {
anchors = (
{
name = bottom;
pos = (424,0);
},
{
name = top;
pos = (424,920);
}
);
shapes = (
{
closed = 1;
nodes = (
(244,0,l),
(244,458,l),
(245,458,l),
(637,0,l),
(790,0,l),
(790,710,l),
(604,710,l),
(604,312,l),
(603,312,l),
(263,710,l),
(58,710,l),
(58,0,l)
);
},
{
closed = 1;
nodes = (
(497,768,l),
(661,920,l),
(499,920,l),
(370,802,l),
(478,802,l),
(348,920,l),
(187,920,l),
(351,768,l)
);
}
);
};
layerId = "E5B4AC11-8521-476B-8B52-54F023F880B1";
shapes = (
{
ref = N;
},
{
pos = (181,0);
ref = caroncomb.case;
}
);
width = 848;
}
);
unicode = 327;
},
{
glyphname = Ncommaaccent;
kernLeft = H;
kernRight = H;
lastChange = "2024-12-19 13:17:37 +0000";
layers = (
{
background = {
anchors = (
{
name = bottom;
pos = (424,-298);
},
{
name = top;
pos = (424,710);
}
);
shapes = (
{
closed = 1;
nodes = (
(244,0,l),
(244,458,l),
(245,458,l),
(637,0,l),
(790,0,l),
(790,710,l),
(604,710,l),
(604,312,l),
(603,312,l),
(263,710,l),
(58,710,l),
(58,0,l)
);
},
{
closed = 1;
nodes = (
(438,-298,l),
(514,-186,l),
(514,-70,l),
(334,-70,l),
(334,-204,l),
(404,-204,l),
(358,-298,l)
);
}
);
};
layerId = "E5B4AC11-8521-476B-8B52-54F023F880B1";
shapes = (
{
ref = N;
},
{
pos = (334,0);
ref = commaaccentcomb;
}
);
width = 848;
}
);
unicode = 325;
},
{
glyphname = Ntilde;
kernLeft = H;
kernRight = H;
lastChange = "2024-12-19 13:17:37 +0000";
layers = (
{
background = {
anchors = (
{
name = bottom;
pos = (424,0);
},
{
name = top;
pos = (424,934);
}
);
shapes = (
{
closed = 1;
nodes = (
(244,0,l),
(244,458,l),
(245,458,l),
(637,0,l),
(790,0,l),
(790,710,l),
(604,710,l),
(604,312,l),
(603,312,l),
(263,710,l),
(58,710,l),
(58,0,l)
);
},
{
closed = 1;
nodes = (
(606,782,o),
(654,839,o),
(662,931,c),
(558,931,l),
(554,899,o),
(536,881,o),
(504,881,cs),
(458,881,o),
(408,934,o),
(325,934,cs),
(242,934,o),
(193,877,o),
(185,786,c),
(291,786,l),
(294,813,o),
(309,836,o),
(347,836,cs),
(391,836,o),
(444,782,o),
(519,782,cs)
);
}
);
};
layerId = "E5B4AC11-8521-476B-8B52-54F023F880B1";
shapes = (
{
ref = N;
},
{
pos = (185,0);
ref = tildecomb.case;
}
);
width = 848;
}
);
unicode = 209;
},
{
glyphname = Eng;
kernLeft = H;
kernRight = H;
lastChange = "2024-12-19 13:17:24 +0000";
layers = (
{
background = {
shapes = (
{
closed = 1;
nodes = (
(693,-177,o),
(790,-93,o),
(790,116,cs),
(790,710,l),
(604,710,l),
(604,312,l),
(603,312,l),
(263,710,l),
(58,710,l),
(58,0,l),
(244,0,l),
(244,458,l),
(245,458,l),
(637,0,l),
(592,102,l),
(592,45,ls),
(592,-3,o),
(545,-21,o),
(481,-21,cs),
(459,-21,o),
(432,-19,o),
(396,-14,c),
(396,-164,l),
(441,-173,o),
(489,-177,o),
(528,-177,cs)
);
}
);
};
layerId = "E5B4AC11-8521-476B-8B52-54F023F880B1";
shapes = (
{
closed = 1;
nodes = (
(693,-177,o),
(790,-93,o),
(790,116,cs),
(790,710,l),
(604,710,l),
(604,312,l),
(603,312,l),
(263,710,l),
(58,710,l),
(58,0,l),
(244,0,l),
(244,458,l),
(245,458,l),
(637,0,l),
(592,102,l),
(592,45,ls),
(592,-3,o),
(545,-21,o),
(481,-21,cs),
(459,-21,o),
(432,-19,o),
(396,-14,c),
(396,-164,l),
(441,-173,o),
(489,-177,o),
(528,-177,cs)
);
}
);
width = 848;
}
);
unicode = 330;
},
{
glyphname = O;
kernLeft = O;
kernRight = O;
lastChange = "2024-12-19 13:17:24 +0000";
layers = (
{
anchors = (
{
name = bottom;
pos = (456,0);
},
{
name = center;
pos = (456,355);
},
{
name = ogonek;
pos = (816,10);
},
{
name = top;
pos = (456,710);
},
{
name = topleft;
pos = (26,710);
},
{
name = topright;
pos = (886,710);
}
);
background = {
anchors = (
{
name = bottom;
pos = (456,0);
},
{
name = center;
pos = (456,355);
},
{
name = ogonek;
pos = (816,10);
},
{
name = top;
pos = (456,710);
},
{
name = topleft;
pos = (26,710);
},
{
name = topright;
pos = (886,710);
}
);
shapes = (
{
closed = 1;
nodes = (
(727,-12,o),
(880,143,o),
(880,354,cs),
(880,567,o),
(727,722,o),
(456,722,cs),
(185,722,o),
(32,566,o),
(32,354,cs),
(32,143,o),
(186,-12,o),
(456,-12,cs)
);
},
{
closed = 1;
nodes = (
(320,140,o),
(234,215,o),
(234,342,cs),
(234,368,ls),
(234,495,o),
(320,570,o),
(456,570,cs),
(592,570,o),
(678,495,o),
(678,368,cs),
(678,342,ls),
(678,215,o),
(592,140,o),
(456,140,cs)
);
}
);
};
layerId = "E5B4AC11-8521-476B-8B52-54F023F880B1";
shapes = (
{
closed = 1;
nodes = (
(727,-12,o),
(880,143,o),
(880,354,cs),
(880,567,o),
(727,722,o),
(456,722,cs),
(185,722,o),
(32,566,o),
(32,354,cs),
(32,143,o),
(186,-12,o),
(456,-12,cs)
);
},
{
closed = 1;
nodes = (
(320,140,o),
(234,215,o),
(234,342,cs),
(234,368,ls),
(234,495,o),
(320,570,o),
(456,570,cs),
(592,570,o),
(678,495,o),
(678,368,cs),
(678,342,ls),
(678,215,o),
(592,140,o),
(456,140,cs)
);
}
);
width = 912;
}
);
note = O;
unicode = 79;
},
{
glyphname = Oacute;
kernLeft = O;
kernRight = O;
lastChange = "2024-12-19 13:17:37 +0000";
layers = (
{
background = {
anchors = (
{
name = bottom;
pos = (456,0);
},
{
name = center;
pos = (456,355);
},
{
name = ogonek;
pos = (816,10);
},
{
name = top;
pos = (514,956);
},
{
name = topleft;
pos = (26,710);
},
{
name = topright;
pos = (886,710);
}
);
shapes = (
{
closed = 1;
nodes = (
(727,-12,o),
(880,143,o),
(880,354,cs),
(880,567,o),
(727,722,o),
(456,722,cs),
(185,722,o),
(32,566,o),
(32,354,cs),
(32,143,o),
(186,-12,o),
(456,-12,cs)
);
},
{
closed = 1;
nodes = (
(320,140,o),
(234,215,o),
(234,342,cs),
(234,368,ls),
(234,495,o),
(320,570,o),
(456,570,cs),
(592,570,o),
(678,495,o),
(678,368,cs),
(678,342,ls),
(678,215,o),
(592,140,o),
(456,140,cs)
);
},
{
closed = 1;
nodes = (
(651,910,l),
(509,956,l),
(385,782,l),
(509,760,l)
);
}
);
};
layerId = "E5B4AC11-8521-476B-8B52-54F023F880B1";
shapes = (
{
ref = O;
},
{
pos = (385,0);
ref = acutecomb.case;
}
);
width = 912;
}
);
unicode = 211;
},
{
glyphname = Obreve;
kernLeft = O;
kernRight = O;
lastChange = "2024-12-19 13:17:37 +0000";
layers = (
{
background = {
anchors = (
{
name = bottom;
pos = (456,0);
},
{
name = center;
pos = (456,355);
},
{
name = ogonek;
pos = (816,10);
},
{
name = top;
pos = (456,930);
},
{
name = topleft;
pos = (26,710);
},
{
name = topright;
pos = (886,710);
}
);
shapes = (
{
closed = 1;
nodes = (
(727,-12,o),
(880,143,o),
(880,354,cs),
(880,567,o),
(727,722,o),
(456,722,cs),
(185,722,o),
(32,566,o),
(32,354,cs),
(32,143,o),
(186,-12,o),
(456,-12,cs)
);
},
{
closed = 1;
nodes = (
(320,140,o),
(234,215,o),
(234,342,cs),
(234,368,ls),
(234,495,o),
(320,570,o),
(456,570,cs),
(592,570,o),
(678,495,o),
(678,368,cs),
(678,342,ls),
(678,215,o),
(592,140,o),
(456,140,cs)
);
},
{
closed = 1;
nodes = (
(578,765,o),
(660,828,o),
(667,930,c),
(544,930,l),
(540,892,o),
(516,861,o),
(456,861,cs),
(396,861,o),
(372,892,o),
(368,930,c),
(245,930,l),
(252,828,o),
(334,765,o),
(456,765,cs)
);
}
);
};
layerId = "E5B4AC11-8521-476B-8B52-54F023F880B1";
shapes = (
{
ref = O;
},
{
pos = (245,0);
ref = brevecomb.case;
}
);
width = 912;
}
);
unicode = 334;
},
{
glyphname = Ocircumflex;
kernLeft = O;
kernRight = O;
lastChange = "2024-12-19 13:17:37 +0000";
layers = (
{
background = {
anchors = (
{
name = bottom;
pos = (456,0);
},
{
name = center;
pos = (456,355);
},
{
name = ogonek;
pos = (816,10);
},
{
name = top;
pos = (456,920);
},
{
name = topleft;
pos = (26,710);
},
{
name = topright;
pos = (886,710);
}
);
shapes = (
{
closed = 1;
nodes = (
(727,-12,o),
(880,143,o),
(880,354,cs),
(880,567,o),
(727,722,o),
(456,722,cs),
(185,722,o),
(32,566,o),
(32,354,cs),
(32,143,o),
(186,-12,o),
(456,-12,cs)
);
},
{
closed = 1;
nodes = (
(320,140,o),
(234,215,o),
(234,342,cs),
(234,368,ls),
(234,495,o),
(320,570,o),
(456,570,cs),
(592,570,o),
(678,495,o),
(678,368,cs),
(678,342,ls),
(678,215,o),
(592,140,o),
(456,140,cs)
);
},
{
closed = 1;
nodes = (
(380,768,l),
(510,886,l),
(402,886,l),
(531,768,l),
(693,768,l),
(529,920,l),
(383,920,l),
(219,768,l)
);
}
);
};
layerId = "E5B4AC11-8521-476B-8B52-54F023F880B1";
shapes = (
{
ref = O;
},
{
pos = (213,0);
ref = circumflexcomb.case;
}
);
width = 912;
}
);
unicode = 212;
},
{
glyphname = Odieresis;
kernLeft = O;
kernRight = O;
lastChange = "2024-12-19 13:17:37 +0000";
layers = (
{
background = {
anchors = (
{
name = bottom;
pos = (456,0);
},
{
name = center;
pos = (456,355);
},
{
name = ogonek;
pos = (816,10);
},
{
name = top;
pos = (456,916);
},
{
name = topleft;
pos = (26,710);
},
{
name = topright;
pos = (886,710);
}
);
shapes = (
{
closed = 1;
nodes = (
(727,-12,o),
(880,143,o),
(880,354,cs),
(880,567,o),
(727,722,o),
(456,722,cs),
(185,722,o),
(32,566,o),
(32,354,cs),
(32,143,o),
(186,-12,o),
(456,-12,cs)
);
},
{
closed = 1;
nodes = (
(320,140,o),
(234,215,o),
(234,342,cs),
(234,368,ls),
(234,495,o),
(320,570,o),
(456,570,cs),
(592,570,o),
(678,495,o),
(678,368,cs),
(678,342,ls),
(678,215,o),
(592,140,o),
(456,140,cs)
);
},
{
closed = 1;
nodes = (
(422,776,l),
(422,916,l),
(249,916,l),
(249,776,l)
);
},
{
closed = 1;
nodes = (
(664,776,l),
(664,916,l),
(491,916,l),
(491,776,l)
);
}
);
};
layerId = "E5B4AC11-8521-476B-8B52-54F023F880B1";
shapes = (
{
ref = O;
},
{
pos = (249,0);
ref = dieresiscomb.case;
}
);
width = 912;
}
);
unicode = 214;
},
{
glyphname = Ograve;
kernLeft = O;
kernRight = O;
lastChange = "2024-12-19 13:17:37 +0000";
layers = (
{
background = {
anchors = (
{
name = bottom;
pos = (456,0);
},
{
name = center;
pos = (456,355);
},
{
name = ogonek;
pos = (816,10);
},
{
name = top;
pos = (398,956);
},
{
name = topleft;
pos = (26,710);
},
{
name = topright;
pos = (886,710);
}
);
shapes = (
{
closed = 1;
nodes = (
(727,-12,o),
(880,143,o),
(880,354,cs),
(880,567,o),
(727,722,o),
(456,722,cs),
(185,722,o),
(32,566,o),
(32,354,cs),
(32,143,o),
(186,-12,o),
(456,-12,cs)
);
},
{
closed = 1;
nodes = (
(320,140,o),
(234,215,o),
(234,342,cs),
(234,368,ls),
(234,495,o),
(320,570,o),
(456,570,cs),
(592,570,o),
(678,495,o),
(678,368,cs),
(678,342,ls),
(678,215,o),
(592,140,o),
(456,140,cs)
);
},
{
closed = 1;
nodes = (
(527,782,l),
(403,956,l),
(261,910,l),
(403,760,l)
);
}
);
};
layerId = "E5B4AC11-8521-476B-8B52-54F023F880B1";
shapes = (
{
ref = O;
},
{
pos = (261,0);
ref = gravecomb.case;
}
);
width = 912;
}
);
unicode = 210;
},
{
glyphname = Ohungarumlaut;
kernLeft = O;
kernRight = O;
lastChange = "2024-12-19 13:17:37 +0000";
layers = (
{
background = {
anchors = (
{
name = bottom;
pos = (456,0);
},
{
name = center;
pos = (456,355);
},
{
name = ogonek;
pos = (816,10);
},
{
name = top;
pos = (511,956);
},
{
name = topleft;
pos = (26,710);
},
{
name = topright;
pos = (886,710);
}
);
shapes = (
{
closed = 1;
nodes = (
(727,-12,o),
(880,143,o),
(880,354,cs),
(880,567,o),
(727,722,o),
(456,722,cs),
(185,722,o),
(32,566,o),
(32,354,cs),
(32,143,o),
(186,-12,o),
(456,-12,cs)
);
},
{
closed = 1;
nodes = (
(320,140,o),
(234,215,o),
(234,342,cs),
(234,368,ls),
(234,495,o),
(320,570,o),
(456,570,cs),
(592,570,o),
(678,495,o),
(678,368,cs),
(678,342,ls),
(678,215,o),
(592,140,o),
(456,140,cs)
);
},
{
closed = 1;
nodes = (
(521,910,l),
(379,956,l),
(255,782,l),
(379,760,l)
);
},
{
closed = 1;
nodes = (
(767,910,l),
(625,956,l),
(481,782,l),
(605,760,l)
);
}
);
};
layerId = "E5B4AC11-8521-476B-8B52-54F023F880B1";
shapes = (
{
ref = O;
},
{
pos = (255,0);
ref = hungarumlautcomb.case;
}
);
width = 912;
}
);
unicode = 336;
},
{
glyphname = Omacron;
kernLeft = O;
kernRight = O;
lastChange = "2024-12-19 13:17:37 +0000";
layers = (
{
background = {
anchors = (
{
name = bottom;
pos = (456,0);
},
{
name = center;
pos = (456,355);
},
{
name = ogonek;
pos = (816,10);
},
{
name = top;
pos = (456,883);
},
{
name = topleft;
pos = (26,710);
},
{
name = topright;
pos = (886,710);
}
);
shapes = (
{
closed = 1;
nodes = (
(727,-12,o),
(880,143,o),
(880,354,cs),
(880,567,o),
(727,722,o),
(456,722,cs),
(185,722,o),
(32,566,o),
(32,354,cs),
(32,143,o),
(186,-12,o),
(456,-12,cs)
);
},
{
closed = 1;
nodes = (
(320,140,o),
(234,215,o),
(234,342,cs),
(234,368,ls),
(234,495,o),
(320,570,o),
(456,570,cs),
(592,570,o),
(678,495,o),
(678,368,cs),
(678,342,ls),
(678,215,o),
(592,140,o),
(456,140,cs)
);
},
{
closed = 1;
nodes = (
(696,782,l),
(696,883,l),
(215,883,l),
(215,782,l)
);
}
);
};
layerId = "E5B4AC11-8521-476B-8B52-54F023F880B1";
shapes = (
{
ref = O;
},
{
pos = (215,0);
ref = macroncomb.case;
}
);
width = 912;
}
);
unicode = 332;
},
{
glyphname = Oslash;
kernLeft = O;
kernRight = O;
lastChange = "2024-12-19 13:17:24 +0000";
layers = (
{
anchors = (
{
name = bottom;
pos = (456,0);
},
{
name = top;
pos = (456,710);
}
);
background = {
anchors = (
{
name = bottom;
pos = (456,0);
},
{
name = top;
pos = (456,710);
}
);
shapes = (
{
closed = 1;
nodes = (
(727,-12,o),
(880,143,o),
(880,354,cs),
(880,567,o),
(727,722,o),
(456,722,cs),
(185,722,o),
(32,566,o),
(32,354,cs),
(32,143,o),
(186,-12,o),
(456,-12,cs)
);
},
{
closed = 1;
nodes = (
(320,140,o),
(234,215,o),
(234,342,cs),
(234,368,ls),
(234,495,o),
(320,570,o),
(456,570,cs),
(592,570,o),
(678,495,o),
(678,368,cs),
(678,342,ls),
(678,215,o),
(592,140,o),
(456,140,cs)
);
},
{
closed = 1;
nodes = (
(877,609,l),
(770,722,l),
(36,101,l),
(143,-12,l)
);
}
);
};
layerId = "E5B4AC11-8521-476B-8B52-54F023F880B1";
shapes = (
{
closed = 1;
nodes = (
(727,-12,o),
(880,143,o),
(880,354,cs),
(880,567,o),
(727,722,o),
(456,722,cs),
(185,722,o),
(32,566,o),
(32,354,cs),
(32,143,o),
(186,-12,o),
(456,-12,cs)
);
},
{
closed = 1;
nodes = (
(320,140,o),
(234,215,o),
(234,342,cs),
(234,368,ls),
(234,495,o),
(320,570,o),
(456,570,cs),
(592,570,o),
(678,495,o),
(678,368,cs),
(678,342,ls),
(678,215,o),
(592,140,o),
(456,140,cs)
);
},
{
closed = 1;
nodes = (
(877,609,l),
(770,722,l),
(36,101,l),
(143,-12,l)
);
}
);
width = 912;
}
);
unicode = 216;
},
{
glyphname = Oslashacute;
kernLeft = O;
kernRight = O;
lastChange = "2024-12-19 13:17:37 +0000";
layers = (
{
background = {
anchors = (
{
name = bottom;
pos = (456,0);
},
{
name = top;
pos = (514,956);
}
);
shapes = (
{
closed = 1;
nodes = (
(727,-12,o),
(880,143,o),
(880,354,cs),
(880,567,o),
(727,722,o),
(456,722,cs),
(185,722,o),
(32,566,o),
(32,354,cs),
(32,143,o),
(186,-12,o),
(456,-12,cs)
);
},
{
closed = 1;
nodes = (
(320,140,o),
(234,215,o),
(234,342,cs),
(234,368,ls),
(234,495,o),
(320,570,o),
(456,570,cs),
(592,570,o),
(678,495,o),
(678,368,cs),
(678,342,ls),
(678,215,o),
(592,140,o),
(456,140,cs)
);
},
{
closed = 1;
nodes = (
(877,609,l),
(770,722,l),
(36,101,l),
(143,-12,l)
);
},
{
closed = 1;
nodes = (
(651,910,l),
(509,956,l),
(385,782,l),
(509,760,l)
);
}
);
};
layerId = "E5B4AC11-8521-476B-8B52-54F023F880B1";
shapes = (
{
ref = Oslash;
},
{
pos = (385,0);
ref = acutecomb.case;
}
);
width = 912;
}
);
unicode = 510;
},
{
glyphname = Otilde;
kernLeft = O;
kernRight = O;
lastChange = "2024-12-19 13:17:37 +0000";
layers = (
{
background = {
anchors = (
{
name = bottom;
pos = (456,0);
},
{
name = center;
pos = (456,355);
},
{
name = ogonek;
pos = (816,10);
},
{
name = top;
pos = (456,934);
},
{
name = topleft;
pos = (26,710);
},
{
name = topright;
pos = (886,710);
}
);
shapes = (
{
closed = 1;
nodes = (
(727,-12,o),
(880,143,o),
(880,354,cs),
(880,567,o),
(727,722,o),
(456,722,cs),
(185,722,o),
(32,566,o),
(32,354,cs),
(32,143,o),
(186,-12,o),
(456,-12,cs)
);
},
{
closed = 1;
nodes = (
(320,140,o),
(234,215,o),
(234,342,cs),
(234,368,ls),
(234,495,o),
(320,570,o),
(456,570,cs),
(592,570,o),
(678,495,o),
(678,368,cs),
(678,342,ls),
(678,215,o),
(592,140,o),
(456,140,cs)
);
},
{
closed = 1;
nodes = (
(638,782,o),
(686,839,o),
(694,931,c),
(590,931,l),
(586,899,o),
(568,881,o),
(536,881,cs),
(490,881,o),
(440,934,o),
(357,934,cs),
(274,934,o),
(225,877,o),
(217,786,c),
(323,786,l),
(326,813,o),
(341,836,o),
(379,836,cs),
(423,836,o),
(476,782,o),
(551,782,cs)
);
}
);
};
layerId = "E5B4AC11-8521-476B-8B52-54F023F880B1";
shapes = (
{
ref = O;
},
{
pos = (217,0);
ref = tildecomb.case;
}
);
width = 912;
}
);
unicode = 213;
},
{
glyphname = OE;
kernRight = E;
lastChange = "2024-12-19 13:17:24 +0000";
layers = (
{
anchors = (
{
name = bottom;
pos = (655,0);
},
{
name = top;
pos = (655,710);
}
);
background = {
anchors = (
{
name = bottom;
pos = (655,0);
},
{
name = top;
pos = (655,710);
}
);
shapes = (
{
closed = 1;
nodes = (
(1270,0,l),
(1270,148,l),
(751,148,l),
(803,95,l),
(803,615,l),
(751,562,l),
(1263,562,l),
(1263,710,l),
(450,710,ls),
(169,710,o),
(32,560,o),
(32,354,cs),
(32,150,o),
(169,0,o),
(450,0,cs)
);
},
{
closed = 1;
nodes = (
(308,148,o),
(234,222,o),
(234,342,cs),
(234,368,ls),
(234,490,o),
(308,562,o),
(464,562,cs),
(603,562,l),
(603,148,l),
(464,148,ls)
);
},
{
closed = 1;
nodes = (
(1218,288,l),
(1218,430,l),
(694,430,l),
(694,288,l)
);
}
);
};
layerId = "E5B4AC11-8521-476B-8B52-54F023F880B1";
shapes = (
{
closed = 1;
nodes = (
(1270,0,l),
(1270,148,l),
(751,148,l),
(803,95,l),
(803,615,l),
(751,562,l),
(1263,562,l),
(1263,710,l),
(450,710,ls),
(169,710,o),
(32,560,o),
(32,354,cs),
(32,150,o),
(169,0,o),
(450,0,cs)
);
},
{
closed = 1;
nodes = (
(308,148,o),
(234,222,o),
(234,342,cs),
(234,368,ls),
(234,490,o),
(308,562,o),
(464,562,cs),
(603,562,l),
(603,148,l),
(464,148,ls)
);
},
{
closed = 1;
nodes = (
(1218,288,l),
(1218,430,l),
(694,430,l),
(694,288,l)
);
}
);
width = 1308;
}
);
unicode = 338;
},
{
glyphname = P;
kernLeft = H;
lastChange = "2024-12-19 13:17:24 +0000";
layers = (
{
anchors = (
{
name = bottom;
pos = (402,0);
},
{
name = top;
pos = (402,710);
}
);
background = {
anchors = (
{
name = bottom;
pos = (402,0);
},
{
name = top;
pos = (402,710);
}
);
shapes = (
{
closed = 1;
nodes = (
(258,0,l),
(258,613,l),
(175,562,l),
(466,562,ls),
(545,562,o),
(579,532,o),
(579,468,cs),
(579,456,ls),
(579,398,o),
(545,368,o),
(466,368,cs),
(177,368,l),
(177,225,l),
(476,225,ls),
(667,225,o),
(776,308,o),
(776,465,cs),
(776,627,o),
(667,710,o),
(476,710,cs),
(58,710,l),
(58,0,l)
);
}
);
};
layerId = "E5B4AC11-8521-476B-8B52-54F023F880B1";
shapes = (
{
closed = 1;
nodes = (
(258,0,l),
(258,613,l),
(175,562,l),
(466,562,ls),
(545,562,o),
(579,532,o),
(579,468,cs),
(579,456,ls),
(579,398,o),
(545,368,o),
(466,368,cs),
(177,368,l),
(177,225,l),
(476,225,ls),
(667,225,o),
(776,308,o),
(776,465,cs),
(776,627,o),
(667,710,o),
(476,710,cs),
(58,710,l),
(58,0,l)
);
}
);
width = 794;
}
);
note = P;
unicode = 80;
},
{
glyphname = Thorn;
kernLeft = H;
lastChange = "2024-12-19 13:17:24 +0000";
layers = (
{
anchors = (
{
name = bottom;
pos = (414,0);
},
{
name = top;
pos = (414,710);
}
);
background = {
anchors = (
{
name = bottom;
pos = (414,0);
},
{
name = top;
pos = (414,710);
}
);
shapes = (
{
closed = 1;
nodes = (
(476,125,ls),
(667,125,o),
(776,208,o),
(776,365,cs),
(776,527,o),
(667,610,o),
(476,610,cs),
(177,610,l),
(177,462,l),
(466,462,ls),
(545,462,o),
(579,432,o),
(579,368,cs),
(579,356,ls),
(579,298,o),
(545,268,o),
(466,268,cs),
(177,268,l),
(177,125,l)
);
},
{
closed = 1;
nodes = (
(258,0,l),
(258,710,l),
(58,710,l),
(58,0,l)
);
}
);
};
layerId = "E5B4AC11-8521-476B-8B52-54F023F880B1";
shapes = (
{
closed = 1;
nodes = (
(476,125,ls),
(667,125,o),
(776,208,o),
(776,365,cs),
(776,527,o),
(667,610,o),
(476,610,cs),
(177,610,l),
(177,462,l),
(466,462,ls),
(545,462,o),
(579,432,o),
(579,368,cs),
(579,356,ls),
(579,298,o),
(545,268,o),
(466,268,cs),
(177,268,l),
(177,125,l)
);
},
{
closed = 1;
nodes = (
(258,0,l),
(258,710,l),
(58,710,l),
(58,0,l)
);
}
);
width = 797;
}
);
unicode = 222;
},
{
glyphname = Q;
kernLeft = O;
kernRight = O;
lastChange = "2024-12-19 13:17:24 +0000";
layers = (
{
anchors = (
{
name = bottom;
pos = (456,0);
},
{
name = top;
pos = (456,710);
}
);
background = {
anchors = (
{
name = bottom;
pos = (456,0);
},
{
name = top;
pos = (456,710);
}
);
shapes = (
{
closed = 1;
nodes = (
(727,-12,o),
(880,143,o),
(880,354,cs),
(880,567,o),
(727,722,o),
(456,722,cs),
(185,722,o),
(32,566,o),
(32,354,cs),
(32,143,o),
(186,-12,o),
(456,-12,cs)
);
},
{
closed = 1;
nodes = (
(320,143,o),
(234,215,o),
(234,342,cs),
(234,368,ls),
(234,495,o),
(320,567,o),
(456,567,cs),
(592,567,o),
(678,495,o),
(678,368,cs),
(678,342,ls),
(678,215,o),
(592,143,o),
(456,143,cs)
);
},
{
closed = 1;
nodes = (
(833,-56,l),
(698,107,l),
(565,21,l),
(677,-147,l)
);
}
);
};
layerId = "E5B4AC11-8521-476B-8B52-54F023F880B1";
shapes = (
{
closed = 1;
nodes = (
(727,-12,o),
(880,143,o),
(880,354,cs),
(880,567,o),
(727,722,o),
(456,722,cs),
(185,722,o),
(32,566,o),
(32,354,cs),
(32,143,o),
(186,-12,o),
(456,-12,cs)
);
},
{
closed = 1;
nodes = (
(320,143,o),
(234,215,o),
(234,342,cs),
(234,368,ls),
(234,495,o),
(320,567,o),
(456,567,cs),
(592,567,o),
(678,495,o),
(678,368,cs),
(678,342,ls),
(678,215,o),
(592,143,o),
(456,143,cs)
);
},
{
closed = 1;
nodes = (
(833,-56,l),
(698,107,l),
(565,21,l),
(677,-147,l)
);
}
);
width = 912;
}
);
note = Q;
unicode = 81;
},
{
glyphname = R;
kernLeft = H;
kernRight = R;
lastChange = "2024-12-19 13:17:24 +0000";
layers = (
{
anchors = (
{
name = bottom;
pos = (411,0);
},
{
name = top;
pos = (411,710);
}
);
background = {
anchors = (
{
name = bottom;
pos = (411,0);
},
{
name = top;
pos = (411,710);
}
);
shapes = (
{
closed = 1;
nodes = (
(258,0,l),
(258,613,l),
(175,562,l),
(478,562,ls),
(547,562,o),
(581,532,o),
(581,472,cs),
(581,462,ls),
(581,401,o),
(547,371,o),
(478,371,cs),
(209,371,l),
(209,228,l),
(422,228,l),
(560,0,l),
(788,0,l),
(601,296,l),
(554,236,l),
(701,260,o),
(781,339,o),
(781,474,cs),
(781,627,o),
(685,710,o),
(496,710,cs),
(58,710,l),
(58,0,l)
);
}
);
};
layerId = "E5B4AC11-8521-476B-8B52-54F023F880B1";
shapes = (
{
closed = 1;
nodes = (
(258,0,l),
(258,613,l),
(175,562,l),
(478,562,ls),
(547,562,o),
(581,532,o),
(581,472,cs),
(581,462,ls),
(581,401,o),
(547,371,o),
(478,371,cs),
(209,371,l),
(209,228,l),
(422,228,l),
(560,0,l),
(788,0,l),
(601,296,l),
(554,236,l),
(701,260,o),
(781,339,o),
(781,474,cs),
(781,627,o),
(685,710,o),
(496,710,cs),
(58,710,l),
(58,0,l)
);
}
);
width = 813;
}
);
note = R;
unicode = 82;
},
{
glyphname = Racute;
kernLeft = H;
kernRight = R;
lastChange = "2024-12-19 13:17:37 +0000";
layers = (
{
background = {
anchors = (
{
name = bottom;
pos = (411,0);
},
{
name = top;
pos = (469,956);
}
);
shapes = (
{
closed = 1;
nodes = (
(258,0,l),
(258,613,l),
(175,562,l),
(478,562,ls),
(547,562,o),
(581,532,o),
(581,472,cs),
(581,462,ls),
(581,401,o),
(547,371,o),
(478,371,cs),
(209,371,l),
(209,228,l),
(422,228,l),
(560,0,l),
(788,0,l),
(601,296,l),
(554,236,l),
(701,260,o),
(781,339,o),
(781,474,cs),
(781,627,o),
(685,710,o),
(496,710,cs),
(58,710,l),
(58,0,l)
);
},
{
closed = 1;
nodes = (
(606,910,l),
(464,956,l),
(340,782,l),
(464,760,l)
);
}
);
};
layerId = "E5B4AC11-8521-476B-8B52-54F023F880B1";
shapes = (
{
ref = R;
},
{
pos = (340,0);
ref = acutecomb.case;
}
);
width = 813;
}
);
unicode = 340;
},
{
glyphname = Rcaron;
kernLeft = H;
kernRight = R;
lastChange = "2024-12-19 13:17:37 +0000";
layers = (
{
background = {
anchors = (
{
name = bottom;
pos = (411,0);
},
{
name = top;
pos = (411,920);
}
);
shapes = (
{
closed = 1;
nodes = (
(258,0,l),
(258,613,l),
(175,562,l),
(478,562,ls),
(547,562,o),
(581,532,o),
(581,472,cs),
(581,462,ls),
(581,401,o),
(547,371,o),
(478,371,cs),
(209,371,l),
(209,228,l),
(422,228,l),
(560,0,l),
(788,0,l),
(601,296,l),
(554,236,l),
(701,260,o),
(781,339,o),
(781,474,cs),
(781,627,o),
(685,710,o),
(496,710,cs),
(58,710,l),
(58,0,l)
);
},
{
closed = 1;
nodes = (
(484,768,l),
(648,920,l),
(486,920,l),
(357,802,l),
(465,802,l),
(335,920,l),
(174,920,l),
(338,768,l)
);
}
);
};
layerId = "E5B4AC11-8521-476B-8B52-54F023F880B1";
shapes = (
{
ref = R;
},
{
pos = (168,0);
ref = caroncomb.case;
}
);
width = 813;
}
);
unicode = 344;
},
{
glyphname = Rcommaaccent;
kernLeft = H;
kernRight = R;
lastChange = "2024-12-19 13:17:37 +0000";
layers = (
{
background = {
anchors = (
{
name = bottom;
pos = (411,-298);
},
{
name = top;
pos = (411,710);
}
);
shapes = (
{
closed = 1;
nodes = (
(258,0,l),
(258,613,l),
(175,562,l),
(478,562,ls),
(547,562,o),
(581,532,o),
(581,472,cs),
(581,462,ls),
(581,401,o),
(547,371,o),
(478,371,cs),
(209,371,l),
(209,228,l),
(422,228,l),
(560,0,l),
(788,0,l),
(601,296,l),
(554,236,l),
(701,260,o),
(781,339,o),
(781,474,cs),
(781,627,o),
(685,710,o),
(496,710,cs),
(58,710,l),
(58,0,l)
);
},
{
closed = 1;
nodes = (
(425,-298,l),
(501,-186,l),
(501,-70,l),
(321,-70,l),
(321,-204,l),
(391,-204,l),
(345,-298,l)
);
}
);
};
layerId = "E5B4AC11-8521-476B-8B52-54F023F880B1";
shapes = (
{
ref = R;
},
{
pos = (321,0);
ref = commaaccentcomb;
}
);
width = 813;
}
);
unicode = 342;
},
{
glyphname = S;
kernLeft = S;
kernRight = S;
lastChange = "2024-12-19 13:17:24 +0000";
layers = (
{
anchors = (
{
name = bottom;
pos = (423,0);
},
{
name = top;
pos = (423,710);
}
);
background = {
anchors = (
{
name = bottom;
pos = (423,0);
},
{
name = top;
pos = (423,710);
}
);
shapes = (
{
closed = 1;
nodes = (
(650,-12,o),
(804,66,o),
(804,223,cs),
(804,335,o),
(727,404,o),
(554,425,cs),
(342,451,ls),
(267,460,o),
(237,479,o),
(237,513,cs),
(237,551,o),
(301,573,o),
(400,573,cs),
(517,573,o),
(587,553,o),
(627,479,c),
(798,532,l),
(730,679,o),
(579,722,o),
(416,722,cs),
(189,722,o),
(42,646,o),
(42,493,cs),
(42,377,o),
(129,313,o),
(308,291,cs),
(501,267,ls),
(584,257,o),
(607,235,o),
(607,205,cs),
(607,165,o),
(546,137,o),
(430,137,cs),
(288,137,o),
(233,166,o),
(194,239,c),
(15,186,l),
(79,38,o),
(231,-12,o),
(418,-12,cs)
);
}
);
};
layerId = "E5B4AC11-8521-476B-8B52-54F023F880B1";
shapes = (
{
closed = 1;
nodes = (
(650,-12,o),
(804,66,o),
(804,223,cs),
(804,335,o),
(727,404,o),
(554,425,cs),
(342,451,ls),
(267,460,o),
(237,479,o),
(237,513,cs),
(237,551,o),
(301,573,o),
(400,573,cs),
(517,573,o),
(587,553,o),
(627,479,c),
(798,532,l),
(730,679,o),
(579,722,o),
(416,722,cs),
(189,722,o),
(42,646,o),
(42,493,cs),
(42,377,o),
(129,313,o),
(308,291,cs),
(501,267,ls),
(584,257,o),
(607,235,o),
(607,205,cs),
(607,165,o),
(546,137,o),
(430,137,cs),
(288,137,o),
(233,166,o),
(194,239,c),
(15,186,l),
(79,38,o),
(231,-12,o),
(418,-12,cs)
);
}
);
width = 834;
}
);
note = S;
unicode = 83;
},
{
glyphname = Sacute;
kernLeft = S;
kernRight = S;
lastChange = "2024-12-19 13:17:37 +0000";
layers = (
{
background = {
anchors = (
{
name = bottom;
pos = (423,0);
},
{
name = top;
pos = (481,956);
}
);
shapes = (
{
closed = 1;
nodes = (
(650,-12,o),
(804,66,o),
(804,223,cs),
(804,335,o),
(727,404,o),
(554,425,cs),
(342,451,ls),
(267,460,o),
(237,479,o),
(237,513,cs),
(237,551,o),
(301,573,o),
(400,573,cs),
(517,573,o),
(587,553,o),
(627,479,c),
(798,532,l),
(730,679,o),
(579,722,o),
(416,722,cs),
(189,722,o),
(42,646,o),
(42,493,cs),
(42,377,o),
(129,313,o),
(308,291,cs),
(501,267,ls),
(584,257,o),
(607,235,o),
(607,205,cs),
(607,165,o),
(546,137,o),
(430,137,cs),
(288,137,o),
(233,166,o),
(194,239,c),
(15,186,l),
(79,38,o),
(231,-12,o),
(418,-12,cs)
);
},
{
closed = 1;
nodes = (
(618,910,l),
(476,956,l),
(352,782,l),
(476,760,l)
);
}
);
};
layerId = "E5B4AC11-8521-476B-8B52-54F023F880B1";
shapes = (
{
ref = S;
},
{
pos = (352,0);
ref = acutecomb.case;
}
);
width = 834;
}
);
unicode = 346;
},
{
glyphname = Scaron;
kernLeft = S;
kernRight = S;
lastChange = "2024-12-19 13:17:37 +0000";
layers = (
{
background = {
anchors = (
{
name = bottom;
pos = (423,0);
},
{
name = top;
pos = (423,920);
}
);
shapes = (
{
closed = 1;
nodes = (
(650,-12,o),
(804,66,o),
(804,223,cs),
(804,335,o),
(727,404,o),
(554,425,cs),
(342,451,ls),
(267,460,o),
(237,479,o),
(237,513,cs),
(237,551,o),
(301,573,o),
(400,573,cs),
(517,573,o),
(587,553,o),
(627,479,c),
(798,532,l),
(730,679,o),
(579,722,o),
(416,722,cs),
(189,722,o),
(42,646,o),
(42,493,cs),
(42,377,o),
(129,313,o),
(308,291,cs),
(501,267,ls),
(584,257,o),
(607,235,o),
(607,205,cs),
(607,165,o),
(546,137,o),
(430,137,cs),
(288,137,o),
(233,166,o),
(194,239,c),
(15,186,l),
(79,38,o),
(231,-12,o),
(418,-12,cs)
);
},
{
closed = 1;
nodes = (
(496,768,l),
(660,920,l),
(498,920,l),
(369,802,l),
(477,802,l),
(347,920,l),
(186,920,l),
(350,768,l)
);
}
);
};
layerId = "E5B4AC11-8521-476B-8B52-54F023F880B1";
shapes = (
{
ref = S;
},
{
pos = (180,0);
ref = caroncomb.case;
}
);
width = 834;
}
);
unicode = 352;
},
{
glyphname = Scedilla;
kernLeft = S;
kernRight = S;
lastChange = "2024-12-19 13:17:37 +0000";
layers = (
{
background = {
anchors = (
{
name = bottom;
pos = (445,-171);
},
{
name = top;
pos = (423,710);
}
);
shapes = (
{
closed = 1;
nodes = (
(650,-12,o),
(804,66,o),
(804,223,cs),
(804,335,o),
(727,404,o),
(554,425,cs),
(342,451,ls),
(267,460,o),
(237,479,o),
(237,513,cs),
(237,551,o),
(301,573,o),
(400,573,cs),
(517,573,o),
(587,553,o),
(627,479,c),
(798,532,l),
(730,679,o),
(579,722,o),
(416,722,cs),
(189,722,o),
(42,646,o),
(42,493,cs),
(42,377,o),
(129,313,o),
(308,291,cs),
(501,267,ls),
(584,257,o),
(607,235,o),
(607,205,cs),
(607,165,o),
(546,137,o),
(430,137,cs),
(288,137,o),
(233,166,o),
(194,239,c),
(15,186,l),
(79,38,o),
(231,-12,o),
(418,-12,cs)
);
},
{
closed = 1;
nodes = (
(534,-171,o),
(602,-145,o),
(602,-95,cs),
(602,-48,o),
(535,-25,o),
(440,-18,c),
(464,-55,l),
(464,2,l),
(355,2,l),
(351,-65,l),
(458,-72,o),
(468,-78,o),
(468,-87,cs),
(468,-109,o),
(355,-103,o),
(275,-92,c),
(275,-164,l),
(318,-168,o),
(347,-171,o),
(415,-171,cs)
);
}
);
};
layerId = "E5B4AC11-8521-476B-8B52-54F023F880B1";
shapes = (
{
ref = S;
},
{
pos = (271,0);
ref = cedillacomb;
}
);
width = 834;
}
);
unicode = 350;
},
{
glyphname = Scircumflex;
kernLeft = S;
kernRight = S;
lastChange = "2024-12-19 13:17:37 +0000";
layers = (
{
background = {
anchors = (
{
name = bottom;
pos = (423,0);
},
{
name = top;
pos = (423,920);
}
);
shapes = (
{
closed = 1;
nodes = (
(650,-12,o),
(804,66,o),
(804,223,cs),
(804,335,o),
(727,404,o),
(554,425,cs),
(342,451,ls),
(267,460,o),
(237,479,o),
(237,513,cs),
(237,551,o),
(301,573,o),
(400,573,cs),
(517,573,o),
(587,553,o),
(627,479,c),
(798,532,l),
(730,679,o),
(579,722,o),
(416,722,cs),
(189,722,o),
(42,646,o),
(42,493,cs),
(42,377,o),
(129,313,o),
(308,291,cs),
(501,267,ls),
(584,257,o),
(607,235,o),
(607,205,cs),
(607,165,o),
(546,137,o),
(430,137,cs),
(288,137,o),
(233,166,o),
(194,239,c),
(15,186,l),
(79,38,o),
(231,-12,o),
(418,-12,cs)
);
},
{
closed = 1;
nodes = (
(347,768,l),
(477,886,l),
(369,886,l),
(498,768,l),
(660,768,l),
(496,920,l),
(350,920,l),
(186,768,l)
);
}
);
};
layerId = "E5B4AC11-8521-476B-8B52-54F023F880B1";
shapes = (
{
ref = S;
},
{
pos = (180,0);
ref = circumflexcomb.case;
}
);
width = 834;
}
);
unicode = 348;
},
{
glyphname = Scommaaccent;
kernLeft = S;
kernRight = S;
lastChange = "2024-12-19 13:17:37 +0000";
layers = (
{
background = {
anchors = (
{
name = bottom;
pos = (423,-298);
},
{
name = top;
pos = (423,710);
}
);
shapes = (
{
closed = 1;
nodes = (
(650,-12,o),
(804,66,o),
(804,223,cs),
(804,335,o),
(727,404,o),
(554,425,cs),
(342,451,ls),
(267,460,o),
(237,479,o),
(237,513,cs),
(237,551,o),
(301,573,o),
(400,573,cs),
(517,573,o),
(587,553,o),
(627,479,c),
(798,532,l),
(730,679,o),
(579,722,o),
(416,722,cs),
(189,722,o),
(42,646,o),
(42,493,cs),
(42,377,o),
(129,313,o),
(308,291,cs),
(501,267,ls),
(584,257,o),
(607,235,o),
(607,205,cs),
(607,165,o),
(546,137,o),
(430,137,cs),
(288,137,o),
(233,166,o),
(194,239,c),
(15,186,l),
(79,38,o),
(231,-12,o),
(418,-12,cs)
);
},
{
closed = 1;
nodes = (
(437,-298,l),
(513,-186,l),
(513,-70,l),
(333,-70,l),
(333,-204,l),
(403,-204,l),
(357,-298,l)
);
}
);
};
layerId = "E5B4AC11-8521-476B-8B52-54F023F880B1";
shapes = (
{
ref = S;
},
{
pos = (333,0);
ref = commaaccentcomb;
}
);
width = 834;
}
);
unicode = 536;
},
{
glyphname = Germandbls;
kernLeft = H;
lastChange = "2024-12-19 13:17:24 +0000";
layers = (
{
background = {
shapes = (
{
closed = 1;
nodes = (
(674,-10,o),
(790,88,o),
(790,234,cs),
(790,330,o),
(725,427,o),
(572,456,c),
(572,377,l),
(773,698,l),
(773,710,l),
(58,710,l),
(58,0,l),
(258,0,l),
(258,635,l),
(197,562,l),
(549,562,l),
(528,627,l),
(366,363,l),
(366,351,l),
(528,340,o),
(589,299,o),
(589,240,cs),
(589,156,o),
(495,130,o),
(323,145,c),
(323,-4,l),
(357,-8,o),
(397,-10,o),
(432,-10,cs)
);
}
);
};
layerId = "E5B4AC11-8521-476B-8B52-54F023F880B1";
shapes = (
{
closed = 1;
nodes = (
(674,-10,o),
(790,88,o),
(790,234,cs),
(790,330,o),
(725,427,o),
(572,456,c),
(572,377,l),
(773,698,l),
(773,710,l),
(58,710,l),
(58,0,l),
(258,0,l),
(258,635,l),
(197,562,l),
(549,562,l),
(528,627,l),
(366,363,l),
(366,351,l),
(528,340,o),
(589,299,o),
(589,240,cs),
(589,156,o),
(495,130,o),
(323,145,c),
(323,-4,l),
(357,-8,o),
(397,-10,o),
(432,-10,cs)
);
}
);
width = 822;
}
);
unicode = 7838;
},
{
glyphname = T;
kernLeft = T;
kernRight = T;
lastChange = "2024-12-19 13:17:24 +0000";
layers = (
{
anchors = (
{
name = bottom;
pos = (398,0);
},
{
name = center;
pos = (398,355);
},
{
name = top;
pos = (398,710);
}
);
background = {
anchors = (
{
name = bottom;
pos = (398,0);
},
{
name = center;
pos = (398,355);
},
{
name = top;
pos = (398,710);
}
);
shapes = (
{
closed = 1;
nodes = (
(498,0,l),
(498,562,l),
(780,562,l),
(780,710,l),
(16,710,l),
(16,562,l),
(298,562,l),
(298,0,l)
);
}
);
};
layerId = "E5B4AC11-8521-476B-8B52-54F023F880B1";
shapes = (
{
closed = 1;
nodes = (
(498,0,l),
(498,562,l),
(780,562,l),
(780,710,l),
(16,710,l),
(16,562,l),
(298,562,l),
(298,0,l)
);
}
);
width = 796;
}
);
note = T;
unicode = 84;
},
{
glyphname = Tbar;
kernLeft = T;
kernRight = T;
lastChange = "2024-12-19 13:17:37 +0000";
layers = (
{
background = {
anchors = (
{
name = bottom;
pos = (401,0);
},
{
name = center;
pos = (401,355);
},
{
name = top;
pos = (401,710);
}
);
shapes = (
{
closed = 1;
nodes = (
(675,290,l),
(675,420,l),
(127,420,l),
(127,290,l)
);
},
{
closed = 1;
nodes = (
(501,0,l),
(501,562,l),
(783,562,l),
(783,710,l),
(19,710,l),
(19,562,l),
(301,562,l),
(301,0,l)
);
}
);
};
layerId = "E5B4AC11-8521-476B-8B52-54F023F880B1";
shapes = (
{
closed = 1;
nodes = (
(675,290,l),
(675,420,l),
(127,420,l),
(127,290,l)
);
},
{
pos = (3,0);
ref = T;
}
);
width = 802;
}
);
unicode = 358;
},
{
glyphname = Tcaron;
kernLeft = T;
kernRight = T;
lastChange = "2024-12-19 13:17:37 +0000";
layers = (
{
background = {
anchors = (
{
name = bottom;
pos = (398,0);
},
{
name = center;
pos = (398,355);
},
{
name = top;
pos = (398,920);
}
);
shapes = (
{
closed = 1;
nodes = (
(498,0,l),
(498,562,l),
(780,562,l),
(780,710,l),
(16,710,l),
(16,562,l),
(298,562,l),
(298,0,l)
);
},
{
closed = 1;
nodes = (
(471,768,l),
(635,920,l),
(473,920,l),
(344,802,l),
(452,802,l),
(322,920,l),
(161,920,l),
(325,768,l)
);
}
);
};
layerId = "E5B4AC11-8521-476B-8B52-54F023F880B1";
shapes = (
{
ref = T;
},
{
pos = (155,0);
ref = caroncomb.case;
}
);
width = 796;
}
);
unicode = 356;
},
{
glyphname = Tcommaaccent;
kernLeft = T;
kernRight = T;
lastChange = "2024-12-19 13:17:37 +0000";
layers = (
{
background = {
anchors = (
{
name = bottom;
pos = (398,-298);
},
{
name = center;
pos = (398,355);
},
{
name = top;
pos = (398,710);
}
);
shapes = (
{
closed = 1;
nodes = (
(498,0,l),
(498,562,l),
(780,562,l),
(780,710,l),
(16,710,l),
(16,562,l),
(298,562,l),
(298,0,l)
);
},
{
closed = 1;
nodes = (
(412,-298,l),
(488,-186,l),
(488,-70,l),
(308,-70,l),
(308,-204,l),
(378,-204,l),
(332,-298,l)
);
}
);
};
layerId = "E5B4AC11-8521-476B-8B52-54F023F880B1";
shapes = (
{
ref = T;
},
{
pos = (308,0);
ref = commaaccentcomb;
}
);
width = 796;
}
);
unicode = 538;
},
{
glyphname = U;
kernLeft = U;
kernRight = U;
lastChange = "2024-12-19 13:17:24 +0000";
layers = (
{
anchors = (
{
name = bottom;
pos = (425,0);
},
{
name = ogonek;
pos = (663,0);
},
{
name = top;
pos = (425,710);
},
{
name = topright;
pos = (827,710);
}
);
background = {
anchors = (
{
name = bottom;
pos = (425,0);
},
{
name = ogonek;
pos = (663,0);
},
{
name = top;
pos = (425,710);
},
{
name = topright;
pos = (827,710);
}
);
shapes = (
{
closed = 1;
nodes = (
(659,-12,o),
(799,74,o),
(799,284,cs),
(799,710,l),
(604,710,l),
(604,293,ls),
(604,199,o),
(564,142,o),
(427,142,cs),
(287,142,o),
(251,199,o),
(251,293,cs),
(251,710,l),
(51,710,l),
(51,284,ls),
(51,74,o),
(192,-12,o),
(424,-12,cs)
);
}
);
};
layerId = "E5B4AC11-8521-476B-8B52-54F023F880B1";
shapes = (
{
closed = 1;
nodes = (
(659,-12,o),
(799,74,o),
(799,284,cs),
(799,710,l),
(604,710,l),
(604,293,ls),
(604,199,o),
(564,142,o),
(427,142,cs),
(287,142,o),
(251,199,o),
(251,293,cs),
(251,710,l),
(51,710,l),
(51,284,ls),
(51,74,o),
(192,-12,o),
(424,-12,cs)
);
}
);
width = 850;
}
);
note = U;
unicode = 85;
},
{
glyphname = Uacute;
kernLeft = U;
kernRight = U;
lastChange = "2024-12-19 13:17:37 +0000";
layers = (
{
background = {
anchors = (
{
name = bottom;
pos = (425,0);
},
{
name = ogonek;
pos = (663,0);
},
{
name = top;
pos = (483,956);
},
{
name = topright;
pos = (827,710);
}
);
shapes = (
{
closed = 1;
nodes = (
(659,-12,o),
(799,74,o),
(799,284,cs),
(799,710,l),
(604,710,l),
(604,293,ls),
(604,199,o),
(564,142,o),
(427,142,cs),
(287,142,o),
(251,199,o),
(251,293,cs),
(251,710,l),
(51,710,l),
(51,284,ls),
(51,74,o),
(192,-12,o),
(424,-12,cs)
);
},
{
closed = 1;
nodes = (
(620,910,l),
(478,956,l),
(354,782,l),
(478,760,l)
);
}
);
};
layerId = "E5B4AC11-8521-476B-8B52-54F023F880B1";
shapes = (
{
ref = U;
},
{
pos = (354,0);
ref = acutecomb.case;
}
);
width = 850;
}
);
unicode = 218;
},
{
glyphname = Ubreve;
kernLeft = U;
kernRight = U;
lastChange = "2024-12-19 13:17:37 +0000";
layers = (
{
background = {
anchors = (
{
name = bottom;
pos = (425,0);
},
{
name = ogonek;
pos = (663,0);
},
{
name = top;
pos = (425,930);
},
{
name = topright;
pos = (827,710);
}
);
shapes = (
{
closed = 1;
nodes = (
(659,-12,o),
(799,74,o),
(799,284,cs),
(799,710,l),
(604,710,l),
(604,293,ls),
(604,199,o),
(564,142,o),
(427,142,cs),
(287,142,o),
(251,199,o),
(251,293,cs),
(251,710,l),
(51,710,l),
(51,284,ls),
(51,74,o),
(192,-12,o),
(424,-12,cs)
);
},
{
closed = 1;
nodes = (
(547,765,o),
(629,828,o),
(636,930,c),
(513,930,l),
(509,892,o),
(485,861,o),
(425,861,cs),
(365,861,o),
(341,892,o),
(337,930,c),
(214,930,l),
(221,828,o),
(303,765,o),
(425,765,cs)
);
}
);
};
layerId = "E5B4AC11-8521-476B-8B52-54F023F880B1";
shapes = (
{
ref = U;
},
{
pos = (214,0);
ref = brevecomb.case;
}
);
width = 850;
}
);
unicode = 364;
},
{
glyphname = Ucircumflex;
kernLeft = U;
kernRight = U;
lastChange = "2024-12-19 13:17:37 +0000";
layers = (
{
background = {
anchors = (
{
name = bottom;
pos = (425,0);
},
{
name = ogonek;
pos = (663,0);
},
{
name = top;
pos = (425,920);
},
{
name = topright;
pos = (827,710);
}
);
shapes = (
{
closed = 1;
nodes = (
(659,-12,o),
(799,74,o),
(799,284,cs),
(799,710,l),
(604,710,l),
(604,293,ls),
(604,199,o),
(564,142,o),
(427,142,cs),
(287,142,o),
(251,199,o),
(251,293,cs),
(251,710,l),
(51,710,l),
(51,284,ls),
(51,74,o),
(192,-12,o),
(424,-12,cs)
);
},
{
closed = 1;
nodes = (
(349,768,l),
(479,886,l),
(371,886,l),
(500,768,l),
(662,768,l),
(498,920,l),
(352,920,l),
(188,768,l)
);
}
);
};
layerId = "E5B4AC11-8521-476B-8B52-54F023F880B1";
shapes = (
{
ref = U;
},
{
pos = (182,0);
ref = circumflexcomb.case;
}
);
width = 850;
}
);
unicode = 219;
},
{
glyphname = Udieresis;
kernLeft = U;
kernRight = U;
lastChange = "2024-12-19 13:17:37 +0000";
layers = (
{
background = {
anchors = (
{
name = bottom;
pos = (425,0);
},
{
name = ogonek;
pos = (663,0);
},
{
name = top;
pos = (425,916);
},
{
name = topright;
pos = (827,710);
}
);
shapes = (
{
closed = 1;
nodes = (
(659,-12,o),
(799,74,o),
(799,284,cs),
(799,710,l),
(604,710,l),
(604,293,ls),
(604,199,o),
(564,142,o),
(427,142,cs),
(287,142,o),
(251,199,o),
(251,293,cs),
(251,710,l),
(51,710,l),
(51,284,ls),
(51,74,o),
(192,-12,o),
(424,-12,cs)
);
},
{
closed = 1;
nodes = (
(391,776,l),
(391,916,l),
(218,916,l),
(218,776,l)
);
},
{
closed = 1;
nodes = (
(633,776,l),
(633,916,l),
(460,916,l),
(460,776,l)
);
}
);
};
layerId = "E5B4AC11-8521-476B-8B52-54F023F880B1";
shapes = (
{
ref = U;
},
{
pos = (218,0);
ref = dieresiscomb.case;
}
);
width = 850;
}
);
unicode = 220;
},
{
glyphname = Ugrave;
kernLeft = U;
kernRight = U;
lastChange = "2024-12-19 13:17:37 +0000";
layers = (
{
background = {
anchors = (
{
name = bottom;
pos = (425,0);
},
{
name = ogonek;
pos = (663,0);
},
{
name = top;
pos = (367,956);
},
{
name = topright;
pos = (827,710);
}
);
shapes = (
{
closed = 1;
nodes = (
(659,-12,o),
(799,74,o),
(799,284,cs),
(799,710,l),
(604,710,l),
(604,293,ls),
(604,199,o),
(564,142,o),
(427,142,cs),
(287,142,o),
(251,199,o),
(251,293,cs),
(251,710,l),
(51,710,l),
(51,284,ls),
(51,74,o),
(192,-12,o),
(424,-12,cs)
);
},
{
closed = 1;
nodes = (
(496,782,l),
(372,956,l),
(230,910,l),
(372,760,l)
);
}
);
};
layerId = "E5B4AC11-8521-476B-8B52-54F023F880B1";
shapes = (
{
ref = U;
},
{
pos = (230,0);
ref = gravecomb.case;
}
);
width = 850;
}
);
unicode = 217;
},
{
glyphname = Uhungarumlaut;
kernLeft = U;
kernRight = U;
lastChange = "2024-12-19 13:17:37 +0000";
layers = (
{
background = {
anchors = (
{
name = bottom;
pos = (425,0);
},
{
name = ogonek;
pos = (663,0);
},
{
name = top;
pos = (480,956);
},
{
name = topright;
pos = (827,710);
}
);
shapes = (
{
closed = 1;
nodes = (
(659,-12,o),
(799,74,o),
(799,284,cs),
(799,710,l),
(604,710,l),
(604,293,ls),
(604,199,o),
(564,142,o),
(427,142,cs),
(287,142,o),
(251,199,o),
(251,293,cs),
(251,710,l),
(51,710,l),
(51,284,ls),
(51,74,o),
(192,-12,o),
(424,-12,cs)
);
},
{
closed = 1;
nodes = (
(490,910,l),
(348,956,l),
(224,782,l),
(348,760,l)
);
},
{
closed = 1;
nodes = (
(736,910,l),
(594,956,l),
(450,782,l),
(574,760,l)
);
}
);
};
layerId = "E5B4AC11-8521-476B-8B52-54F023F880B1";
shapes = (
{
ref = U;
},
{
pos = (224,0);
ref = hungarumlautcomb.case;
}
);
width = 850;
}
);
unicode = 368;
},
{
glyphname = Umacron;
kernLeft = U;
kernRight = U;
lastChange = "2024-12-19 13:17:37 +0000";
layers = (
{
background = {
anchors = (
{
name = bottom;
pos = (425,0);
},
{
name = ogonek;
pos = (663,0);
},
{
name = top;
pos = (425,883);
},
{
name = topright;
pos = (827,710);
}
);
shapes = (
{
closed = 1;
nodes = (
(659,-12,o),
(799,74,o),
(799,284,cs),
(799,710,l),
(604,710,l),
(604,293,ls),
(604,199,o),
(564,142,o),
(427,142,cs),
(287,142,o),
(251,199,o),
(251,293,cs),
(251,710,l),
(51,710,l),
(51,284,ls),
(51,74,o),
(192,-12,o),
(424,-12,cs)
);
},
{
closed = 1;
nodes = (
(665,782,l),
(665,883,l),
(184,883,l),
(184,782,l)
);
}
);
};
layerId = "E5B4AC11-8521-476B-8B52-54F023F880B1";
shapes = (
{
ref = U;
},
{
pos = (184,0);
ref = macroncomb.case;
}
);
width = 850;
}
);
unicode = 362;
},
{
glyphname = Uogonek;
kernLeft = U;
kernRight = U;
lastChange = "2024-12-19 13:17:24 +0000";
layers = (
{
background = {
shapes = (
{
closed = 1;
nodes = (
(701,-71,l),
(667,-78,o),
(610,-77,o),
(610,-31,cs),
(610,-17,o),
(615,2,o),
(680,44,cs),
(753,91,o),
(799,169,o),
(799,284,cs),
(799,710,l),
(604,710,l),
(604,293,ls),
(604,199,o),
(564,142,o),
(427,142,cs),
(287,142,o),
(251,199,o),
(251,293,cs),
(251,710,l),
(51,710,l),
(51,284,ls),
(51,74,o),
(192,-12,o),
(424,-12,cs),
(461,-12,o),
(495,-10,o),
(527,-6,c),
(501,-19,o),
(470,-50,o),
(470,-86,cs),
(470,-181,o),
(617,-183,o),
(701,-159,c)
);
}
);
};
layerId = "E5B4AC11-8521-476B-8B52-54F023F880B1";
shapes = (
{
closed = 1;
nodes = (
(701,-71,l),
(667,-78,o),
(610,-77,o),
(610,-31,cs),
(610,-17,o),
(615,2,o),
(680,44,cs),
(753,91,o),
(799,169,o),
(799,284,cs),
(799,710,l),
(604,710,l),
(604,293,ls),
(604,199,o),
(564,142,o),
(427,142,cs),
(287,142,o),
(251,199,o),
(251,293,cs),
(251,710,l),
(51,710,l),
(51,284,ls),
(51,74,o),
(192,-12,o),
(424,-12,cs),
(461,-12,o),
(495,-10,o),
(527,-6,c),
(501,-19,o),
(470,-50,o),
(470,-86,cs),
(470,-181,o),
(617,-183,o),
(701,-159,c)
);
}
);
width = 850;
}
);
unicode = 370;
},
{
glyphname = Uring;
kernLeft = U;
kernRight = U;
lastChange = "2024-12-19 13:17:37 +0000";
layers = (
{
background = {
anchors = (
{
name = bottom;
pos = (425,0);
},
{
name = ogonek;
pos = (663,0);
},
{
name = top;
pos = (425,902);
},
{
name = topright;
pos = (827,710);
}
);
shapes = (
{
closed = 1;
nodes = (
(659,-12,o),
(799,74,o),
(799,284,cs),
(799,710,l),
(604,710,l),
(604,293,ls),
(604,199,o),
(564,142,o),
(427,142,cs),
(287,142,o),
(251,199,o),
(251,293,cs),
(251,710,l),
(51,710,l),
(51,284,ls),
(51,74,o),
(192,-12,o),
(424,-12,cs)
);
},
{
closed = 1;
nodes = (
(527,635,o),
(586,694,o),
(586,768,cs),
(586,843,o),
(527,902,o),
(424,902,cs),
(322,902,o),
(263,843,o),
(263,768,cs),
(263,694,o),
(322,635,o),
(424,635,cs)
);
},
{
closed = 1;
nodes = (
(386,710,o),
(360,734,o),
(360,768,cs),
(360,803,o),
(386,827,o),
(424,827,cs),
(463,827,o),
(489,803,o),
(489,768,cs),
(489,734,o),
(463,710,o),
(424,710,cs)
);
}
);
};
layerId = "E5B4AC11-8521-476B-8B52-54F023F880B1";
shapes = (
{
ref = U;
},
{
pos = (263,0);
ref = ringcomb.case;
}
);
width = 850;
}
);
unicode = 366;
},
{
glyphname = Utilde;
kernLeft = U;
kernRight = U;
lastChange = "2024-12-19 13:17:37 +0000";
layers = (
{
background = {
anchors = (
{
name = bottom;
pos = (425,0);
},
{
name = ogonek;
pos = (663,0);
},
{
name = top;
pos = (425,934);
},
{
name = topright;
pos = (827,710);
}
);
shapes = (
{
closed = 1;
nodes = (
(659,-12,o),
(799,74,o),
(799,284,cs),
(799,710,l),
(604,710,l),
(604,293,ls),
(604,199,o),
(564,142,o),
(427,142,cs),
(287,142,o),
(251,199,o),
(251,293,cs),
(251,710,l),
(51,710,l),
(51,284,ls),
(51,74,o),
(192,-12,o),
(424,-12,cs)
);
},
{
closed = 1;
nodes = (
(607,782,o),
(655,839,o),
(663,931,c),
(559,931,l),
(555,899,o),
(537,881,o),
(505,881,cs),
(459,881,o),
(409,934,o),
(326,934,cs),
(243,934,o),
(194,877,o),
(186,786,c),
(292,786,l),
(295,813,o),
(310,836,o),
(348,836,cs),
(392,836,o),
(445,782,o),
(520,782,cs)
);
}
);
};
layerId = "E5B4AC11-8521-476B-8B52-54F023F880B1";
shapes = (
{
ref = U;
},
{
pos = (186,0);
ref = tildecomb.case;
}
);
width = 850;
}
);
unicode = 360;
},
{
glyphname = V;
lastChange = "2024-12-19 13:17:24 +0000";
layers = (
{
anchors = (
{
name = bottom;
pos = (453,0);
},
{
name = top;
pos = (453,710);
}
);
background = {
anchors = (
{
name = bottom;
pos = (453,0);
},
{
name = top;
pos = (453,710);
}
);
shapes = (
{
closed = 1;
nodes = (
(561,0,l),
(907,710,l),
(701,710,l),
(434,137,l),
(483,137,l),
(216,710,l),
(-2,710,l),
(344,0,l)
);
}
);
};
layerId = "E5B4AC11-8521-476B-8B52-54F023F880B1";
shapes = (
{
closed = 1;
nodes = (
(561,0,l),
(907,710,l),
(701,710,l),
(434,137,l),
(483,137,l),
(216,710,l),
(-2,710,l),
(344,0,l)
);
}
);
width = 905;
}
);
note = V;
unicode = 86;
},
{
glyphname = W;
kernLeft = W;
kernRight = W;
lastChange = "2024-12-19 13:17:24 +0000";
layers = (
{
anchors = (
{
name = bottom;
pos = (649,0);
},
{
name = top;
pos = (649,710);
}
);
background = {
anchors = (
{
name = bottom;
pos = (649,0);
},
{
name = top;
pos = (649,710);
}
);
shapes = (
{
closed = 1;
nodes = (
(483,0,l),
(669,545,l),
(626,545,l),
(811,0,l),
(1053,0,l),
(1296,710,l),
(1089,710,l),
(919,128,l),
(956,129,l),
(756,710,l),
(551,710,l),
(351,129,l),
(388,128,l),
(218,710,l),
(1,710,l),
(244,0,l)
);
}
);
};
guides = (
{
pos = (695,188);
}
);
layerId = "E5B4AC11-8521-476B-8B52-54F023F880B1";
shapes = (
{
closed = 1;
nodes = (
(483,0,l),
(669,545,l),
(626,545,l),
(811,0,l),
(1053,0,l),
(1296,710,l),
(1089,710,l),
(919,128,l),
(956,129,l),
(756,710,l),
(551,710,l),
(351,129,l),
(388,128,l),
(218,710,l),
(1,710,l),
(244,0,l)
);
}
);
width = 1297;
}
);
note = W;
unicode = 87;
},
{
glyphname = Wacute;
kernLeft = W;
kernRight = W;
lastChange = "2024-12-19 13:17:37 +0000";
layers = (
{
background = {
anchors = (
{
name = bottom;
pos = (649,0);
},
{
name = top;
pos = (707,956);
}
);
shapes = (
{
closed = 1;
nodes = (
(483,0,l),
(669,545,l),
(626,545,l),
(811,0,l),
(1053,0,l),
(1296,710,l),
(1089,710,l),
(919,128,l),
(956,129,l),
(756,710,l),
(551,710,l),
(351,129,l),
(388,128,l),
(218,710,l),
(1,710,l),
(244,0,l)
);
},
{
closed = 1;
nodes = (
(844,910,l),
(702,956,l),
(578,782,l),
(702,760,l)
);
}
);
};
layerId = "E5B4AC11-8521-476B-8B52-54F023F880B1";
shapes = (
{
ref = W;
},
{
pos = (578,0);
ref = acutecomb.case;
}
);
width = 1297;
}
);
unicode = 7810;
},
{
glyphname = Wcircumflex;
kernLeft = W;
kernRight = W;
lastChange = "2024-12-19 13:17:37 +0000";
layers = (
{
background = {
anchors = (
{
name = bottom;
pos = (649,0);
},
{
name = top;
pos = (649,920);
}
);
shapes = (
{
closed = 1;
nodes = (
(483,0,l),
(669,545,l),
(626,545,l),
(811,0,l),
(1053,0,l),
(1296,710,l),
(1089,710,l),
(919,128,l),
(956,129,l),
(756,710,l),
(551,710,l),
(351,129,l),
(388,128,l),
(218,710,l),
(1,710,l),
(244,0,l)
);
},
{
closed = 1;
nodes = (
(573,768,l),
(703,886,l),
(595,886,l),
(724,768,l),
(886,768,l),
(722,920,l),
(576,920,l),
(412,768,l)
);
}
);
};
layerId = "E5B4AC11-8521-476B-8B52-54F023F880B1";
shapes = (
{
ref = W;
},
{
pos = (406,0);
ref = circumflexcomb.case;
}
);
width = 1297;
}
);
unicode = 372;
},
{
glyphname = Wdieresis;
kernLeft = W;
kernRight = W;
lastChange = "2024-12-19 13:17:37 +0000";
layers = (
{
background = {
anchors = (
{
name = bottom;
pos = (649,0);
},
{
name = top;
pos = (649,916);
}
);
shapes = (
{
closed = 1;
nodes = (
(483,0,l),
(669,545,l),
(626,545,l),
(811,0,l),
(1053,0,l),
(1296,710,l),
(1089,710,l),
(919,128,l),
(956,129,l),
(756,710,l),
(551,710,l),
(351,129,l),
(388,128,l),
(218,710,l),
(1,710,l),
(244,0,l)
);
},
{
closed = 1;
nodes = (
(615,776,l),
(615,916,l),
(442,916,l),
(442,776,l)
);
},
{
closed = 1;
nodes = (
(857,776,l),
(857,916,l),
(684,916,l),
(684,776,l)
);
}
);
};
layerId = "E5B4AC11-8521-476B-8B52-54F023F880B1";
shapes = (
{
ref = W;
},
{
pos = (442,0);
ref = dieresiscomb.case;
}
);
width = 1297;
}
);
unicode = 7812;
},
{
glyphname = Wgrave;
kernLeft = W;
kernRight = W;
lastChange = "2024-12-19 13:17:37 +0000";
layers = (
{
background = {
anchors = (
{
name = bottom;
pos = (649,0);
},
{
name = top;
pos = (591,956);
}
);
shapes = (
{
closed = 1;
nodes = (
(483,0,l),
(669,545,l),
(626,545,l),
(811,0,l),
(1053,0,l),
(1296,710,l),
(1089,710,l),
(919,128,l),
(956,129,l),
(756,710,l),
(551,710,l),
(351,129,l),
(388,128,l),
(218,710,l),
(1,710,l),
(244,0,l)
);
},
{
closed = 1;
nodes = (
(720,782,l),
(596,956,l),
(454,910,l),
(596,760,l)
);
}
);
};
layerId = "E5B4AC11-8521-476B-8B52-54F023F880B1";
shapes = (
{
ref = W;
},
{
pos = (454,0);
ref = gravecomb.case;
}
);
width = 1297;
}
);
unicode = 7808;
},
{
glyphname = X;
lastChange = "2024-12-19 13:17:24 +0000";
layers = (
{
anchors = (
{
name = bottom;
pos = (452,0);
},
{
name = top;
pos = (452,710);
}
);
background = {
anchors = (
{
name = bottom;
pos = (452,0);
},
{
name = top;
pos = (452,710);
}
);
shapes = (
{
closed = 1;
nodes = (
(229,0,l),
(448,246,l),
(666,0,l),
(913,0,l),
(580,363,l),
(897,710,l),
(658,710,l),
(454,478,l),
(249,710,l),
(1,710,l),
(320,363,l),
(-10,0,l)
);
}
);
};
guides = (
{
angle = 180;
pos = (634,362);
}
);
layerId = "E5B4AC11-8521-476B-8B52-54F023F880B1";
shapes = (
{
closed = 1;
nodes = (
(229,0,l),
(448,246,l),
(666,0,l),
(913,0,l),
(580,363,l),
(897,710,l),
(658,710,l),
(454,478,l),
(249,710,l),
(1,710,l),
(320,363,l),
(-10,0,l)
);
}
);
width = 901;
}
);
note = X;
unicode = 88;
},
{
glyphname = Y;
kernLeft = Y;
kernRight = Y;
lastChange = "2024-12-19 13:17:24 +0000";
layers = (
{
anchors = (
{
name = bottom;
pos = (477,0);
},
{
name = top;
pos = (477,710);
},
{
name = topleft;
pos = (33,710);
}
);
background = {
anchors = (
{
name = bottom;
pos = (477,0);
},
{
name = top;
pos = (477,710);
},
{
name = topleft;
pos = (33,710);
}
);
shapes = (
{
closed = 1;
nodes = (
(577,0,l),
(577,300,l),
(953,710,l),
(716,710,l),
(418,380,l),
(540,380,l),
(242,710,l),
(1,710,l),
(377,300,l),
(377,0,l)
);
}
);
};
layerId = "E5B4AC11-8521-476B-8B52-54F023F880B1";
shapes = (
{
closed = 1;
nodes = (
(577,0,l),
(577,300,l),
(953,710,l),
(716,710,l),
(418,380,l),
(540,380,l),
(242,710,l),
(1,710,l),
(377,300,l),
(377,0,l)
);
}
);
width = 954;
}
);
note = Y;
unicode = 89;
},
{
glyphname = Yacute;
kernLeft = Y;
kernRight = Y;
lastChange = "2024-12-19 13:17:37 +0000";
layers = (
{
background = {
anchors = (
{
name = bottom;
pos = (477,0);
},
{
name = top;
pos = (535,956);
},
{
name = topleft;
pos = (33,710);
}
);
shapes = (
{
closed = 1;
nodes = (
(577,0,l),
(577,300,l),
(953,710,l),
(716,710,l),
(418,380,l),
(540,380,l),
(242,710,l),
(1,710,l),
(377,300,l),
(377,0,l)
);
},
{
closed = 1;
nodes = (
(672,910,l),
(530,956,l),
(406,782,l),
(530,760,l)
);
}
);
};
layerId = "E5B4AC11-8521-476B-8B52-54F023F880B1";
shapes = (
{
ref = Y;
},
{
pos = (406,0);
ref = acutecomb.case;
}
);
width = 954;
}
);
unicode = 221;
},
{
glyphname = Ycircumflex;
kernLeft = Y;
kernRight = Y;
lastChange = "2024-12-19 13:17:37 +0000";
layers = (
{
background = {
anchors = (
{
name = bottom;
pos = (477,0);
},
{
name = top;
pos = (477,920);
},
{
name = topleft;
pos = (33,710);
}
);
shapes = (
{
closed = 1;
nodes = (
(577,0,l),
(577,300,l),
(953,710,l),
(716,710,l),
(418,380,l),
(540,380,l),
(242,710,l),
(1,710,l),
(377,300,l),
(377,0,l)
);
},
{
closed = 1;
nodes = (
(401,768,l),
(531,886,l),
(423,886,l),
(552,768,l),
(714,768,l),
(550,920,l),
(404,920,l),
(240,768,l)
);
}
);
};
layerId = "E5B4AC11-8521-476B-8B52-54F023F880B1";
shapes = (
{
ref = Y;
},
{
pos = (234,0);
ref = circumflexcomb.case;
}
);
width = 954;
}
);
unicode = 374;
},
{
glyphname = Ydieresis;
kernLeft = Y;
kernRight = Y;
lastChange = "2024-12-19 13:17:37 +0000";
layers = (
{
background = {
anchors = (
{
name = bottom;
pos = (477,0);
},
{
name = top;
pos = (477,916);
},
{
name = topleft;
pos = (33,710);
}
);
shapes = (
{
closed = 1;
nodes = (
(577,0,l),
(577,300,l),
(953,710,l),
(716,710,l),
(418,380,l),
(540,380,l),
(242,710,l),
(1,710,l),
(377,300,l),
(377,0,l)
);
},
{
closed = 1;
nodes = (
(443,776,l),
(443,916,l),
(270,916,l),
(270,776,l)
);
},
{
closed = 1;
nodes = (
(685,776,l),
(685,916,l),
(512,916,l),
(512,776,l)
);
}
);
};
layerId = "E5B4AC11-8521-476B-8B52-54F023F880B1";
shapes = (
{
ref = Y;
},
{
pos = (270,0);
ref = dieresiscomb.case;
}
);
width = 954;
}
);
unicode = 376;
},
{
glyphname = Ygrave;
kernLeft = Y;
kernRight = Y;
lastChange = "2024-12-19 13:17:37 +0000";
layers = (
{
background = {
anchors = (
{
name = bottom;
pos = (477,0);
},
{
name = top;
pos = (419,956);
},
{
name = topleft;
pos = (33,710);
}
);
shapes = (
{
closed = 1;
nodes = (
(577,0,l),
(577,300,l),
(953,710,l),
(716,710,l),
(418,380,l),
(540,380,l),
(242,710,l),
(1,710,l),
(377,300,l),
(377,0,l)
);
},
{
closed = 1;
nodes = (
(548,782,l),
(424,956,l),
(282,910,l),
(424,760,l)
);
}
);
};
layerId = "E5B4AC11-8521-476B-8B52-54F023F880B1";
shapes = (
{
ref = Y;
},
{
pos = (282,0);
ref = gravecomb.case;
}
);
width = 954;
}
);
unicode = 7922;
},
{
glyphname = Z;
kernLeft = Z;
kernRight = Z;
lastChange = "2024-12-19 13:17:24 +0000";
layers = (
{
anchors = (
{
name = bottom;
pos = (418,0);
},
{
name = center;
pos = (418,355);
},
{
name = top;
pos = (418,710);
}
);
background = {
anchors = (
{
name = bottom;
pos = (418,0);
},
{
name = center;
pos = (418,355);
},
{
name = top;
pos = (418,710);
}
);
shapes = (
{
closed = 1;
nodes = (
(800,0,l),
(800,148,l),
(311,148,l),
(791,582,l),
(791,710,l),
(36,710,l),
(36,562,l),
(516,562,l),
(36,128,l),
(36,0,l)
);
}
);
};
layerId = "E5B4AC11-8521-476B-8B52-54F023F880B1";
shapes = (
{
closed = 1;
nodes = (
(800,0,l),
(800,148,l),
(311,148,l),
(791,582,l),
(791,710,l),
(36,710,l),
(36,562,l),
(516,562,l),
(36,128,l),
(36,0,l)
);
}
);
width = 831;
}
);
note = Z;
unicode = 90;
},
{
glyphname = Zacute;
kernLeft = Z;
kernRight = Z;
lastChange = "2024-12-19 13:17:37 +0000";
layers = (
{
background = {
anchors = (
{
name = bottom;
pos = (418,0);
},
{
name = center;
pos = (418,355);
},
{
name = top;
pos = (476,956);
}
);
shapes = (
{
closed = 1;
nodes = (
(800,0,l),
(800,148,l),
(311,148,l),
(791,582,l),
(791,710,l),
(36,710,l),
(36,562,l),
(516,562,l),
(36,128,l),
(36,0,l)
);
},
{
closed = 1;
nodes = (
(613,910,l),
(471,956,l),
(347,782,l),
(471,760,l)
);
}
);
};
layerId = "E5B4AC11-8521-476B-8B52-54F023F880B1";
shapes = (
{
ref = Z;
},
{
pos = (347,0);
ref = acutecomb.case;
}
);
width = 831;
}
);
unicode = 377;
},
{
glyphname = Zcaron;
kernLeft = Z;
kernRight = Z;
lastChange = "2024-12-19 13:17:37 +0000";
layers = (
{
background = {
anchors = (
{
name = bottom;
pos = (418,0);
},
{
name = center;
pos = (418,355);
},
{
name = top;
pos = (418,920);
}
);
shapes = (
{
closed = 1;
nodes = (
(800,0,l),
(800,148,l),
(311,148,l),
(791,582,l),
(791,710,l),
(36,710,l),
(36,562,l),
(516,562,l),
(36,128,l),
(36,0,l)
);
},
{
closed = 1;
nodes = (
(491,768,l),
(655,920,l),
(493,920,l),
(364,802,l),
(472,802,l),
(342,920,l),
(181,920,l),
(345,768,l)
);
}
);
};
layerId = "E5B4AC11-8521-476B-8B52-54F023F880B1";
shapes = (
{
ref = Z;
},
{
pos = (175,0);
ref = caroncomb.case;
}
);
width = 831;
}
);
unicode = 381;
},
{
glyphname = Zdotaccent;
kernLeft = Z;
kernRight = Z;
lastChange = "2024-12-19 13:17:37 +0000";
layers = (
{
background = {
anchors = (
{
name = bottom;
pos = (418,0);
},
{
name = center;
pos = (418,355);
},
{
name = top;
pos = (418,916);
}
);
shapes = (
{
closed = 1;
nodes = (
(800,0,l),
(800,148,l),
(311,148,l),
(791,582,l),
(791,710,l),
(36,710,l),
(36,562,l),
(516,562,l),
(36,128,l),
(36,0,l)
);
},
{
closed = 1;
nodes = (
(514,776,l),
(514,916,l),
(322,916,l),
(322,776,l)
);
}
);
};
layerId = "E5B4AC11-8521-476B-8B52-54F023F880B1";
shapes = (
{
ref = Z;
},
{
pos = (322,0);
ref = dotaccentcomb.case;
}
);
width = 831;
}
);
unicode = 379;
},
{
glyphname = a;
kernLeft = a;
kernRight = a;
lastChange = "2024-12-19 13:17:24 +0000";
layers = (
{
anchors = (
{
name = bottom;
pos = (347,0);
},
{
name = ogonek;
pos = (622,0);
},
{
name = top;
pos = (347,514);
}
);
background = {
anchors = (
{
name = bottom;
pos = (347,0);
},
{
name = ogonek;
pos = (622,0);
},
{
name = top;
pos = (347,514);
}
);
shapes = (
{
closed = 1;
nodes = (
(653,0,l),
(647,50,o),
(646,82,o),
(646,155,cs),
(646,326,ls),
(646,457,o),
(541,526,o),
(348,526,cs),
(147,526,o),
(59,446,o),
(36,354,c),
(231,340,l),
(244,383,o),
(279,401,o),
(345,401,cs),
(416,401,o),
(452,379,o),
(452,331,cs),
(452,108,l),
(457,108,l),
(468,0,l)
);
},
{
closed = 1;
nodes = (
(402,-10,o),
(510,32,o),
(518,161,c),
(452,183,l),
(452,125,o),
(377,106,o),
(306,106,cs),
(249,106,o),
(226,124,o),
(226,151,cs),
(226,180,o),
(248,192,o),
(286,197,cs),
(479,221,l),
(479,329,l),
(237,305,ls),
(87,290,o),
(29,229,o),
(29,147,cs),
(29,46,o),
(124,-10,o),
(264,-10,cs)
);
}
);
};
layerId = "E5B4AC11-8521-476B-8B52-54F023F880B1";
shapes = (
{
closed = 1;
nodes = (
(653,0,l),
(647,50,o),
(646,82,o),
(646,155,cs),
(646,326,ls),
(646,457,o),
(541,526,o),
(348,526,cs),
(147,526,o),
(59,446,o),
(36,354,c),
(231,340,l),
(244,383,o),
(279,401,o),
(345,401,cs),
(416,401,o),
(452,379,o),
(452,331,cs),
(452,108,l),
(457,108,l),
(468,0,l)
);
},
{
closed = 1;
nodes = (
(402,-10,o),
(510,32,o),
(518,161,c),
(452,183,l),
(452,125,o),
(377,106,o),
(306,106,cs),
(249,106,o),
(226,124,o),
(226,151,cs),
(226,180,o),
(248,192,o),
(286,197,cs),
(479,221,l),
(479,329,l),
(237,305,ls),
(87,290,o),
(29,229,o),
(29,147,cs),
(29,46,o),
(124,-10,o),
(264,-10,cs)
);
}
);
width = 693;
}
);
note = a;
unicode = 97;
},
{
glyphname = aacute;
kernLeft = a;
kernRight = a;
lastChange = "2024-12-19 13:17:37 +0000";
layers = (
{
anchors = (
{
name = bottom;
pos = (347,0);
},
{
name = ogonek;
pos = (623,10);
},
{
name = top;
pos = (347,514);
}
);
background = {
anchors = (
{
name = bottom;
pos = (347,0);
},
{
name = ogonek;
pos = (623,10);
},
{
name = top;
pos = (347,514);
}
);
shapes = (
{
closed = 1;
nodes = (
(653,0,l),
(647,50,o),
(646,82,o),
(646,155,cs),
(646,326,ls),
(646,457,o),
(541,526,o),
(348,526,cs),
(147,526,o),
(59,446,o),
(36,354,c),
(231,340,l),
(244,383,o),
(279,401,o),
(345,401,cs),
(416,401,o),
(452,379,o),
(452,331,cs),
(452,108,l),
(457,108,l),
(468,0,l)
);
},
{
closed = 1;
nodes = (
(402,-10,o),
(510,32,o),
(518,161,c),
(452,183,l),
(452,125,o),
(377,106,o),
(306,106,cs),
(249,106,o),
(226,124,o),
(226,151,cs),
(226,180,o),
(248,192,o),
(286,197,cs),
(479,221,l),
(479,329,l),
(237,305,ls),
(87,290,o),
(29,229,o),
(29,147,cs),
(29,46,o),
(124,-10,o),
(264,-10,cs)
);
},
{
closed = 1;
nodes = (
(530,727,l),
(402,780,l),
(266,602,l),
(383,572,l)
);
}
);
};
layerId = "E5B4AC11-8521-476B-8B52-54F023F880B1";
shapes = (
{
ref = a;
},
{
pos = (266,0);
ref = acutecomb;
}
);
width = 693;
}
);
unicode = 225;
},
{
glyphname = abreve;
kernLeft = a;
kernRight = a;
lastChange = "2024-12-19 13:17:37 +0000";
layers = (
{
anchors = (
{
name = bottom;
pos = (347,0);
},
{
name = ogonek;
pos = (623,10);
},
{
name = top;
pos = (347,514);
}
);
background = {
anchors = (
{
name = bottom;
pos = (347,0);
},
{
name = ogonek;
pos = (623,10);
},
{
name = top;
pos = (347,514);
}
);
shapes = (
{
closed = 1;
nodes = (
(653,0,l),
(647,50,o),
(646,82,o),
(646,155,cs),
(646,326,ls),
(646,457,o),
(541,526,o),
(348,526,cs),
(147,526,o),
(59,446,o),
(36,354,c),
(231,340,l),
(244,383,o),
(279,401,o),
(345,401,cs),
(416,401,o),
(452,379,o),
(452,331,cs),
(452,108,l),
(457,108,l),
(468,0,l)
);
},
{
closed = 1;
nodes = (
(402,-10,o),
(510,32,o),
(518,161,c),
(452,183,l),
(452,125,o),
(377,106,o),
(306,106,cs),
(249,106,o),
(226,124,o),
(226,151,cs),
(226,180,o),
(248,192,o),
(286,197,cs),
(479,221,l),
(479,329,l),
(237,305,ls),
(87,290,o),
(29,229,o),
(29,147,cs),
(29,46,o),
(124,-10,o),
(264,-10,cs)
);
},
{
closed = 1;
nodes = (
(461,569,o),
(540,629,o),
(547,732,c),
(428,732,l),
(424,687,o),
(395,662,o),
(347,662,cs),
(299,662,o),
(270,687,o),
(266,732,c),
(147,732,l),
(154,629,o),
(233,569,o),
(347,569,cs)
);
}
);
};
layerId = "E5B4AC11-8521-476B-8B52-54F023F880B1";
shapes = (
{
ref = a;
},
{
pos = (147,0);
ref = brevecomb;
}
);
width = 693;
}
);
unicode = 259;
},
{
glyphname = acircumflex;
kernLeft = a;
kernRight = a;
lastChange = "2024-12-19 13:17:37 +0000";
layers = (
{
anchors = (
{
name = bottom;
pos = (347,0);
},
{
name = ogonek;
pos = (623,10);
},
{
name = top;
pos = (347,514);
}
);
background = {
anchors = (
{
name = bottom;
pos = (347,0);
},
{
name = ogonek;
pos = (623,10);
},
{
name = top;
pos = (347,514);
}
);
shapes = (
{
closed = 1;
nodes = (
(653,0,l),
(647,50,o),
(646,82,o),
(646,155,cs),
(646,326,ls),
(646,457,o),
(541,526,o),
(348,526,cs),
(147,526,o),
(59,446,o),
(36,354,c),
(231,340,l),
(244,383,o),
(279,401,o),
(345,401,cs),
(416,401,o),
(452,379,o),
(452,331,cs),
(452,108,l),
(457,108,l),
(468,0,l)
);
},
{
closed = 1;
nodes = (
(402,-10,o),
(510,32,o),
(518,161,c),
(452,183,l),
(452,125,o),
(377,106,o),
(306,106,cs),
(249,106,o),
(226,124,o),
(226,151,cs),
(226,180,o),
(248,192,o),
(286,197,cs),
(479,221,l),
(479,329,l),
(237,305,ls),
(87,290,o),
(29,229,o),
(29,147,cs),
(29,46,o),
(124,-10,o),
(264,-10,cs)
);
},
{
closed = 1;
nodes = (
(278,582,l),
(401,700,l),
(293,700,l),
(415,582,l),
(577,582,l),
(420,734,l),
(274,734,l),
(117,582,l)
);
}
);
};
layerId = "E5B4AC11-8521-476B-8B52-54F023F880B1";
shapes = (
{
ref = a;
},
{
pos = (117,0);
ref = circumflexcomb;
}
);
width = 693;
}
);
unicode = 226;
},
{
glyphname = adieresis;
kernLeft = a;
kernRight = a;
lastChange = "2024-12-19 13:17:37 +0000";
layers = (
{
anchors = (
{
name = bottom;
pos = (347,0);
},
{
name = ogonek;
pos = (623,10);
},
{
name = top;
pos = (347,514);
}
);
background = {
anchors = (
{
name = bottom;
pos = (347,0);
},
{
name = ogonek;
pos = (623,10);
},
{
name = top;
pos = (347,514);
}
);
shapes = (
{
closed = 1;
nodes = (
(653,0,l),
(647,50,o),
(646,82,o),
(646,155,cs),
(646,326,ls),
(646,457,o),
(541,526,o),
(348,526,cs),
(147,526,o),
(59,446,o),
(36,354,c),
(231,340,l),
(244,383,o),
(279,401,o),
(345,401,cs),
(416,401,o),
(452,379,o),
(452,331,cs),
(452,108,l),
(457,108,l),
(468,0,l)
);
},
{
closed = 1;
nodes = (
(402,-10,o),
(510,32,o),
(518,161,c),
(452,183,l),
(452,125,o),
(377,106,o),
(306,106,cs),
(249,106,o),
(226,124,o),
(226,151,cs),
(226,180,o),
(248,192,o),
(286,197,cs),
(479,221,l),
(479,329,l),
(237,305,ls),
(87,290,o),
(29,229,o),
(29,147,cs),
(29,46,o),
(124,-10,o),
(264,-10,cs)
);
},
{
closed = 1;
nodes = (
(313,580,l),
(313,720,l),
(140,720,l),
(140,580,l)
);
},
{
closed = 1;
nodes = (
(555,580,l),
(555,720,l),
(382,720,l),
(382,580,l)
);
}
);
};
layerId = "E5B4AC11-8521-476B-8B52-54F023F880B1";
shapes = (
{
ref = a;
},
{
pos = (140,0);
ref = dieresiscomb;
}
);
width = 693;
}
);
unicode = 228;
},
{
glyphname = agrave;
kernLeft = a;
kernRight = a;
lastChange = "2024-12-19 13:17:51 +0000";
layers = (
{
anchors = (
{
name = bottom;
pos = (347,0);
},
{
name = ogonek;
pos = (623,10);
},
{
name = top;
pos = (347,514);
}
);
background = {
anchors = (
{
name = bottom;
pos = (347,0);
},
{
name = ogonek;
pos = (623,10);
},
{
name = top;
pos = (347,514);
}
);
shapes = (
{
closed = 1;
nodes = (
(653,0,l),
(647,50,o),
(646,82,o),
(646,155,cs),
(646,326,ls),
(646,457,o),
(541,526,o),
(348,526,cs),
(147,526,o),
(59,446,o),
(36,354,c),
(231,340,l),
(244,383,o),
(279,401,o),
(345,401,cs),
(416,401,o),
(452,379,o),
(452,331,cs),
(452,108,l),
(457,108,l),
(468,0,l)
);
},
{
closed = 1;
nodes = (
(402,-10,o),
(510,32,o),
(518,161,c),
(452,183,l),
(452,125,o),
(377,106,o),
(306,106,cs),
(249,106,o),
(226,124,o),
(226,151,cs),
(226,180,o),
(248,192,o),
(286,197,cs),
(479,221,l),
(479,329,l),
(237,305,ls),
(87,290,o),
(29,229,o),
(29,147,cs),
(29,46,o),
(124,-10,o),
(264,-10,cs)
);
},
{
closed = 1;
nodes = (
(395,602,l),
(259,780,l),
(131,727,l),
(278,572,l)
);
}
);
};
layerId = "E5B4AC11-8521-476B-8B52-54F023F880B1";
shapes = (
{
ref = a;
},
{
pos = (164,0);
ref = gravecomb;
}
);
width = 693;
}
);
unicode = 224;
},
{
glyphname = amacron;
kernLeft = a;
kernRight = a;
lastChange = "2024-12-19 13:17:37 +0000";
layers = (
{
background = {
anchors = (
{
name = bottom;
pos = (347,0);
},
{
name = ogonek;
pos = (622,0);
},
{
name = top;
pos = (347,687);
}
);
shapes = (
{
closed = 1;
nodes = (
(653,0,l),
(647,50,o),
(646,82,o),
(646,155,cs),
(646,326,ls),
(646,457,o),
(541,526,o),
(348,526,cs),
(147,526,o),
(59,446,o),
(36,354,c),
(231,340,l),
(244,383,o),
(279,401,o),
(345,401,cs),
(416,401,o),
(452,379,o),
(452,331,cs),
(452,108,l),
(457,108,l),
(468,0,l)
);
},
{
closed = 1;
nodes = (
(402,-10,o),
(510,32,o),
(518,161,c),
(452,183,l),
(452,125,o),
(377,106,o),
(306,106,cs),
(249,106,o),
(226,124,o),
(226,151,cs),
(226,180,o),
(248,192,o),
(286,197,cs),
(479,221,l),
(479,329,l),
(237,305,ls),
(87,290,o),
(29,229,o),
(29,147,cs),
(29,46,o),
(124,-10,o),
(264,-10,cs)
);
},
{
closed = 1;
nodes = (
(573,586,l),
(573,687,l),
(121,687,l),
(121,586,l)
);
}
);
};
layerId = "E5B4AC11-8521-476B-8B52-54F023F880B1";
shapes = (
{
ref = a;
},
{
pos = (121,0);
ref = macroncomb;
}
);
width = 693;
}
);
unicode = 257;
},
{
glyphname = aogonek;
kernLeft = a;
kernRight = a;
lastChange = "2024-12-19 13:17:24 +0000";
layers = (
{
background = {
shapes = (
{
closed = 1;
nodes = (
(660,-71,l),
(626,-78,o),
(586,-80,o),
(586,-42,cs),
(586,-25,o),
(594,-13,o),
(607,0,c),
(653,0,l),
(647,50,o),
(646,82,o),
(646,155,cs),
(646,326,ls),
(646,457,o),
(541,526,o),
(348,526,cs),
(147,526,o),
(59,446,o),
(36,354,c),
(231,340,l),
(244,383,o),
(279,401,o),
(345,401,cs),
(416,401,o),
(452,379,o),
(452,331,cs),
(452,108,l),
(457,108,l),
(468,0,l),
(552,0,l),
(556,15,l),
(493,-3,o),
(443,-43,o),
(443,-92,cs),
(443,-177,o),
(586,-183,o),
(660,-159,c)
);
},
{
closed = 1;
nodes = (
(402,-10,o),
(510,32,o),
(518,161,c),
(452,183,l),
(452,125,o),
(377,106,o),
(306,106,cs),
(249,106,o),
(226,124,o),
(226,151,cs),
(226,180,o),
(248,192,o),
(286,197,cs),
(479,221,l),
(479,329,l),
(237,305,ls),
(87,290,o),
(29,229,o),
(29,147,cs),
(29,46,o),
(124,-10,o),
(264,-10,cs)
);
}
);
};
layerId = "E5B4AC11-8521-476B-8B52-54F023F880B1";
shapes = (
{
closed = 1;
nodes = (
(660,-71,l),
(626,-78,o),
(586,-80,o),
(586,-42,cs),
(586,-25,o),
(594,-13,o),
(607,0,c),
(653,0,l),
(647,50,o),
(646,82,o),
(646,155,cs),
(646,326,ls),
(646,457,o),
(541,526,o),
(348,526,cs),
(147,526,o),
(59,446,o),
(36,354,c),
(231,340,l),
(244,383,o),
(279,401,o),
(345,401,cs),
(416,401,o),
(452,379,o),
(452,331,cs),
(452,108,l),
(457,108,l),
(468,0,l),
(552,0,l),
(556,15,l),
(493,-3,o),
(443,-43,o),
(443,-92,cs),
(443,-177,o),
(586,-183,o),
(660,-159,c)
);
},
{
closed = 1;
nodes = (
(402,-10,o),
(510,32,o),
(518,161,c),
(452,183,l),
(452,125,o),
(377,106,o),
(306,106,cs),
(249,106,o),
(226,124,o),
(226,151,cs),
(226,180,o),
(248,192,o),
(286,197,cs),
(479,221,l),
(479,329,l),
(237,305,ls),
(87,290,o),
(29,229,o),
(29,147,cs),
(29,46,o),
(124,-10,o),
(264,-10,cs)
);
}
);
width = 693;
}
);
unicode = 261;
},
{
glyphname = aring;
kernLeft = a;
kernRight = a;
lastChange = "2024-12-19 13:17:37 +0000";
layers = (
{
anchors = (
{
name = bottom;
pos = (347,0);
},
{
name = ogonek;
pos = (623,10);
},
{
name = top;
pos = (347,514);
}
);
background = {
anchors = (
{
name = bottom;
pos = (347,0);
},
{
name = ogonek;
pos = (623,10);
},
{
name = top;
pos = (347,514);
}
);
shapes = (
{
closed = 1;
nodes = (
(653,0,l),
(647,50,o),
(646,82,o),
(646,155,cs),
(646,326,ls),
(646,457,o),
(541,526,o),
(348,526,cs),
(147,526,o),
(59,446,o),
(36,354,c),
(231,340,l),
(244,383,o),
(279,401,o),
(345,401,cs),
(416,401,o),
(452,379,o),
(452,331,cs),
(452,108,l),
(457,108,l),
(468,0,l)
);
},
{
closed = 1;
nodes = (
(402,-10,o),
(510,32,o),
(518,161,c),
(452,183,l),
(452,125,o),
(377,106,o),
(306,106,cs),
(249,106,o),
(226,124,o),
(226,151,cs),
(226,180,o),
(248,192,o),
(286,197,cs),
(479,221,l),
(479,329,l),
(237,305,ls),
(87,290,o),
(29,229,o),
(29,147,cs),
(29,46,o),
(124,-10,o),
(264,-10,cs)
);
},
{
closed = 1;
nodes = (
(420,554,o),
(474,603,o),
(474,665,cs),
(474,727,o),
(420,776,o),
(347,776,cs),
(274,776,o),
(220,727,o),
(220,665,cs),
(220,603,o),
(274,554,o),
(347,554,cs)
);
},
{
closed = 1;
nodes = (
(315,616,o),
(293,636,o),
(293,665,cs),
(293,694,o),
(315,714,o),
(347,714,cs),
(379,714,o),
(401,694,o),
(401,665,cs),
(401,636,o),
(379,616,o),
(347,616,cs)
);
}
);
};
layerId = "E5B4AC11-8521-476B-8B52-54F023F880B1";
shapes = (
{
ref = a;
},
{
pos = (220,0);
ref = ringcomb;
}
);
width = 693;
}
);
unicode = 229;
},
{
glyphname = atilde;
kernLeft = a;
kernRight = a;
lastChange = "2024-12-19 13:17:37 +0000";
layers = (
{
anchors = (
{
name = bottom;
pos = (347,0);
},
{
name = ogonek;
pos = (623,10);
},
{
name = top;
pos = (347,514);
}
);
background = {
anchors = (
{
name = bottom;
pos = (347,0);
},
{
name = ogonek;
pos = (623,10);
},
{
name = top;
pos = (347,514);
}
);
shapes = (
{
closed = 1;
nodes = (
(653,0,l),
(647,50,o),
(646,82,o),
(646,155,cs),
(646,326,ls),
(646,457,o),
(541,526,o),
(348,526,cs),
(147,526,o),
(59,446,o),
(36,354,c),
(231,340,l),
(244,383,o),
(279,401,o),
(345,401,cs),
(416,401,o),
(452,379,o),
(452,331,cs),
(452,108,l),
(457,108,l),
(468,0,l)
);
},
{
closed = 1;
nodes = (
(402,-10,o),
(510,32,o),
(518,161,c),
(452,183,l),
(452,125,o),
(377,106,o),
(306,106,cs),
(249,106,o),
(226,124,o),
(226,151,cs),
(226,180,o),
(248,192,o),
(286,197,cs),
(479,221,l),
(479,329,l),
(237,305,ls),
(87,290,o),
(29,229,o),
(29,147,cs),
(29,46,o),
(124,-10,o),
(264,-10,cs)
);
},
{
closed = 1;
nodes = (
(529,586,o),
(577,643,o),
(585,735,c),
(481,735,l),
(477,703,o),
(459,685,o),
(427,685,cs),
(381,685,o),
(331,738,o),
(248,738,cs),
(165,738,o),
(116,681,o),
(108,590,c),
(214,590,l),
(217,617,o),
(232,640,o),
(270,640,cs),
(314,640,o),
(367,586,o),
(442,586,cs)
);
}
);
};
layerId = "E5B4AC11-8521-476B-8B52-54F023F880B1";
shapes = (
{
ref = a;
},
{
pos = (108,0);
ref = tildecomb;
}
);
width = 693;
}
);
unicode = 227;
},
{
glyphname = ae;
kernLeft = a;
kernRight = e;
lastChange = "2024-12-19 13:17:24 +0000";
layers = (
{
anchors = (
{
name = bottom;
pos = (570,0);
},
{
name = top;
pos = (580,514);
}
);
background = {
anchors = (
{
name = bottom;
pos = (570,0);
},
{
name = top;
pos = (580,514);
}
);
shapes = (
{
closed = 1;
nodes = (
(955,-12,o),
(1082,47,o),
(1112,158,c),
(935,177,l),
(916,142,o),
(883,119,o),
(800,119,cs),
(695,119,o),
(646,171,o),
(646,234,cs),
(646,297,ls),
(646,354,o),
(691,405,o),
(796,405,cs),
(890,405,o),
(939,366,o),
(939,301,cs),
(939,280,l),
(998,318,l),
(603,318,l),
(603,219,l),
(1114,219,l),
(1133,421,o),
(1005,526,o),
(794,526,cs),
(691,526,o),
(599,494,o),
(541,432,c),
(587,430,l),
(545,493,o),
(463,526,o),
(348,526,cs),
(147,526,o),
(59,446,o),
(36,354,c),
(231,340,l),
(244,383,o),
(279,401,o),
(345,401,cs),
(416,401,o),
(452,379,o),
(452,331,cs),
(452,118,l),
(523,118,l),
(570,29,o),
(680,-12,o),
(807,-12,cs)
);
},
{
closed = 1;
nodes = (
(458,-12,o),
(574,32,o),
(596,171,c),
(452,183,l),
(452,125,o),
(389,104,o),
(317,104,cs),
(251,104,o),
(226,122,o),
(226,151,cs),
(226,180,o),
(248,192,o),
(286,197,cs),
(479,221,l),
(479,329,l),
(237,305,ls),
(87,290,o),
(29,229,o),
(29,147,cs),
(29,44,o),
(139,-12,o),
(300,-12,cs)
);
}
);
};
layerId = "E5B4AC11-8521-476B-8B52-54F023F880B1";
shapes = (
{
closed = 1;
nodes = (
(955,-12,o),
(1082,47,o),
(1112,158,c),
(935,177,l),
(916,142,o),
(883,119,o),
(800,119,cs),
(695,119,o),
(646,171,o),
(646,234,cs),
(646,297,ls),
(646,354,o),
(691,405,o),
(796,405,cs),
(890,405,o),
(939,366,o),
(939,301,cs),
(939,280,l),
(998,318,l),
(603,318,l),
(603,219,l),
(1114,219,l),
(1133,421,o),
(1005,526,o),
(794,526,cs),
(691,526,o),
(599,494,o),
(541,432,c),
(587,430,l),
(545,493,o),
(463,526,o),
(348,526,cs),
(147,526,o),
(59,446,o),
(36,354,c),
(231,340,l),
(244,383,o),
(279,401,o),
(345,401,cs),
(416,401,o),
(452,379,o),
(452,331,cs),
(452,118,l),
(523,118,l),
(570,29,o),
(680,-12,o),
(807,-12,cs)
);
},
{
closed = 1;
nodes = (
(458,-12,o),
(574,32,o),
(596,171,c),
(452,183,l),
(452,125,o),
(389,104,o),
(317,104,cs),
(251,104,o),
(226,122,o),
(226,151,cs),
(226,180,o),
(248,192,o),
(286,197,cs),
(479,221,l),
(479,329,l),
(237,305,ls),
(87,290,o),
(29,229,o),
(29,147,cs),
(29,44,o),
(139,-12,o),
(300,-12,cs)
);
}
);
width = 1146;
}
);
unicode = 230;
},
{
glyphname = aeacute;
kernLeft = a;
kernRight = e;
lastChange = "2024-12-19 13:17:37 +0000";
layers = (
{
background = {
anchors = (
{
name = bottom;
pos = (570,0);
},
{
name = top;
pos = (662,758);
}
);
shapes = (
{
closed = 1;
nodes = (
(955,-12,o),
(1082,47,o),
(1112,158,c),
(935,177,l),
(916,142,o),
(883,119,o),
(800,119,cs),
(695,119,o),
(646,171,o),
(646,234,cs),
(646,297,ls),
(646,354,o),
(691,405,o),
(796,405,cs),
(890,405,o),
(939,366,o),
(939,301,cs),
(939,280,l),
(998,318,l),
(603,318,l),
(603,219,l),
(1114,219,l),
(1133,421,o),
(1005,526,o),
(794,526,cs),
(691,526,o),
(599,494,o),
(541,432,c),
(587,430,l),
(545,493,o),
(463,526,o),
(348,526,cs),
(147,526,o),
(59,446,o),
(36,354,c),
(231,340,l),
(244,383,o),
(279,401,o),
(345,401,cs),
(416,401,o),
(452,379,o),
(452,331,cs),
(452,118,l),
(523,118,l),
(570,29,o),
(680,-12,o),
(807,-12,cs)
);
},
{
closed = 1;
nodes = (
(458,-12,o),
(574,32,o),
(596,171,c),
(452,183,l),
(452,125,o),
(389,104,o),
(317,104,cs),
(251,104,o),
(226,122,o),
(226,151,cs),
(226,180,o),
(248,192,o),
(286,197,cs),
(479,221,l),
(479,329,l),
(237,305,ls),
(87,290,o),
(29,229,o),
(29,147,cs),
(29,44,o),
(139,-12,o),
(300,-12,cs)
);
},
{
closed = 1;
nodes = (
(763,727,l),
(635,780,l),
(499,602,l),
(616,572,l)
);
}
);
};
layerId = "E5B4AC11-8521-476B-8B52-54F023F880B1";
shapes = (
{
ref = ae;
},
{
pos = (499,0);
ref = acutecomb;
}
);
width = 1146;
}
);
unicode = 509;
},
{
glyphname = b;
kernLeft = h;
kernRight = b;
lastChange = "2024-12-19 13:17:24 +0000";
layers = (
{
anchors = (
{
name = bottom;
pos = (387,0);
},
{
name = center;
pos = (387,257);
},
{
name = top;
pos = (387,514);
}
);
background = {
anchors = (
{
name = bottom;
pos = (387,0);
},
{
name = center;
pos = (387,257);
},
{
name = top;
pos = (387,514);
}
);
shapes = (
{
closed = 1;
nodes = (
(581,-12,o),
(752,65,o),
(752,257,cs),
(752,450,o),
(587,526,o),
(445,526,cs),
(326,526,o),
(214,471,o),
(182,376,c),
(246,265,l),
(246,359,o),
(328,394,o),
(403,394,cs),
(488,394,o),
(557,347,o),
(557,262,cs),
(557,252,ls),
(557,168,o),
(488,120,o),
(403,120,cs),
(328,120,o),
(246,156,o),
(246,249,c),
(172,139,l),
(208,29,o),
(326,-12,o),
(445,-12,cs)
);
},
{
closed = 1;
nodes = (
(223,0,l),
(246,113,l),
(246,710,l),
(52,710,l),
(52,0,l)
);
}
);
};
guides = (
{
angle = 180;
pos = (-80,49);
}
);
layerId = "E5B4AC11-8521-476B-8B52-54F023F880B1";
shapes = (
{
closed = 1;
nodes = (
(581,-12,o),
(752,65,o),
(752,257,cs),
(752,450,o),
(587,526,o),
(445,526,cs),
(326,526,o),
(214,471,o),
(182,376,c),
(246,265,l),
(246,359,o),
(328,394,o),
(403,394,cs),
(488,394,o),
(557,347,o),
(557,262,cs),
(557,252,ls),
(557,168,o),
(488,120,o),
(403,120,cs),
(328,120,o),
(246,156,o),
(246,249,c),
(172,139,l),
(208,29,o),
(326,-12,o),
(445,-12,cs)
);
},
{
closed = 1;
nodes = (
(223,0,l),
(246,113,l),
(246,710,l),
(52,710,l),
(52,0,l)
);
}
);
width = 781;
}
);
note = b;
unicode = 98;
},
{
glyphname = c;
kernLeft = o;
kernRight = c;
lastChange = "2024-12-19 13:17:24 +0000";
layers = (
{
anchors = (
{
name = bottom;
pos = (379,0);
},
{
name = top;
pos = (365,514);
}
);
background = {
anchors = (
{
name = bottom;
pos = (379,0);
},
{
name = top;
pos = (365,514);
}
);
shapes = (
{
closed = 1;
nodes = (
(526,-12,o),
(665,47,o),
(696,185,c),
(516,204,l),
(496,153,o),
(449,120,o),
(374,120,cs),
(280,120,o),
(222,175,o),
(222,252,cs),
(222,262,ls),
(222,340,o),
(280,394,o),
(374,394,cs),
(449,394,o),
(496,361,o),
(516,310,c),
(696,329,l),
(665,467,o),
(526,526,o),
(375,526,cs),
(184,526,o),
(27,433,o),
(27,257,cs),
(27,82,o),
(197,-12,o),
(375,-12,cs)
);
}
);
};
layerId = "E5B4AC11-8521-476B-8B52-54F023F880B1";
shapes = (
{
closed = 1;
nodes = (
(526,-12,o),
(665,47,o),
(696,185,c),
(516,204,l),
(496,153,o),
(449,120,o),
(374,120,cs),
(280,120,o),
(222,175,o),
(222,252,cs),
(222,262,ls),
(222,340,o),
(280,394,o),
(374,394,cs),
(449,394,o),
(496,361,o),
(516,310,c),
(696,329,l),
(665,467,o),
(526,526,o),
(375,526,cs),
(184,526,o),
(27,433,o),
(27,257,cs),
(27,82,o),
(197,-12,o),
(375,-12,cs)
);
}
);
width = 717;
}
);
note = c;
unicode = 99;
},
{
glyphname = cacute;
kernLeft = o;
kernRight = c;
lastChange = "2024-12-19 13:17:37 +0000";
layers = (
{
anchors = (
{
name = bottom;
pos = (365,0);
},
{
name = top;
pos = (365,514);
}
);
background = {
anchors = (
{
name = bottom;
pos = (365,0);
},
{
name = top;
pos = (365,514);
}
);
shapes = (
{
closed = 1;
nodes = (
(526,-12,o),
(665,47,o),
(696,185,c),
(516,204,l),
(496,153,o),
(449,120,o),
(374,120,cs),
(280,120,o),
(222,175,o),
(222,252,cs),
(222,262,ls),
(222,340,o),
(280,394,o),
(374,394,cs),
(449,394,o),
(496,361,o),
(516,310,c),
(696,329,l),
(665,467,o),
(526,526,o),
(375,526,cs),
(184,526,o),
(27,433,o),
(27,257,cs),
(27,82,o),
(197,-12,o),
(375,-12,cs)
);
},
{
closed = 1;
nodes = (
(548,727,l),
(420,780,l),
(284,602,l),
(401,572,l)
);
}
);
};
layerId = "E5B4AC11-8521-476B-8B52-54F023F880B1";
shapes = (
{
ref = c;
},
{
pos = (284,0);
ref = acutecomb;
}
);
width = 717;
}
);
unicode = 263;
},
{
glyphname = ccaron;
kernLeft = o;
kernRight = c;
lastChange = "2024-12-19 13:17:37 +0000";
layers = (
{
anchors = (
{
name = bottom;
pos = (365,0);
},
{
name = top;
pos = (365,514);
}
);
background = {
anchors = (
{
name = bottom;
pos = (365,0);
},
{
name = top;
pos = (365,514);
}
);
shapes = (
{
closed = 1;
nodes = (
(526,-12,o),
(665,47,o),
(696,185,c),
(516,204,l),
(496,153,o),
(449,120,o),
(374,120,cs),
(280,120,o),
(222,175,o),
(222,252,cs),
(222,262,ls),
(222,340,o),
(280,394,o),
(374,394,cs),
(449,394,o),
(496,361,o),
(516,310,c),
(696,329,l),
(665,467,o),
(526,526,o),
(375,526,cs),
(184,526,o),
(27,433,o),
(27,257,cs),
(27,82,o),
(197,-12,o),
(375,-12,cs)
);
},
{
closed = 1;
nodes = (
(438,582,l),
(595,734,l),
(433,734,l),
(311,616,l),
(419,616,l),
(296,734,l),
(135,734,l),
(292,582,l)
);
}
);
};
layerId = "E5B4AC11-8521-476B-8B52-54F023F880B1";
shapes = (
{
ref = c;
},
{
pos = (135,0);
ref = caroncomb;
}
);
width = 717;
}
);
unicode = 269;
},
{
glyphname = ccedilla;
kernLeft = o;
kernRight = c;
lastChange = "2024-12-19 13:17:37 +0000";
layers = (
{
anchors = (
{
name = bottom;
pos = (366,0);
},
{
name = top;
pos = (366,514);
}
);
background = {
anchors = (
{
name = bottom;
pos = (366,0);
},
{
name = top;
pos = (366,514);
}
);
shapes = (
{
closed = 1;
nodes = (
(527,-12,o),
(666,47,o),
(697,185,c),
(517,204,l),
(497,153,o),
(450,120,o),
(375,120,cs),
(281,120,o),
(223,175,o),
(223,252,cs),
(223,262,ls),
(223,340,o),
(281,394,o),
(375,394,cs),
(450,394,o),
(497,361,o),
(517,310,c),
(697,329,l),
(666,467,o),
(527,526,o),
(376,526,cs),
(185,526,o),
(28,433,o),
(28,257,cs),
(28,82,o),
(198,-12,o),
(376,-12,cs)
);
},
{
closed = 1;
nodes = (
(487,-171,o),
(555,-145,o),
(555,-95,cs),
(555,-48,o),
(488,-25,o),
(393,-18,c),
(417,-55,l),
(417,2,l),
(308,2,l),
(304,-65,l),
(411,-72,o),
(421,-78,o),
(421,-87,cs),
(421,-109,o),
(308,-103,o),
(228,-92,c),
(228,-164,l),
(271,-168,o),
(300,-171,o),
(368,-171,cs)
);
}
);
};
layerId = "E5B4AC11-8521-476B-8B52-54F023F880B1";
shapes = (
{
ref = c;
},
{
pos = (227,0);
ref = cedillacomb;
}
);
width = 717;
}
);
unicode = 231;
},
{
glyphname = ccircumflex;
kernLeft = o;
kernRight = c;
lastChange = "2024-12-19 13:17:37 +0000";
layers = (
{
anchors = (
{
name = bottom;
pos = (365,0);
},
{
name = top;
pos = (365,514);
}
);
background = {
anchors = (
{
name = bottom;
pos = (365,0);
},
{
name = top;
pos = (365,514);
}
);
shapes = (
{
closed = 1;
nodes = (
(526,-12,o),
(665,47,o),
(696,185,c),
(516,204,l),
(496,153,o),
(449,120,o),
(374,120,cs),
(280,120,o),
(222,175,o),
(222,252,cs),
(222,262,ls),
(222,340,o),
(280,394,o),
(374,394,cs),
(449,394,o),
(496,361,o),
(516,310,c),
(696,329,l),
(665,467,o),
(526,526,o),
(375,526,cs),
(184,526,o),
(27,433,o),
(27,257,cs),
(27,82,o),
(197,-12,o),
(375,-12,cs)
);
},
{
closed = 1;
nodes = (
(296,582,l),
(419,700,l),
(311,700,l),
(433,582,l),
(595,582,l),
(438,734,l),
(292,734,l),
(135,582,l)
);
}
);
};
layerId = "E5B4AC11-8521-476B-8B52-54F023F880B1";
shapes = (
{
ref = c;
},
{
pos = (135,0);
ref = circumflexcomb;
}
);
width = 717;
}
);
unicode = 265;
},
{
glyphname = cdotaccent;
kernLeft = o;
kernRight = c;
lastChange = "2024-12-19 13:17:37 +0000";
layers = (
{
anchors = (
{
name = bottom;
pos = (365,0);
},
{
name = top;
pos = (365,514);
}
);
background = {
anchors = (
{
name = bottom;
pos = (365,0);
},
{
name = top;
pos = (365,514);
}
);
shapes = (
{
closed = 1;
nodes = (
(526,-12,o),
(665,47,o),
(696,185,c),
(516,204,l),
(496,153,o),
(449,120,o),
(374,120,cs),
(280,120,o),
(222,175,o),
(222,252,cs),
(222,262,ls),
(222,340,o),
(280,394,o),
(374,394,cs),
(449,394,o),
(496,361,o),
(516,310,c),
(696,329,l),
(665,467,o),
(526,526,o),
(375,526,cs),
(184,526,o),
(27,433,o),
(27,257,cs),
(27,82,o),
(197,-12,o),
(375,-12,cs)
);
},
{
closed = 1;
nodes = (
(461,580,l),
(461,720,l),
(269,720,l),
(269,580,l)
);
}
);
};
layerId = "E5B4AC11-8521-476B-8B52-54F023F880B1";
shapes = (
{
ref = c;
},
{
pos = (269,0);
ref = dotaccentcomb;
}
);
width = 717;
}
);
unicode = 267;
},
{
glyphname = d;
kernLeft = d;
kernRight = d;
lastChange = "2024-12-19 13:17:24 +0000";
layers = (
{
anchors = (
{
name = bottom;
pos = (426,0);
},
{
name = center;
pos = (426,257);
},
{
name = top;
pos = (426,758);
},
{
name = topright;
pos = (793,758);
}
);
background = {
anchors = (
{
name = bottom;
pos = (426,0);
},
{
name = center;
pos = (426,257);
},
{
name = top;
pos = (426,758);
},
{
name = topright;
pos = (793,758);
}
);
shapes = (
{
closed = 1;
nodes = (
(455,-12,o),
(570,30,o),
(605,155,c),
(535,249,l),
(535,156,o),
(453,120,o),
(378,120,cs),
(293,120,o),
(224,168,o),
(224,252,cs),
(224,262,ls),
(224,347,o),
(293,394,o),
(378,394,cs),
(453,394,o),
(535,359,o),
(535,265,c),
(599,376,l),
(568,471,o),
(455,526,o),
(336,526,cs),
(194,526,o),
(29,450,o),
(29,257,cs),
(29,65,o),
(200,-12,o),
(336,-12,cs)
);
},
{
closed = 1;
nodes = (
(729,0,l),
(729,710,l),
(535,710,l),
(535,113,l),
(538,108,l),
(538,0,l)
);
}
);
};
layerId = "E5B4AC11-8521-476B-8B52-54F023F880B1";
shapes = (
{
closed = 1;
nodes = (
(455,-12,o),
(570,30,o),
(605,155,c),
(535,249,l),
(535,156,o),
(453,120,o),
(378,120,cs),
(293,120,o),
(224,168,o),
(224,252,cs),
(224,262,ls),
(224,347,o),
(293,394,o),
(378,394,cs),
(453,394,o),
(535,359,o),
(535,265,c),
(599,376,l),
(568,471,o),
(455,526,o),
(336,526,cs),
(194,526,o),
(29,450,o),
(29,257,cs),
(29,65,o),
(200,-12,o),
(336,-12,cs)
);
},
{
closed = 1;
nodes = (
(729,0,l),
(729,710,l),
(535,710,l),
(535,113,l),
(538,108,l),
(538,0,l)
);
}
);
width = 781;
}
);
note = d;
unicode = 100;
},
{
glyphname = dcaron;
kernLeft = d;
kernRight = dcaron;
lastChange = "2024-12-19 13:17:37 +0000";
layers = (
{
background = {
anchors = (
{
name = bottom;
pos = (426,0);
},
{
name = center;
pos = (426,257);
},
{
name = top;
pos = (426,758);
},
{
name = topright;
pos = (793,758);
}
);
shapes = (
{
closed = 1;
nodes = (
(889,455,l),
(926,710,l),
(793,710,l),
(783,455,l)
);
},
{
closed = 1;
nodes = (
(455,-12,o),
(570,30,o),
(605,155,c),
(535,249,l),
(535,156,o),
(453,120,o),
(378,120,cs),
(293,120,o),
(224,168,o),
(224,252,cs),
(224,262,ls),
(224,347,o),
(293,394,o),
(378,394,cs),
(453,394,o),
(535,359,o),
(535,265,c),
(599,376,l),
(568,471,o),
(455,526,o),
(336,526,cs),
(194,526,o),
(29,450,o),
(29,257,cs),
(29,65,o),
(200,-12,o),
(336,-12,cs)
);
},
{
closed = 1;
nodes = (
(729,0,l),
(729,710,l),
(535,710,l),
(535,113,l),
(538,108,l),
(538,0,l)
);
}
);
};
guides = (
{
pos = (-609,732);
}
);
layerId = "E5B4AC11-8521-476B-8B52-54F023F880B1";
shapes = (
{
closed = 1;
nodes = (
(889,455,l),
(926,710,l),
(793,710,l),
(783,455,l)
);
},
{
ref = d;
}
);
width = 886;
}
);
unicode = 271;
},
{
glyphname = dcroat;
kernLeft = d;
kernRight = d;
lastChange = "2024-12-19 13:17:38 +0000";
layers = (
{
background = {
anchors = (
{
name = bottom;
pos = (426,0);
},
{
name = center;
pos = (426,257);
},
{
name = top;
pos = (426,758);
},
{
name = topright;
pos = (793,758);
}
);
shapes = (
{
closed = 1;
nodes = (
(809,555,l),
(809,649,l),
(361,649,l),
(361,555,l)
);
},
{
closed = 1;
nodes = (
(455,-12,o),
(570,30,o),
(605,155,c),
(535,249,l),
(535,156,o),
(453,120,o),
(378,120,cs),
(293,120,o),
(224,168,o),
(224,252,cs),
(224,262,ls),
(224,347,o),
(293,394,o),
(378,394,cs),
(453,394,o),
(535,359,o),
(535,265,c),
(599,376,l),
(568,471,o),
(455,526,o),
(336,526,cs),
(194,526,o),
(29,450,o),
(29,257,cs),
(29,65,o),
(200,-12,o),
(336,-12,cs)
);
},
{
closed = 1;
nodes = (
(729,0,l),
(729,710,l),
(535,710,l),
(535,113,l),
(538,108,l),
(538,0,l)
);
}
);
};
layerId = "E5B4AC11-8521-476B-8B52-54F023F880B1";
shapes = (
{
closed = 1;
nodes = (
(809,555,l),
(809,649,l),
(361,649,l),
(361,555,l)
);
},
{
ref = d;
}
);
width = 781;
}
);
unicode = 273;
},
{
glyphname = eth;
lastChange = "2024-12-19 13:17:24 +0000";
layers = (
{
background = {
shapes = (
{
closed = 1;
nodes = (
(571,-12,o),
(726,85,o),
(726,299,cs),
(726,428,o),
(641,693,o),
(219,722,c),
(163,626,l),
(375,603,o),
(453,561,o),
(523,475,c),
(524,487,l),
(474,512,o),
(415,527,o),
(344,526,cs),
(173,522,o),
(29,433,o),
(29,257,cs),
(29,82,o),
(197,-12,o),
(380,-12,cs)
);
},
{
closed = 1;
nodes = (
(287,120,o),
(224,173,o),
(224,252,cs),
(224,262,ls),
(224,342,o),
(287,394,o),
(380,394,cs),
(473,394,o),
(535,342,o),
(535,262,cs),
(535,252,ls),
(535,173,o),
(473,120,o),
(380,120,cs)
);
},
{
closed = 1;
nodes = (
(647,660,l),
(647,722,l),
(163,575,l),
(163,513,l)
);
}
);
};
guides = (
{
pos = (417,722);
}
);
layerId = "E5B4AC11-8521-476B-8B52-54F023F880B1";
shapes = (
{
closed = 1;
nodes = (
(571,-12,o),
(726,85,o),
(726,299,cs),
(726,428,o),
(641,693,o),
(219,722,c),
(163,626,l),
(375,603,o),
(453,561,o),
(523,475,c),
(524,487,l),
(474,512,o),
(415,527,o),
(344,526,cs),
(173,522,o),
(29,433,o),
(29,257,cs),
(29,82,o),
(197,-12,o),
(380,-12,cs)
);
},
{
closed = 1;
nodes = (
(287,120,o),
(224,173,o),
(224,252,cs),
(224,262,ls),
(224,342,o),
(287,394,o),
(380,394,cs),
(473,394,o),
(535,342,o),
(535,262,cs),
(535,252,ls),
(535,173,o),
(473,120,o),
(380,120,cs)
);
},
{
closed = 1;
nodes = (
(647,660,l),
(647,722,l),
(163,575,l),
(163,513,l)
);
}
);
width = 757;
}
);
unicode = 240;
userData = {
RMXScaler = {
source = o;
};
};
},
{
glyphname = e;
kernLeft = o;
kernRight = e;
lastChange = "2024-12-19 13:17:24 +0000";
layers = (
{
anchors = (
{
name = bottom;
pos = (367,0);
},
{
name = ogonek;
pos = (632,0);
},
{
name = top;
pos = (380,514);
}
);
background = {
anchors = (
{
name = bottom;
pos = (367,0);
},
{
name = ogonek;
pos = (632,0);
},
{
name = top;
pos = (380,514);
}
);
shapes = (
{
closed = 1;
nodes = (
(554,-12,o),
(678,47,o),
(708,158,c),
(531,177,l),
(512,142,o),
(479,119,o),
(386,119,cs),
(271,119,o),
(222,171,o),
(222,234,cs),
(222,297,ls),
(222,354,o),
(267,405,o),
(382,405,cs),
(485,405,o),
(534,367,o),
(534,301,cs),
(534,278,l),
(572,318,l),
(192,318,l),
(192,219,l),
(710,219,l),
(729,421,o),
(601,526,o),
(380,526,cs),
(170,526,o),
(28,433,o),
(28,257,cs),
(28,82,o),
(180,-12,o),
(386,-12,cs)
);
}
);
};
layerId = "E5B4AC11-8521-476B-8B52-54F023F880B1";
shapes = (
{
closed = 1;
nodes = (
(554,-12,o),
(678,47,o),
(708,158,c),
(531,177,l),
(512,142,o),
(479,119,o),
(386,119,cs),
(271,119,o),
(222,171,o),
(222,234,cs),
(222,297,ls),
(222,354,o),
(267,405,o),
(382,405,cs),
(485,405,o),
(534,367,o),
(534,301,cs),
(534,278,l),
(572,318,l),
(192,318,l),
(192,219,l),
(710,219,l),
(729,421,o),
(601,526,o),
(380,526,cs),
(170,526,o),
(28,433,o),
(28,257,cs),
(28,82,o),
(180,-12,o),
(386,-12,cs)
);
}
);
width = 742;
}
);
note = e;
unicode = 101;
},
{
glyphname = eacute;
kernLeft = o;
kernRight = e;
lastChange = "2024-12-19 13:17:38 +0000";
layers = (
{
anchors = (
{
name = bottom;
pos = (367,0);
},
{
name = ogonek;
pos = (656,10);
},
{
name = top;
pos = (367,514);
}
);
background = {
anchors = (
{
name = bottom;
pos = (367,0);
},
{
name = ogonek;
pos = (656,10);
},
{
name = top;
pos = (367,514);
}
);
shapes = (
{
closed = 1;
nodes = (
(554,-12,o),
(678,47,o),
(708,158,c),
(531,177,l),
(512,142,o),
(479,119,o),
(386,119,cs),
(271,119,o),
(222,171,o),
(222,234,cs),
(222,297,ls),
(222,354,o),
(267,405,o),
(382,405,cs),
(485,405,o),
(534,367,o),
(534,301,cs),
(534,278,l),
(572,318,l),
(192,318,l),
(192,219,l),
(710,219,l),
(729,421,o),
(601,526,o),
(380,526,cs),
(170,526,o),
(28,433,o),
(28,257,cs),
(28,82,o),
(180,-12,o),
(386,-12,cs)
);
},
{
closed = 1;
nodes = (
(563,727,l),
(435,780,l),
(299,602,l),
(416,572,l)
);
}
);
};
layerId = "E5B4AC11-8521-476B-8B52-54F023F880B1";
shapes = (
{
ref = e;
},
{
pos = (299,0);
ref = acutecomb;
}
);
width = 742;
}
);
unicode = 233;
},
{
glyphname = ebreve;
kernLeft = o;
kernRight = e;
lastChange = "2024-12-19 13:17:38 +0000";
layers = (
{
anchors = (
{
name = bottom;
pos = (367,0);
},
{
name = ogonek;
pos = (656,10);
},
{
name = top;
pos = (367,514);
}
);
background = {
anchors = (
{
name = bottom;
pos = (367,0);
},
{
name = ogonek;
pos = (656,10);
},
{
name = top;
pos = (367,514);
}
);
shapes = (
{
closed = 1;
nodes = (
(554,-12,o),
(678,47,o),
(708,158,c),
(531,177,l),
(512,142,o),
(479,119,o),
(386,119,cs),
(271,119,o),
(222,171,o),
(222,234,cs),
(222,297,ls),
(222,354,o),
(267,405,o),
(382,405,cs),
(485,405,o),
(534,367,o),
(534,301,cs),
(534,278,l),
(572,318,l),
(192,318,l),
(192,219,l),
(710,219,l),
(729,421,o),
(601,526,o),
(380,526,cs),
(170,526,o),
(28,433,o),
(28,257,cs),
(28,82,o),
(180,-12,o),
(386,-12,cs)
);
},
{
closed = 1;
nodes = (
(494,569,o),
(573,629,o),
(580,732,c),
(461,732,l),
(457,687,o),
(428,662,o),
(380,662,cs),
(332,662,o),
(303,687,o),
(299,732,c),
(180,732,l),
(187,629,o),
(266,569,o),
(380,569,cs)
);
}
);
};
layerId = "E5B4AC11-8521-476B-8B52-54F023F880B1";
shapes = (
{
ref = e;
},
{
pos = (180,0);
ref = brevecomb;
}
);
width = 742;
}
);
unicode = 277;
},
{
glyphname = ecaron;
kernLeft = o;
kernRight = e;
lastChange = "2024-12-19 13:17:38 +0000";
layers = (
{
anchors = (
{
name = bottom;
pos = (367,0);
},
{
name = ogonek;
pos = (656,10);
},
{
name = top;
pos = (367,514);
}
);
background = {
anchors = (
{
name = bottom;
pos = (367,0);
},
{
name = ogonek;
pos = (656,10);
},
{
name = top;
pos = (367,514);
}
);
shapes = (
{
closed = 1;
nodes = (
(554,-12,o),
(678,47,o),
(708,158,c),
(531,177,l),
(512,142,o),
(479,119,o),
(386,119,cs),
(271,119,o),
(222,171,o),
(222,234,cs),
(222,297,ls),
(222,354,o),
(267,405,o),
(382,405,cs),
(485,405,o),
(534,367,o),
(534,301,cs),
(534,278,l),
(572,318,l),
(192,318,l),
(192,219,l),
(710,219,l),
(729,421,o),
(601,526,o),
(380,526,cs),
(170,526,o),
(28,433,o),
(28,257,cs),
(28,82,o),
(180,-12,o),
(386,-12,cs)
);
},
{
closed = 1;
nodes = (
(453,582,l),
(610,734,l),
(448,734,l),
(326,616,l),
(434,616,l),
(311,734,l),
(150,734,l),
(307,582,l)
);
}
);
};
layerId = "E5B4AC11-8521-476B-8B52-54F023F880B1";
shapes = (
{
ref = e;
},
{
pos = (150,0);
ref = caroncomb;
}
);
width = 742;
}
);
unicode = 283;
},
{
glyphname = ecircumflex;
kernLeft = o;
kernRight = e;
lastChange = "2024-12-19 13:17:38 +0000";
layers = (
{
anchors = (
{
name = bottom;
pos = (367,0);
},
{
name = ogonek;
pos = (656,10);
},
{
name = top;
pos = (367,514);
}
);
background = {
anchors = (
{
name = bottom;
pos = (367,0);
},
{
name = ogonek;
pos = (656,10);
},
{
name = top;
pos = (367,514);
}
);
shapes = (
{
closed = 1;
nodes = (
(554,-12,o),
(678,47,o),
(708,158,c),
(531,177,l),
(512,142,o),
(479,119,o),
(386,119,cs),
(271,119,o),
(222,171,o),
(222,234,cs),
(222,297,ls),
(222,354,o),
(267,405,o),
(382,405,cs),
(485,405,o),
(534,367,o),
(534,301,cs),
(534,278,l),
(572,318,l),
(192,318,l),
(192,219,l),
(710,219,l),
(729,421,o),
(601,526,o),
(380,526,cs),
(170,526,o),
(28,433,o),
(28,257,cs),
(28,82,o),
(180,-12,o),
(386,-12,cs)
);
},
{
closed = 1;
nodes = (
(311,582,l),
(434,700,l),
(326,700,l),
(448,582,l),
(610,582,l),
(453,734,l),
(307,734,l),
(150,582,l)
);
}
);
};
layerId = "E5B4AC11-8521-476B-8B52-54F023F880B1";
shapes = (
{
ref = e;
},
{
pos = (150,0);
ref = circumflexcomb;
}
);
width = 742;
}
);
unicode = 234;
},
{
glyphname = edieresis;
kernLeft = o;
kernRight = e;
lastChange = "2024-12-19 13:17:38 +0000";
layers = (
{
background = {
anchors = (
{
name = bottom;
pos = (367,0);
},
{
name = ogonek;
pos = (632,0);
},
{
name = top;
pos = (380,720);
}
);
shapes = (
{
closed = 1;
nodes = (
(554,-12,o),
(678,47,o),
(708,158,c),
(531,177,l),
(512,142,o),
(479,119,o),
(386,119,cs),
(271,119,o),
(222,171,o),
(222,234,cs),
(222,297,ls),
(222,354,o),
(267,405,o),
(382,405,cs),
(485,405,o),
(534,367,o),
(534,301,cs),
(534,278,l),
(572,318,l),
(192,318,l),
(192,219,l),
(710,219,l),
(729,421,o),
(601,526,o),
(380,526,cs),
(170,526,o),
(28,433,o),
(28,257,cs),
(28,82,o),
(180,-12,o),
(386,-12,cs)
);
},
{
closed = 1;
nodes = (
(346,580,l),
(346,720,l),
(173,720,l),
(173,580,l)
);
},
{
closed = 1;
nodes = (
(588,580,l),
(588,720,l),
(415,720,l),
(415,580,l)
);
}
);
};
layerId = "E5B4AC11-8521-476B-8B52-54F023F880B1";
shapes = (
{
ref = e;
},
{
pos = (173,0);
ref = dieresiscomb;
}
);
width = 742;
}
);
unicode = 235;
},
{
glyphname = edotaccent;
kernLeft = o;
kernRight = e;
lastChange = "2024-12-19 13:17:38 +0000";
layers = (
{
background = {
anchors = (
{
name = bottom;
pos = (367,0);
},
{
name = ogonek;
pos = (632,0);
},
{
name = top;
pos = (380,720);
}
);
shapes = (
{
closed = 1;
nodes = (
(554,-12,o),
(678,47,o),
(708,158,c),
(531,177,l),
(512,142,o),
(479,119,o),
(386,119,cs),
(271,119,o),
(222,171,o),
(222,234,cs),
(222,297,ls),
(222,354,o),
(267,405,o),
(382,405,cs),
(485,405,o),
(534,367,o),
(534,301,cs),
(534,278,l),
(572,318,l),
(192,318,l),
(192,219,l),
(710,219,l),
(729,421,o),
(601,526,o),
(380,526,cs),
(170,526,o),
(28,433,o),
(28,257,cs),
(28,82,o),
(180,-12,o),
(386,-12,cs)
);
},
{
closed = 1;
nodes = (
(476,580,l),
(476,720,l),
(284,720,l),
(284,580,l)
);
}
);
};
layerId = "E5B4AC11-8521-476B-8B52-54F023F880B1";
shapes = (
{
ref = e;
},
{
pos = (284,0);
ref = dotaccentcomb;
}
);
width = 742;
}
);
unicode = 279;
},
{
glyphname = egrave;
kernLeft = o;
kernRight = e;
lastChange = "2024-12-19 13:17:51 +0000";
layers = (
{
anchors = (
{
name = bottom;
pos = (367,0);
},
{
name = ogonek;
pos = (656,10);
},
{
name = top;
pos = (367,514);
}
);
background = {
anchors = (
{
name = bottom;
pos = (367,0);
},
{
name = ogonek;
pos = (656,10);
},
{
name = top;
pos = (367,514);
}
);
shapes = (
{
closed = 1;
nodes = (
(554,-12,o),
(678,47,o),
(708,158,c),
(531,177,l),
(512,142,o),
(479,119,o),
(386,119,cs),
(271,119,o),
(222,171,o),
(222,234,cs),
(222,297,ls),
(222,354,o),
(267,405,o),
(382,405,cs),
(485,405,o),
(534,367,o),
(534,301,cs),
(534,278,l),
(572,318,l),
(192,318,l),
(192,219,l),
(710,219,l),
(729,421,o),
(601,526,o),
(380,526,cs),
(170,526,o),
(28,433,o),
(28,257,cs),
(28,82,o),
(180,-12,o),
(386,-12,cs)
);
},
{
closed = 1;
nodes = (
(428,602,l),
(292,780,l),
(164,727,l),
(311,572,l)
);
}
);
};
layerId = "E5B4AC11-8521-476B-8B52-54F023F880B1";
shapes = (
{
ref = e;
},
{
pos = (197,0);
ref = gravecomb;
}
);
width = 742;
}
);
unicode = 232;
},
{
glyphname = emacron;
kernLeft = o;
kernRight = e;
lastChange = "2024-12-19 13:17:38 +0000";
layers = (
{
background = {
anchors = (
{
name = bottom;
pos = (367,0);
},
{
name = ogonek;
pos = (632,0);
},
{
name = top;
pos = (380,687);
}
);
shapes = (
{
closed = 1;
nodes = (
(554,-12,o),
(678,47,o),
(708,158,c),
(531,177,l),
(512,142,o),
(479,119,o),
(386,119,cs),
(271,119,o),
(222,171,o),
(222,234,cs),
(222,297,ls),
(222,354,o),
(267,405,o),
(382,405,cs),
(485,405,o),
(534,367,o),
(534,301,cs),
(534,278,l),
(572,318,l),
(192,318,l),
(192,219,l),
(710,219,l),
(729,421,o),
(601,526,o),
(380,526,cs),
(170,526,o),
(28,433,o),
(28,257,cs),
(28,82,o),
(180,-12,o),
(386,-12,cs)
);
},
{
closed = 1;
nodes = (
(606,586,l),
(606,687,l),
(154,687,l),
(154,586,l)
);
}
);
};
layerId = "E5B4AC11-8521-476B-8B52-54F023F880B1";
shapes = (
{
ref = e;
},
{
pos = (154,0);
ref = macroncomb;
}
);
width = 742;
}
);
unicode = 275;
},
{
glyphname = eogonek;
kernLeft = o;
kernRight = e;
lastChange = "2024-12-19 13:17:24 +0000";
layers = (
{
background = {
shapes = (
{
closed = 1;
nodes = (
(661,-71,l),
(627,-78,o),
(567,-81,o),
(567,-32,cs),
(567,-14,o),
(573,4,o),
(611,34,cs),
(659,72,o),
(695,110,o),
(708,158,c),
(531,177,l),
(512,142,o),
(479,119,o),
(386,119,cs),
(271,119,o),
(222,171,o),
(222,234,cs),
(222,297,ls),
(222,354,o),
(267,405,o),
(382,405,cs),
(485,405,o),
(534,367,o),
(534,301,cs),
(534,278,l),
(572,318,l),
(192,318,l),
(192,219,l),
(710,219,l),
(729,421,o),
(601,526,o),
(380,526,cs),
(170,526,o),
(28,433,o),
(28,257,cs),
(28,82,o),
(180,-12,o),
(386,-12,cs),
(432,-12,o),
(476,-8,o),
(515,0,c),
(506,13,l),
(478,-2,o),
(430,-39,o),
(430,-86,cs),
(430,-181,o),
(577,-183,o),
(661,-159,c)
);
}
);
};
layerId = "E5B4AC11-8521-476B-8B52-54F023F880B1";
shapes = (
{
closed = 1;
nodes = (
(661,-71,l),
(627,-78,o),
(567,-81,o),
(567,-32,cs),
(567,-14,o),
(573,4,o),
(611,34,cs),
(659,72,o),
(695,110,o),
(708,158,c),
(531,177,l),
(512,142,o),
(479,119,o),
(386,119,cs),
(271,119,o),
(222,171,o),
(222,234,cs),
(222,297,ls),
(222,354,o),
(267,405,o),
(382,405,cs),
(485,405,o),
(534,367,o),
(534,301,cs),
(534,278,l),
(572,318,l),
(192,318,l),
(192,219,l),
(710,219,l),
(729,421,o),
(601,526,o),
(380,526,cs),
(170,526,o),
(28,433,o),
(28,257,cs),
(28,82,o),
(180,-12,o),
(386,-12,cs),
(432,-12,o),
(476,-8,o),
(515,0,c),
(506,13,l),
(478,-2,o),
(430,-39,o),
(430,-86,cs),
(430,-181,o),
(577,-183,o),
(661,-159,c)
);
}
);
width = 742;
}
);
unicode = 281;
},
{
glyphname = f;
kernLeft = f;
kernRight = f;
lastChange = "2024-12-19 13:17:24 +0000";
layers = (
{
anchors = (
{
name = bottom;
pos = (259,0);
},
{
name = top;
pos = (259,728);
}
);
background = {
anchors = (
{
name = bottom;
pos = (259,0);
},
{
name = top;
pos = (259,728);
}
);
shapes = (
{
closed = 1;
nodes = (
(332,0,l),
(332,521,ls),
(332,585,o),
(385,597,o),
(446,597,cs),
(484,597,o),
(534,592,o),
(580,585,c),
(580,702,l),
(524,715,o),
(466,722,o),
(416,722,cs),
(245,722,o),
(138,649,o),
(138,503,cs),
(138,0,l)
);
},
{
closed = 1;
nodes = (
(551,387,l),
(551,514,l),
(15,514,l),
(15,387,l)
);
}
);
};
layerId = "E5B4AC11-8521-476B-8B52-54F023F880B1";
shapes = (
{
closed = 1;
nodes = (
(332,0,l),
(332,521,ls),
(332,585,o),
(385,597,o),
(446,597,cs),
(484,597,o),
(534,592,o),
(580,585,c),
(580,702,l),
(524,715,o),
(466,722,o),
(416,722,cs),
(245,722,o),
(138,649,o),
(138,503,cs),
(138,0,l)
);
},
{
closed = 1;
nodes = (
(551,387,l),
(551,514,l),
(15,514,l),
(15,387,l)
);
}
);
width = 562;
}
);
note = f;
unicode = 102;
},
{
glyphname = g;
kernLeft = g;
kernRight = g;
lastChange = "2024-12-19 13:17:24 +0000";
layers = (
{
anchors = (
{
name = bottom;
pos = (358,-165);
},
{
name = top;
pos = (335,514);
}
);
background = {
anchors = (
{
name = bottom;
pos = (358,-165);
},
{
name = top;
pos = (335,514);
}
);
shapes = (
{
closed = 1;
nodes = (
(577,-177,o),
(706,-110,o),
(706,0,cs),
(706,81,o),
(642,130,o),
(502,134,cs),
(263,141,ls),
(229,142,o),
(218,153,o),
(218,166,cs),
(218,178,o),
(226,193,o),
(257,211,c),
(171,239,l),
(98,215,o),
(59,162,o),
(59,114,cs),
(59,74,o),
(83,36,o),
(138,15,c),
(142,8,l),
(444,-1,ls),
(494,-2,o),
(517,-10,o),
(517,-30,cs),
(517,-60,o),
(449,-74,o),
(346,-73,cs),
(247,-72,o),
(188,-62,o),
(188,-27,cs),
(188,-5,o),
(210,10,o),
(265,29,c),
(197,75,l),
(75,55,o),
(5,4,o),
(5,-56,cs),
(5,-124,o),
(73,-177,o),
(341,-177,cs)
);
},
{
closed = 1;
nodes = (
(534,181,o),
(645,257,o),
(645,354,cs),
(645,450,o),
(536,527,o),
(340,527,cs),
(142,527,o),
(33,450,o),
(33,354,cs),
(33,257,o),
(146,181,o),
(340,181,cs)
);
},
{
closed = 1;
nodes = (
(258,289,o),
(222,314,o),
(222,354,cs),
(222,394,o),
(258,417,o),
(340,417,cs),
(421,417,o),
(457,393,o),
(457,354,cs),
(457,315,o),
(421,289,o),
(340,289,cs)
);
},
{
closed = 1;
nodes = (
(568,465,o),
(632,473,o),
(698,466,c),
(698,583,l),
(683,585,o),
(670,586,o),
(654,586,cs),
(565,586,o),
(493,545,o),
(451,431,c),
(514,401,l)
);
}
);
};
layerId = "E5B4AC11-8521-476B-8B52-54F023F880B1";
shapes = (
{
closed = 1;
nodes = (
(577,-177,o),
(706,-110,o),
(706,0,cs),
(706,81,o),
(642,130,o),
(502,134,cs),
(263,141,ls),
(229,142,o),
(218,153,o),
(218,166,cs),
(218,178,o),
(226,193,o),
(257,211,c),
(171,239,l),
(98,215,o),
(59,162,o),
(59,114,cs),
(59,74,o),
(83,36,o),
(138,15,c),
(142,8,l),
(444,-1,ls),
(494,-2,o),
(517,-10,o),
(517,-30,cs),
(517,-60,o),
(449,-74,o),
(346,-73,cs),
(247,-72,o),
(188,-62,o),
(188,-27,cs),
(188,-5,o),
(210,10,o),
(265,29,c),
(197,75,l),
(75,55,o),
(5,4,o),
(5,-56,cs),
(5,-124,o),
(73,-177,o),
(341,-177,cs)
);
},
{
closed = 1;
nodes = (
(534,181,o),
(645,257,o),
(645,354,cs),
(645,450,o),
(536,527,o),
(340,527,cs),
(142,527,o),
(33,450,o),
(33,354,cs),
(33,257,o),
(146,181,o),
(340,181,cs)
);
},
{
closed = 1;
nodes = (
(258,289,o),
(222,314,o),
(222,354,cs),
(222,394,o),
(258,417,o),
(340,417,cs),
(421,417,o),
(457,393,o),
(457,354,cs),
(457,315,o),
(421,289,o),
(340,289,cs)
);
},
{
closed = 1;
nodes = (
(568,465,o),
(632,473,o),
(698,466,c),
(698,583,l),
(683,585,o),
(670,586,o),
(654,586,cs),
(565,586,o),
(493,545,o),
(451,431,c),
(514,401,l)
);
}
);
width = 721;
}
);
note = g;
unicode = 103;
},
{
glyphname = gbreve;
kernLeft = g;
kernRight = g;
lastChange = "2024-12-19 13:17:38 +0000";
layers = (
{
background = {
anchors = (
{
name = bottom;
pos = (358,-165);
},
{
name = top;
pos = (335,732);
}
);
shapes = (
{
closed = 1;
nodes = (
(577,-177,o),
(706,-110,o),
(706,0,cs),
(706,81,o),
(642,130,o),
(502,134,cs),
(263,141,ls),
(229,142,o),
(218,153,o),
(218,166,cs),
(218,178,o),
(226,193,o),
(257,211,c),
(171,239,l),
(98,215,o),
(59,162,o),
(59,114,cs),
(59,74,o),
(83,36,o),
(138,15,c),
(142,8,l),
(444,-1,ls),
(494,-2,o),
(517,-10,o),
(517,-30,cs),
(517,-60,o),
(449,-74,o),
(346,-73,cs),
(247,-72,o),
(188,-62,o),
(188,-27,cs),
(188,-5,o),
(210,10,o),
(265,29,c),
(197,75,l),
(75,55,o),
(5,4,o),
(5,-56,cs),
(5,-124,o),
(73,-177,o),
(341,-177,cs)
);
},
{
closed = 1;
nodes = (
(534,181,o),
(645,257,o),
(645,354,cs),
(645,450,o),
(536,527,o),
(340,527,cs),
(142,527,o),
(33,450,o),
(33,354,cs),
(33,257,o),
(146,181,o),
(340,181,cs)
);
},
{
closed = 1;
nodes = (
(258,289,o),
(222,314,o),
(222,354,cs),
(222,394,o),
(258,417,o),
(340,417,cs),
(421,417,o),
(457,393,o),
(457,354,cs),
(457,315,o),
(421,289,o),
(340,289,cs)
);
},
{
closed = 1;
nodes = (
(568,465,o),
(632,473,o),
(698,466,c),
(698,583,l),
(683,585,o),
(670,586,o),
(654,586,cs),
(565,586,o),
(493,545,o),
(451,431,c),
(514,401,l)
);
},
{
closed = 1;
nodes = (
(449,569,o),
(528,629,o),
(535,732,c),
(416,732,l),
(412,687,o),
(383,662,o),
(335,662,cs),
(287,662,o),
(258,687,o),
(254,732,c),
(135,732,l),
(142,629,o),
(221,569,o),
(335,569,cs)
);
}
);
};
layerId = "E5B4AC11-8521-476B-8B52-54F023F880B1";
shapes = (
{
ref = g;
},
{
pos = (135,0);
ref = brevecomb;
}
);
width = 721;
}
);
unicode = 287;
},
{
glyphname = gcircumflex;
kernLeft = g;
kernRight = g;
lastChange = "2024-12-19 13:17:38 +0000";
layers = (
{
anchors = (
{
name = bottom;
pos = (358,-165);
},
{
name = top;
pos = (358,514);
}
);
background = {
anchors = (
{
name = bottom;
pos = (358,-165);
},
{
name = top;
pos = (358,514);
}
);
shapes = (
{
closed = 1;
nodes = (
(577,-177,o),
(706,-110,o),
(706,0,cs),
(706,81,o),
(642,130,o),
(502,134,cs),
(263,141,ls),
(229,142,o),
(218,153,o),
(218,166,cs),
(218,178,o),
(226,193,o),
(257,211,c),
(171,239,l),
(98,215,o),
(59,162,o),
(59,114,cs),
(59,74,o),
(83,36,o),
(138,15,c),
(142,8,l),
(444,-1,ls),
(494,-2,o),
(517,-10,o),
(517,-30,cs),
(517,-60,o),
(449,-74,o),
(346,-73,cs),
(247,-72,o),
(188,-62,o),
(188,-27,cs),
(188,-5,o),
(210,10,o),
(265,29,c),
(197,75,l),
(75,55,o),
(5,4,o),
(5,-56,cs),
(5,-124,o),
(73,-177,o),
(341,-177,cs)
);
},
{
closed = 1;
nodes = (
(534,181,o),
(645,257,o),
(645,354,cs),
(645,450,o),
(536,527,o),
(340,527,cs),
(142,527,o),
(33,450,o),
(33,354,cs),
(33,257,o),
(146,181,o),
(340,181,cs)
);
},
{
closed = 1;
nodes = (
(258,289,o),
(222,314,o),
(222,354,cs),
(222,394,o),
(258,417,o),
(340,417,cs),
(421,417,o),
(457,393,o),
(457,354,cs),
(457,315,o),
(421,289,o),
(340,289,cs)
);
},
{
closed = 1;
nodes = (
(568,465,o),
(632,473,o),
(698,466,c),
(698,583,l),
(683,585,o),
(670,586,o),
(654,586,cs),
(565,586,o),
(493,545,o),
(451,431,c),
(514,401,l)
);
},
{
closed = 1;
nodes = (
(225,582,l),
(348,700,l),
(240,700,l),
(362,582,l),
(524,582,l),
(367,734,l),
(221,734,l),
(64,582,l)
);
}
);
};
layerId = "E5B4AC11-8521-476B-8B52-54F023F880B1";
shapes = (
{
ref = g;
},
{
pos = (105,0);
ref = circumflexcomb;
userData = {
UFO.identifier = 37191FDB;
};
}
);
width = 721;
}
);
unicode = 285;
},
{
glyphname = gcommaaccent;
kernLeft = g;
kernRight = g;
lastChange = "2024-12-19 13:17:38 +0000";
layers = (
{
background = {
anchors = (
{
name = bottom;
pos = (358,-165);
},
{
name = top;
pos = (335,812);
}
);
shapes = (
{
closed = 1;
nodes = (
(577,-177,o),
(706,-110,o),
(706,0,cs),
(706,81,o),
(642,130,o),
(502,134,cs),
(263,141,ls),
(229,142,o),
(218,153,o),
(218,166,cs),
(218,178,o),
(226,193,o),
(257,211,c),
(171,239,l),
(98,215,o),
(59,162,o),
(59,114,cs),
(59,74,o),
(83,36,o),
(138,15,c),
(142,8,l),
(444,-1,ls),
(494,-2,o),
(517,-10,o),
(517,-30,cs),
(517,-60,o),
(449,-74,o),
(346,-73,cs),
(247,-72,o),
(188,-62,o),
(188,-27,cs),
(188,-5,o),
(210,10,o),
(265,29,c),
(197,75,l),
(75,55,o),
(5,4,o),
(5,-56,cs),
(5,-124,o),
(73,-177,o),
(341,-177,cs)
);
},
{
closed = 1;
nodes = (
(534,181,o),
(645,257,o),
(645,354,cs),
(645,450,o),
(536,527,o),
(340,527,cs),
(142,527,o),
(33,450,o),
(33,354,cs),
(33,257,o),
(146,181,o),
(340,181,cs)
);
},
{
closed = 1;
nodes = (
(258,289,o),
(222,314,o),
(222,354,cs),
(222,394,o),
(258,417,o),
(340,417,cs),
(421,417,o),
(457,393,o),
(457,354,cs),
(457,315,o),
(421,289,o),
(340,289,cs)
);
},
{
closed = 1;
nodes = (
(568,465,o),
(632,473,o),
(698,466,c),
(698,583,l),
(683,585,o),
(670,586,o),
(654,586,cs),
(565,586,o),
(493,545,o),
(451,431,c),
(514,401,l)
);
},
{
closed = 1;
nodes = (
(321,812,l),
(245,700,l),
(245,584,l),
(425,584,l),
(425,718,l),
(355,718,l),
(401,812,l)
);
}
);
};
layerId = "E5B4AC11-8521-476B-8B52-54F023F880B1";
shapes = (
{
ref = g;
},
{
angle = 180;
pos = (425,514);
ref = commaaccentcomb;
}
);
width = 721;
}
);
unicode = 291;
},
{
glyphname = gdotaccent;
kernLeft = g;
kernRight = g;
lastChange = "2024-12-19 13:17:38 +0000";
layers = (
{
anchors = (
{
name = bottom;
pos = (358,-165);
},
{
name = top;
pos = (358,514);
}
);
background = {
anchors = (
{
name = bottom;
pos = (358,-165);
},
{
name = top;
pos = (358,514);
}
);
shapes = (
{
closed = 1;
nodes = (
(577,-177,o),
(706,-110,o),
(706,0,cs),
(706,81,o),
(642,130,o),
(502,134,cs),
(263,141,ls),
(229,142,o),
(218,153,o),
(218,166,cs),
(218,178,o),
(226,193,o),
(257,211,c),
(171,239,l),
(98,215,o),
(59,162,o),
(59,114,cs),
(59,74,o),
(83,36,o),
(138,15,c),
(142,8,l),
(444,-1,ls),
(494,-2,o),
(517,-10,o),
(517,-30,cs),
(517,-60,o),
(449,-74,o),
(346,-73,cs),
(247,-72,o),
(188,-62,o),
(188,-27,cs),
(188,-5,o),
(210,10,o),
(265,29,c),
(197,75,l),
(75,55,o),
(5,4,o),
(5,-56,cs),
(5,-124,o),
(73,-177,o),
(341,-177,cs)
);
},
{
closed = 1;
nodes = (
(534,181,o),
(645,257,o),
(645,354,cs),
(645,450,o),
(536,527,o),
(340,527,cs),
(142,527,o),
(33,450,o),
(33,354,cs),
(33,257,o),
(146,181,o),
(340,181,cs)
);
},
{
closed = 1;
nodes = (
(258,289,o),
(222,314,o),
(222,354,cs),
(222,394,o),
(258,417,o),
(340,417,cs),
(421,417,o),
(457,393,o),
(457,354,cs),
(457,315,o),
(421,289,o),
(340,289,cs)
);
},
{
closed = 1;
nodes = (
(568,465,o),
(632,473,o),
(698,466,c),
(698,583,l),
(683,585,o),
(670,586,o),
(654,586,cs),
(565,586,o),
(493,545,o),
(451,431,c),
(514,401,l)
);
},
{
closed = 1;
nodes = (
(431,580,l),
(431,720,l),
(239,720,l),
(239,580,l)
);
}
);
};
layerId = "E5B4AC11-8521-476B-8B52-54F023F880B1";
shapes = (
{
ref = g;
},
{
pos = (239,0);
ref = dotaccentcomb;
}
);
width = 721;
}
);
unicode = 289;
},
{
glyphname = h;
kernLeft = h;
kernRight = n;
lastChange = "2024-12-19 13:17:24 +0000";
layers = (
{
anchors = (
{
name = bottom;
pos = (462,0);
},
{
name = center;
pos = (462,379);
},
{
name = top;
pos = (286,710);
}
);
background = {
anchors = (
{
name = bottom;
pos = (462,0);
},
{
name = center;
pos = (462,379);
},
{
name = top;
pos = (286,710);
}
);
shapes = (
{
closed = 1;
nodes = (
(675,0,l),
(675,324,ls),
(675,485,o),
(540,526,o),
(431,526,cs),
(332,526,o),
(257,494,o),
(220,437,c),
(246,304,l),
(247,365,o),
(293,391,o),
(364,391,cs),
(434,391,o),
(481,365,o),
(481,304,cs),
(481,0,l)
);
},
{
closed = 1;
nodes = (
(246,0,l),
(246,710,l),
(52,710,l),
(52,0,l)
);
}
);
};
layerId = "E5B4AC11-8521-476B-8B52-54F023F880B1";
shapes = (
{
closed = 1;
nodes = (
(675,0,l),
(675,324,ls),
(675,485,o),
(540,526,o),
(431,526,cs),
(332,526,o),
(257,494,o),
(220,437,c),
(246,304,l),
(247,365,o),
(293,391,o),
(364,391,cs),
(434,391,o),
(481,365,o),
(481,304,cs),
(481,0,l)
);
},
{
closed = 1;
nodes = (
(246,0,l),
(246,710,l),
(52,710,l),
(52,0,l)
);
}
);
width = 722;
}
);
note = h;
unicode = 104;
},
{
glyphname = hbar;
kernLeft = h;
kernRight = n;
lastChange = "2024-12-19 13:17:38 +0000";
layers = (
{
background = {
anchors = (
{
name = bottom;
pos = (462,0);
},
{
name = center;
pos = (462,379);
},
{
name = top;
pos = (286,710);
}
);
shapes = (
{
closed = 1;
nodes = (
(400,555,l),
(400,649,l),
(-48,649,l),
(-48,555,l)
);
},
{
closed = 1;
nodes = (
(675,0,l),
(675,324,ls),
(675,485,o),
(540,526,o),
(431,526,cs),
(332,526,o),
(257,494,o),
(220,437,c),
(246,304,l),
(247,365,o),
(293,391,o),
(364,391,cs),
(434,391,o),
(481,365,o),
(481,304,cs),
(481,0,l)
);
},
{
closed = 1;
nodes = (
(246,0,l),
(246,710,l),
(52,710,l),
(52,0,l)
);
}
);
};
layerId = "E5B4AC11-8521-476B-8B52-54F023F880B1";
shapes = (
{
closed = 1;
nodes = (
(400,555,l),
(400,649,l),
(-48,649,l),
(-48,555,l)
);
},
{
ref = h;
}
);
width = 722;
}
);
unicode = 295;
},
{
glyphname = hcircumflex;
kernLeft = h;
kernRight = n;
lastChange = "2024-12-19 13:17:38 +0000";
layers = (
{
background = {
anchors = (
{
name = bottom;
pos = (462,0);
},
{
name = center;
pos = (462,379);
},
{
name = top;
pos = (286,920);
}
);
shapes = (
{
closed = 1;
nodes = (
(675,0,l),
(675,324,ls),
(675,485,o),
(540,526,o),
(431,526,cs),
(332,526,o),
(257,494,o),
(220,437,c),
(246,304,l),
(247,365,o),
(293,391,o),
(364,391,cs),
(434,391,o),
(481,365,o),
(481,304,cs),
(481,0,l)
);
},
{
closed = 1;
nodes = (
(246,0,l),
(246,710,l),
(52,710,l),
(52,0,l)
);
},
{
closed = 1;
nodes = (
(210,768,l),
(340,886,l),
(232,886,l),
(361,768,l),
(523,768,l),
(359,920,l),
(213,920,l),
(49,768,l)
);
}
);
};
layerId = "E5B4AC11-8521-476B-8B52-54F023F880B1";
shapes = (
{
ref = h;
},
{
pos = (43,0);
ref = circumflexcomb.case;
}
);
width = 722;
}
);
unicode = 293;
},
{
glyphname = i;
kernLeft = i;
kernRight = i;
lastChange = "2024-12-19 13:17:24 +0000";
layers = (
{
anchors = (
{
name = bottom;
pos = (149,0);
}
);
background = {
anchors = (
{
name = bottom;
pos = (149,0);
}
);
shapes = (
{
closed = 1;
nodes = (
(246,0,l),
(246,514,l),
(52,514,l),
(52,0,l)
);
},
{
closed = 1;
nodes = (
(246,580,l),
(246,720,l),
(54,720,l),
(54,580,l)
);
}
);
};
layerId = "E5B4AC11-8521-476B-8B52-54F023F880B1";
shapes = (
{
closed = 1;
nodes = (
(246,0,l),
(246,514,l),
(52,514,l),
(52,0,l)
);
},
{
closed = 1;
nodes = (
(246,580,l),
(246,720,l),
(54,720,l),
(54,580,l)
);
}
);
width = 298;
}
);
note = i;
unicode = 105;
},
{
glyphname = idotless;
kernLeft = i;
kernRight = i;
lastChange = "2024-12-19 13:17:24 +0000";
layers = (
{
anchors = (
{
name = bottom;
pos = (149,0);
},
{
name = ogonek;
pos = (246,0);
},
{
name = top;
pos = (149,514);
}
);
background = {
anchors = (
{
name = bottom;
pos = (149,0);
},
{
name = ogonek;
pos = (246,0);
},
{
name = top;
pos = (149,514);
}
);
shapes = (
{
closed = 1;
nodes = (
(246,0,l),
(246,514,l),
(52,514,l),
(52,0,l)
);
}
);
};
layerId = "E5B4AC11-8521-476B-8B52-54F023F880B1";
shapes = (
{
closed = 1;
nodes = (
(246,0,l),
(246,514,l),
(52,514,l),
(52,0,l)
);
}
);
width = 298;
}
);
unicode = 305;
},
{
glyphname = iacute;
kernLeft = i;
kernRight = i;
lastChange = "2024-12-19 13:17:38 +0000";
layers = (
{
background = {
anchors = (
{
name = bottom;
pos = (149,0);
},
{
name = ogonek;
pos = (246,0);
},
{
name = top;
pos = (231,758);
}
);
shapes = (
{
closed = 1;
nodes = (
(246,0,l),
(246,514,l),
(52,514,l),
(52,0,l)
);
},
{
closed = 1;
nodes = (
(332,727,l),
(204,780,l),
(68,602,l),
(185,572,l)
);
}
);
};
layerId = "E5B4AC11-8521-476B-8B52-54F023F880B1";
shapes = (
{
ref = idotless;
},
{
pos = (68,0);
ref = acutecomb;
}
);
width = 298;
}
);
unicode = 237;
},
{
glyphname = ibreve;
kernLeft = i;
kernRight = i;
lastChange = "2024-12-19 13:17:38 +0000";
layers = (
{
background = {
anchors = (
{
name = bottom;
pos = (149,0);
},
{
name = ogonek;
pos = (246,0);
},
{
name = top;
pos = (149,732);
}
);
shapes = (
{
closed = 1;
nodes = (
(246,0,l),
(246,514,l),
(52,514,l),
(52,0,l)
);
},
{
closed = 1;
nodes = (
(263,569,o),
(342,629,o),
(349,732,c),
(230,732,l),
(226,687,o),
(197,662,o),
(149,662,cs),
(101,662,o),
(72,687,o),
(68,732,c),
(-51,732,l),
(-44,629,o),
(35,569,o),
(149,569,cs)
);
}
);
};
layerId = "E5B4AC11-8521-476B-8B52-54F023F880B1";
shapes = (
{
ref = idotless;
},
{
pos = (-51,0);
ref = brevecomb;
}
);
width = 298;
}
);
unicode = 301;
},
{
glyphname = icircumflex;
kernLeft = i;
kernRight = i;
lastChange = "2024-12-19 13:17:38 +0000";
layers = (
{
background = {
anchors = (
{
name = bottom;
pos = (149,0);
},
{
name = ogonek;
pos = (246,0);
},
{
name = top;
pos = (149,732);
}
);
shapes = (
{
closed = 1;
nodes = (
(246,0,l),
(246,514,l),
(52,514,l),
(52,0,l)
);
},
{
closed = 1;
nodes = (
(91,580,l),
(200,698,l),
(98,698,l),
(206,580,l),
(365,580,l),
(222,732,l),
(76,732,l),
(-67,580,l)
);
}
);
};
layerId = "E5B4AC11-8521-476B-8B52-54F023F880B1";
shapes = (
{
ref = idotless;
},
{
pos = (-67,0);
ref = circumflexcomb.short;
}
);
width = 298;
}
);
unicode = 238;
},
{
glyphname = idieresis;
kernLeft = i;
kernRight = i;
lastChange = "2024-12-19 13:17:38 +0000";
layers = (
{
background = {
anchors = (
{
name = bottom;
pos = (149,0);
},
{
name = ogonek;
pos = (246,0);
},
{
name = top;
pos = (149,720);
}
);
shapes = (
{
closed = 1;
nodes = (
(246,0,l),
(246,514,l),
(52,514,l),
(52,0,l)
);
},
{
closed = 1;
nodes = (
(122,580,l),
(122,720,l),
(-29,720,l),
(-29,580,l)
);
},
{
closed = 1;
nodes = (
(327,580,l),
(327,720,l),
(176,720,l),
(176,580,l)
);
}
);
};
layerId = "E5B4AC11-8521-476B-8B52-54F023F880B1";
shapes = (
{
ref = idotless;
},
{
pos = (-29,0);
ref = dieresiscomb.short;
}
);
width = 298;
}
);
unicode = 239;
},
{
glyphname = igrave;
kernLeft = i;
kernRight = i;
lastChange = "2024-12-19 13:17:51 +0000";
layers = (
{
background = {
anchors = (
{
name = bottom;
pos = (149,0);
},
{
name = ogonek;
pos = (246,0);
},
{
name = top;
pos = (34,758);
}
);
shapes = (
{
closed = 1;
nodes = (
(246,0,l),
(246,514,l),
(52,514,l),
(52,0,l)
);
},
{
closed = 1;
nodes = (
(197,602,l),
(61,780,l),
(-67,727,l),
(80,572,l)
);
}
);
};
layerId = "E5B4AC11-8521-476B-8B52-54F023F880B1";
shapes = (
{
ref = idotless;
},
{
pos = (-34,0);
ref = gravecomb;
}
);
width = 298;
}
);
unicode = 236;
},
{
glyphname = imacron;
kernLeft = i;
kernRight = i;
lastChange = "2024-12-19 13:17:38 +0000";
layers = (
{
background = {
anchors = (
{
name = bottom;
pos = (149,0);
},
{
name = ogonek;
pos = (246,0);
},
{
name = top;
pos = (148.84,687);
}
);
shapes = (
{
closed = 1;
nodes = (
(246,0,l),
(246,514,l),
(52,514,l),
(52,0,l)
);
},
{
closed = 1;
nodes = (
(335,586,l),
(335,687,l),
(-37,687,l),
(-37,586,l)
);
}
);
};
layerId = "E5B4AC11-8521-476B-8B52-54F023F880B1";
shapes = (
{
ref = idotless;
},
{
pos = (-37,0);
ref = macroncomb.short;
scale = (0.92,1);
}
);
width = 298;
}
);
unicode = 299;
},
{
glyphname = iogonek;
kernLeft = i;
kernRight = i;
lastChange = "2024-12-19 13:17:24 +0000";
layers = (
{
background = {
shapes = (
{
closed = 1;
nodes = (
(263,-71,l),
(229,-78,o),
(172,-84,o),
(172,-48,cs),
(172,-28,o),
(187,-13,o),
(208,0,c),
(246,0,l),
(246,514,l),
(52,514,l),
(52,0,l),
(88,0,l),
(64,-20,o),
(32,-50,o),
(32,-86,cs),
(32,-181,o),
(179,-183,o),
(263,-159,c)
);
},
{
closed = 1;
nodes = (
(246,580,l),
(246,720,l),
(54,720,l),
(54,580,l)
);
}
);
};
layerId = "E5B4AC11-8521-476B-8B52-54F023F880B1";
shapes = (
{
closed = 1;
nodes = (
(263,-71,l),
(229,-78,o),
(172,-84,o),
(172,-48,cs),
(172,-28,o),
(187,-13,o),
(208,0,c),
(246,0,l),
(246,514,l),
(52,514,l),
(52,0,l),
(88,0,l),
(64,-20,o),
(32,-50,o),
(32,-86,cs),
(32,-181,o),
(179,-183,o),
(263,-159,c)
);
},
{
closed = 1;
nodes = (
(246,580,l),
(246,720,l),
(54,720,l),
(54,580,l)
);
}
);
width = 298;
}
);
unicode = 303;
},
{
glyphname = itilde;
kernLeft = i;
kernRight = i;
lastChange = "2024-12-19 13:17:38 +0000";
layers = (
{
background = {
anchors = (
{
name = bottom;
pos = (149,0);
},
{
name = ogonek;
pos = (246,0);
},
{
name = top;
pos = (149,724);
}
);
shapes = (
{
closed = 1;
nodes = (
(246,0,l),
(246,514,l),
(52,514,l),
(52,0,l)
);
},
{
closed = 1;
nodes = (
(301,572,o),
(344,625,o),
(350,721,c),
(252,721,l),
(250,687,o),
(233,674,o),
(210,674,cs),
(175,674,o),
(132,724,o),
(65,724,cs),
(-3,724,o),
(-46,670,o),
(-53,576,c),
(44,576,l),
(47,606,o),
(60,624,o),
(89,624,cs),
(123,624,o),
(169,572,o),
(229,572,cs)
);
}
);
};
layerId = "E5B4AC11-8521-476B-8B52-54F023F880B1";
shapes = (
{
ref = idotless;
},
{
pos = (-53,0);
ref = tildecomb.short;
}
);
width = 298;
}
);
unicode = 297;
},
{
glyphname = ij;
kernLeft = i;
kernRight = i;
lastChange = "2024-12-19 13:17:38 +0000";
layers = (
{
background = {
anchors = (
{
name = bottom;
pos = (149,0);
}
);
shapes = (
{
closed = 1;
nodes = (
(246,0,l),
(246,514,l),
(52,514,l),
(52,0,l)
);
},
{
closed = 1;
nodes = (
(246,580,l),
(246,720,l),
(54,720,l),
(54,580,l)
);
},
{
closed = 1;
nodes = (
(461,-177,o),
(544,-115,o),
(544,28,cs),
(544,514,l),
(350,514,l),
(350,21,ls),
(350,-46,o),
(311,-54,o),
(274,-54,cs),
(237,-54,o),
(200,-50,o),
(164,-47,c),
(164,-165,l),
(212,-173,o),
(258,-177,o),
(320,-177,cs)
);
},
{
closed = 1;
nodes = (
(544,580,l),
(544,720,l),
(352,720,l),
(352,580,l)
);
}
);
};
layerId = "E5B4AC11-8521-476B-8B52-54F023F880B1";
shapes = (
{
ref = i;
},
{
pos = (298,0);
ref = j;
}
);
width = 596;
}
);
metricLeft = i;
metricRight = j;
unicode = 307;
},
{
glyphname = j;
kernLeft = i;
kernRight = i;
lastChange = "2024-12-19 13:17:24 +0000";
layers = (
{
background = {
shapes = (
{
closed = 1;
nodes = (
(163,-177,o),
(246,-115,o),
(246,28,cs),
(246,514,l),
(52,514,l),
(52,21,ls),
(52,-46,o),
(13,-54,o),
(-24,-54,cs),
(-61,-54,o),
(-98,-50,o),
(-134,-47,c),
(-134,-165,l),
(-86,-173,o),
(-40,-177,o),
(22,-177,cs)
);
},
{
closed = 1;
nodes = (
(246,580,l),
(246,720,l),
(54,720,l),
(54,580,l)
);
}
);
};
layerId = "E5B4AC11-8521-476B-8B52-54F023F880B1";
shapes = (
{
closed = 1;
nodes = (
(163,-177,o),
(246,-115,o),
(246,28,cs),
(246,514,l),
(52,514,l),
(52,21,ls),
(52,-46,o),
(13,-54,o),
(-24,-54,cs),
(-61,-54,o),
(-98,-50,o),
(-134,-47,c),
(-134,-165,l),
(-86,-173,o),
(-40,-177,o),
(22,-177,cs)
);
},
{
closed = 1;
nodes = (
(246,580,l),
(246,720,l),
(54,720,l),
(54,580,l)
);
}
);
width = 298;
}
);
note = j;
unicode = 106;
},
{
glyphname = jdotless;
kernLeft = i;
kernRight = i;
lastChange = "2024-12-19 13:17:24 +0000";
layers = (
{
anchors = (
{
name = bottom;
pos = (143,-165);
},
{
name = top;
pos = (143,514);
}
);
background = {
anchors = (
{
name = bottom;
pos = (143,-165);
},
{
name = top;
pos = (143,514);
}
);
shapes = (
{
closed = 1;
nodes = (
(163,-177,o),
(246,-115,o),
(246,28,cs),
(246,514,l),
(52,514,l),
(52,21,ls),
(52,-46,o),
(13,-54,o),
(-24,-54,cs),
(-61,-54,o),
(-98,-50,o),
(-134,-47,c),
(-134,-165,l),
(-86,-173,o),
(-40,-177,o),
(22,-177,cs)
);
}
);
};
layerId = "E5B4AC11-8521-476B-8B52-54F023F880B1";
shapes = (
{
closed = 1;
nodes = (
(163,-177,o),
(246,-115,o),
(246,28,cs),
(246,514,l),
(52,514,l),
(52,21,ls),
(52,-46,o),
(13,-54,o),
(-24,-54,cs),
(-61,-54,o),
(-98,-50,o),
(-134,-47,c),
(-134,-165,l),
(-86,-173,o),
(-40,-177,o),
(22,-177,cs)
);
}
);
width = 298;
}
);
unicode = 567;
},
{
glyphname = jcircumflex;
kernLeft = i;
kernRight = i;
lastChange = "2024-12-19 13:17:38 +0000";
layers = (
{
background = {
anchors = (
{
name = bottom;
pos = (143,-165);
},
{
name = top;
pos = (143,732);
}
);
shapes = (
{
closed = 1;
nodes = (
(163,-177,o),
(246,-115,o),
(246,28,cs),
(246,514,l),
(52,514,l),
(52,21,ls),
(52,-46,o),
(13,-54,o),
(-24,-54,cs),
(-61,-54,o),
(-98,-50,o),
(-134,-47,c),
(-134,-165,l),
(-86,-173,o),
(-40,-177,o),
(22,-177,cs)
);
},
{
closed = 1;
nodes = (
(85,580,l),
(194,698,l),
(92,698,l),
(200,580,l),
(359,580,l),
(216,732,l),
(70,732,l),
(-73,580,l)
);
}
);
};
layerId = "E5B4AC11-8521-476B-8B52-54F023F880B1";
shapes = (
{
ref = jdotless;
},
{
pos = (-73,0);
ref = circumflexcomb.short;
}
);
width = 298;
}
);
unicode = 309;
},
{
glyphname = k;
kernLeft = h;
kernRight = k;
lastChange = "2024-12-19 13:17:24 +0000";
layers = (
{
anchors = (
{
name = bottom;
pos = (369,0);
},
{
name = top;
pos = (369,758);
}
);
background = {
anchors = (
{
name = bottom;
pos = (369,0);
},
{
name = top;
pos = (369,758);
}
);
shapes = (
{
closed = 1;
nodes = (
(246,0,l),
(246,710,l),
(52,710,l),
(52,0,l)
);
},
{
closed = 1;
nodes = (
(707,0,l),
(434,380,l),
(303,242,l),
(469,0,l)
);
},
{
closed = 1;
nodes = (
(401,254,l),
(408,254,l),
(726,514,l),
(472,514,l),
(210,293,l),
(210,97,l)
);
}
);
};
guides = (
{
angle = 152.6898;
pos = (561,384);
}
);
layerId = "E5B4AC11-8521-476B-8B52-54F023F880B1";
shapes = (
{
closed = 1;
nodes = (
(246,0,l),
(246,710,l),
(52,710,l),
(52,0,l)
);
},
{
closed = 1;
nodes = (
(707,0,l),
(434,380,l),
(303,242,l),
(469,0,l)
);
},
{
closed = 1;
nodes = (
(401,254,l),
(408,254,l),
(726,514,l),
(472,514,l),
(210,293,l),
(210,97,l)
);
}
);
width = 703;
}
);
note = k;
unicode = 107;
},
{
glyphname = kcommaaccent;
kernLeft = h;
kernRight = k;
lastChange = "2024-12-19 13:17:38 +0000";
layers = (
{
background = {
anchors = (
{
name = bottom;
pos = (369,-298);
},
{
name = top;
pos = (369,758);
}
);
shapes = (
{
closed = 1;
nodes = (
(246,0,l),
(246,710,l),
(52,710,l),
(52,0,l)
);
},
{
closed = 1;
nodes = (
(707,0,l),
(434,380,l),
(303,242,l),
(469,0,l)
);
},
{
closed = 1;
nodes = (
(401,254,l),
(408,254,l),
(726,514,l),
(472,514,l),
(210,293,l),
(210,97,l)
);
},
{
closed = 1;
nodes = (
(383,-298,l),
(459,-186,l),
(459,-70,l),
(279,-70,l),
(279,-204,l),
(349,-204,l),
(303,-298,l)
);
}
);
};
layerId = "E5B4AC11-8521-476B-8B52-54F023F880B1";
shapes = (
{
ref = k;
},
{
pos = (279,0);
ref = commaaccentcomb;
}
);
width = 703;
}
);
unicode = 311;
},
{
glyphname = kgreenlandic;
kernLeft = n;
kernRight = k;
lastChange = "2024-12-19 13:17:24 +0000";
layers = (
{
anchors = (
{
name = bottom;
pos = (367,0);
},
{
name = top;
pos = (367,514);
}
);
background = {
anchors = (
{
name = bottom;
pos = (367,0);
},
{
name = top;
pos = (367,514);
}
);
shapes = (
{
closed = 1;
nodes = (
(401,254,l),
(408,254,l),
(726,514,l),
(472,514,l),
(210,293,l),
(210,97,l)
);
},
{
closed = 1;
nodes = (
(246,0,l),
(246,514,l),
(52,514,l),
(52,0,l)
);
},
{
closed = 1;
nodes = (
(707,0,l),
(434,380,l),
(303,242,l),
(469,0,l)
);
}
);
};
layerId = "E5B4AC11-8521-476B-8B52-54F023F880B1";
shapes = (
{
closed = 1;
nodes = (
(401,254,l),
(408,254,l),
(726,514,l),
(472,514,l),
(210,293,l),
(210,97,l)
);
},
{
closed = 1;
nodes = (
(246,0,l),
(246,514,l),
(52,514,l),
(52,0,l)
);
},
{
closed = 1;
nodes = (
(707,0,l),
(434,380,l),
(303,242,l),
(469,0,l)
);
}
);
width = 703;
}
);
unicode = 312;
},
{
glyphname = l;
kernLeft = h;
kernRight = d;
lastChange = "2024-12-19 13:17:24 +0000";
layers = (
{
anchors = (
{
name = bottom;
pos = (149,0);
},
{
name = center;
pos = (149,379);
},
{
name = top;
pos = (159,710);
},
{
name = topright;
pos = (266,710);
}
);
background = {
anchors = (
{
name = bottom;
pos = (149,0);
},
{
name = center;
pos = (149,379);
},
{
name = top;
pos = (159,710);
},
{
name = topright;
pos = (266,710);
}
);
shapes = (
{
closed = 1;
nodes = (
(246,0,l),
(246,710,l),
(52,710,l),
(52,0,l)
);
}
);
};
layerId = "E5B4AC11-8521-476B-8B52-54F023F880B1";
shapes = (
{
closed = 1;
nodes = (
(246,0,l),
(246,710,l),
(52,710,l),
(52,0,l)
);
}
);
width = 298;
}
);
note = l;
unicode = 108;
},
{
glyphname = lacute;
kernLeft = h;
kernRight = d;
lastChange = "2024-12-19 13:17:38 +0000";
layers = (
{
background = {
anchors = (
{
name = bottom;
pos = (149,0);
},
{
name = center;
pos = (149,379);
},
{
name = top;
pos = (217,956);
},
{
name = topright;
pos = (266,710);
}
);
shapes = (
{
closed = 1;
nodes = (
(246,0,l),
(246,710,l),
(52,710,l),
(52,0,l)
);
},
{
closed = 1;
nodes = (
(354,910,l),
(212,956,l),
(88,782,l),
(212,760,l)
);
}
);
};
layerId = "E5B4AC11-8521-476B-8B52-54F023F880B1";
shapes = (
{
ref = l;
},
{
pos = (88,0);
ref = acutecomb.case;
}
);
width = 298;
}
);
unicode = 314;
},
{
glyphname = lcaron;
kernLeft = h;
kernRight = dcaron;
lastChange = "2024-12-19 13:17:38 +0000";
layers = (
{
background = {
anchors = (
{
name = bottom;
pos = (149,0);
},
{
name = center;
pos = (149,379);
},
{
name = top;
pos = (159,710);
},
{
name = topright;
pos = (266,710);
}
);
shapes = (
{
closed = 1;
nodes = (
(406,455,l),
(443,710,l),
(310,710,l),
(300,455,l)
);
},
{
closed = 1;
nodes = (
(246,0,l),
(246,710,l),
(52,710,l),
(52,0,l)
);
}
);
};
guides = (
{
angle = 180;
pos = (-612,732);
}
);
layerId = "E5B4AC11-8521-476B-8B52-54F023F880B1";
shapes = (
{
closed = 1;
nodes = (
(406,455,l),
(443,710,l),
(310,710,l),
(300,455,l)
);
},
{
ref = l;
}
);
width = 403;
}
);
unicode = 318;
},
{
glyphname = lcommaaccent;
kernLeft = h;
kernRight = d;
lastChange = "2024-12-19 13:17:38 +0000";
layers = (
{
background = {
anchors = (
{
name = bottom;
pos = (149,-298);
},
{
name = center;
pos = (149,379);
},
{
name = top;
pos = (159,710);
},
{
name = topright;
pos = (266,710);
}
);
shapes = (
{
closed = 1;
nodes = (
(246,0,l),
(246,710,l),
(52,710,l),
(52,0,l)
);
},
{
closed = 1;
nodes = (
(163,-298,l),
(239,-186,l),
(239,-70,l),
(59,-70,l),
(59,-204,l),
(129,-204,l),
(83,-298,l)
);
}
);
};
layerId = "E5B4AC11-8521-476B-8B52-54F023F880B1";
shapes = (
{
ref = l;
},
{
pos = (59,0);
ref = commaaccentcomb;
}
);
width = 298;
}
);
unicode = 316;
},
{
glyphname = ldot;
kernLeft = h;
lastChange = "2024-12-19 13:17:51 +0000";
layers = (
{
background = {
anchors = (
{
name = bottom;
pos = (149,0);
},
{
name = center;
pos = (149,379);
},
{
name = top;
pos = (159,710);
},
{
name = topright;
pos = (266,710);
}
);
shapes = (
{
closed = 1;
nodes = (
(246,0,l),
(246,710,l),
(52,710,l),
(52,0,l)
);
},
{
closed = 1;
nodes = (
(440,214,l),
(440,386,l),
(273,386,l),
(273,214,l)
);
}
);
};
layerId = "E5B4AC11-8521-476B-8B52-54F023F880B1";
shapes = (
{
ref = l;
userData = {
UFO.identifier = 7AE5642A;
};
},
{
pos = (227.471,0);
ref = periodcentered;
scale = (0.8823,1);
}
);
width = 298;
}
);
unicode = 320;
},
{
glyphname = lslash;
lastChange = "2024-12-19 13:17:38 +0000";
layers = (
{
background = {
anchors = (
{
name = bottom;
pos = (223,0);
},
{
name = center;
pos = (223,379);
},
{
name = top;
pos = (233,710);
},
{
name = topright;
pos = (340,710);
}
);
shapes = (
{
closed = 1;
nodes = (
(415,354,l),
(415,502,l),
(30,333,l),
(30,185,l)
);
},
{
closed = 1;
nodes = (
(320,0,l),
(320,710,l),
(126,710,l),
(126,0,l)
);
}
);
};
layerId = "E5B4AC11-8521-476B-8B52-54F023F880B1";
shapes = (
{
closed = 1;
nodes = (
(415,354,l),
(415,502,l),
(30,333,l),
(30,185,l)
);
},
{
pos = (74,0);
ref = l;
}
);
width = 444;
}
);
unicode = 322;
},
{
glyphname = m;
kernLeft = n;
kernRight = n;
lastChange = "2024-12-19 13:17:24 +0000";
layers = (
{
anchors = (
{
name = bottom;
pos = (528,0);
},
{
name = top;
pos = (528,517);
}
);
background = {
anchors = (
{
name = bottom;
pos = (528,0);
},
{
name = top;
pos = (528,517);
}
);
shapes = (
{
closed = 1;
nodes = (
(634,0,l),
(634,309,ls),
(634,368,o),
(676,391,o),
(731,391,cs),
(787,391,o),
(828,368,o),
(828,309,cs),
(828,0,l),
(1022,0,l),
(1022,324,ls),
(1022,485,o),
(893,526,o),
(786,526,cs),
(692,526,o),
(628,495,o),
(580,435,c),
(623,426,l),
(584,509,o),
(482,526,o),
(419,526,cs),
(328,526,o),
(261,492,o),
(223,437,c),
(246,309,l),
(247,368,o),
(288,391,o),
(343,391,cs),
(399,391,o),
(440,368,o),
(440,309,cs),
(440,0,l)
);
},
{
closed = 1;
nodes = (
(246,0,l),
(246,394,l),
(243,393,l),
(243,514,l),
(52,514,l),
(52,0,l)
);
}
);
};
guides = (
{
angle = 180;
pos = (293,459);
}
);
layerId = "E5B4AC11-8521-476B-8B52-54F023F880B1";
shapes = (
{
closed = 1;
nodes = (
(634,0,l),
(634,309,ls),
(634,368,o),
(676,391,o),
(731,391,cs),
(787,391,o),
(828,368,o),
(828,309,cs),
(828,0,l),
(1022,0,l),
(1022,324,ls),
(1022,485,o),
(893,526,o),
(786,526,cs),
(692,526,o),
(628,495,o),
(580,435,c),
(623,426,l),
(584,509,o),
(482,526,o),
(419,526,cs),
(328,526,o),
(261,492,o),
(223,437,c),
(246,309,l),
(247,368,o),
(288,391,o),
(343,391,cs),
(399,391,o),
(440,368,o),
(440,309,cs),
(440,0,l)
);
},
{
closed = 1;
nodes = (
(246,0,l),
(246,394,l),
(243,393,l),
(243,514,l),
(52,514,l),
(52,0,l)
);
}
);
width = 1069;
}
);
note = m;
unicode = 109;
},
{
glyphname = n;
kernLeft = n;
kernRight = n;
lastChange = "2024-12-19 13:17:24 +0000";
layers = (
{
anchors = (
{
name = bottom;
pos = (366,0);
},
{
name = top;
pos = (366,514);
}
);
background = {
anchors = (
{
name = bottom;
pos = (366,0);
},
{
name = top;
pos = (366,514);
}
);
shapes = (
{
closed = 1;
nodes = (
(675,0,l),
(675,324,ls),
(675,485,o),
(540,526,o),
(431,526,cs),
(332,526,o),
(257,494,o),
(220,437,c),
(246,304,l),
(247,365,o),
(293,391,o),
(364,391,cs),
(434,391,o),
(481,365,o),
(481,304,cs),
(481,0,l)
);
},
{
closed = 1;
nodes = (
(246,0,l),
(246,394,l),
(243,393,l),
(243,514,l),
(52,514,l),
(52,0,l)
);
}
);
};
guides = (
{
angle = 180;
pos = (567,448);
}
);
layerId = "E5B4AC11-8521-476B-8B52-54F023F880B1";
shapes = (
{
closed = 1;
nodes = (
(675,0,l),
(675,324,ls),
(675,485,o),
(540,526,o),
(431,526,cs),
(332,526,o),
(257,494,o),
(220,437,c),
(246,304,l),
(247,365,o),
(293,391,o),
(364,391,cs),
(434,391,o),
(481,365,o),
(481,304,cs),
(481,0,l)
);
},
{
closed = 1;
nodes = (
(246,0,l),
(246,394,l),
(243,393,l),
(243,514,l),
(52,514,l),
(52,0,l)
);
}
);
width = 722;
}
);
note = n;
unicode = 110;
},
{
glyphname = nacute;
kernLeft = n;
kernRight = n;
lastChange = "2024-12-19 13:17:38 +0000";
layers = (
{
anchors = (
{
name = bottom;
pos = (358,0);
},
{
name = top;
pos = (358,514);
}
);
background = {
anchors = (
{
name = bottom;
pos = (358,0);
},
{
name = top;
pos = (358,514);
}
);
shapes = (
{
closed = 1;
nodes = (
(675,0,l),
(675,324,ls),
(675,485,o),
(540,526,o),
(431,526,cs),
(332,526,o),
(257,494,o),
(220,437,c),
(246,304,l),
(247,365,o),
(293,391,o),
(364,391,cs),
(434,391,o),
(481,365,o),
(481,304,cs),
(481,0,l)
);
},
{
closed = 1;
nodes = (
(246,0,l),
(246,394,l),
(243,393,l),
(243,514,l),
(52,514,l),
(52,0,l)
);
},
{
closed = 1;
nodes = (
(549,727,l),
(421,780,l),
(285,602,l),
(402,572,l)
);
}
);
};
layerId = "E5B4AC11-8521-476B-8B52-54F023F880B1";
shapes = (
{
ref = n;
},
{
pos = (285,0);
ref = acutecomb;
}
);
width = 722;
}
);
unicode = 324;
},
{
glyphname = ncaron;
kernLeft = n;
kernRight = n;
lastChange = "2024-12-19 13:17:38 +0000";
layers = (
{
anchors = (
{
name = bottom;
pos = (358,0);
},
{
name = top;
pos = (358,514);
}
);
background = {
anchors = (
{
name = bottom;
pos = (358,0);
},
{
name = top;
pos = (358,514);
}
);
shapes = (
{
closed = 1;
nodes = (
(675,0,l),
(675,324,ls),
(675,485,o),
(540,526,o),
(431,526,cs),
(332,526,o),
(257,494,o),
(220,437,c),
(246,304,l),
(247,365,o),
(293,391,o),
(364,391,cs),
(434,391,o),
(481,365,o),
(481,304,cs),
(481,0,l)
);
},
{
closed = 1;
nodes = (
(246,0,l),
(246,394,l),
(243,393,l),
(243,514,l),
(52,514,l),
(52,0,l)
);
},
{
closed = 1;
nodes = (
(439,582,l),
(596,734,l),
(434,734,l),
(312,616,l),
(420,616,l),
(297,734,l),
(136,734,l),
(293,582,l)
);
}
);
};
layerId = "E5B4AC11-8521-476B-8B52-54F023F880B1";
shapes = (
{
ref = n;
},
{
pos = (136,0);
ref = caroncomb;
}
);
width = 722;
}
);
unicode = 328;
},
{
glyphname = ncommaaccent;
kernLeft = n;
kernRight = n;
lastChange = "2024-12-19 13:17:38 +0000";
layers = (
{
background = {
anchors = (
{
name = bottom;
pos = (366,-298);
},
{
name = top;
pos = (366,514);
}
);
shapes = (
{
closed = 1;
nodes = (
(675,0,l),
(675,324,ls),
(675,485,o),
(540,526,o),
(431,526,cs),
(332,526,o),
(257,494,o),
(220,437,c),
(246,304,l),
(247,365,o),
(293,391,o),
(364,391,cs),
(434,391,o),
(481,365,o),
(481,304,cs),
(481,0,l)
);
},
{
closed = 1;
nodes = (
(246,0,l),
(246,394,l),
(243,393,l),
(243,514,l),
(52,514,l),
(52,0,l)
);
},
{
closed = 1;
nodes = (
(380,-298,l),
(456,-186,l),
(456,-70,l),
(276,-70,l),
(276,-204,l),
(346,-204,l),
(300,-298,l)
);
}
);
};
layerId = "E5B4AC11-8521-476B-8B52-54F023F880B1";
shapes = (
{
ref = n;
},
{
pos = (276,0);
ref = commaaccentcomb;
}
);
width = 722;
}
);
unicode = 326;
},
{
glyphname = ntilde;
kernLeft = n;
kernRight = n;
lastChange = "2024-12-19 13:17:38 +0000";
layers = (
{
anchors = (
{
name = bottom;
pos = (358,0);
},
{
name = top;
pos = (358,514);
}
);
background = {
anchors = (
{
name = bottom;
pos = (358,0);
},
{
name = top;
pos = (358,514);
}
);
shapes = (
{
closed = 1;
nodes = (
(675,0,l),
(675,324,ls),
(675,485,o),
(540,526,o),
(431,526,cs),
(332,526,o),
(257,494,o),
(220,437,c),
(246,304,l),
(247,365,o),
(293,391,o),
(364,391,cs),
(434,391,o),
(481,365,o),
(481,304,cs),
(481,0,l)
);
},
{
closed = 1;
nodes = (
(246,0,l),
(246,394,l),
(243,393,l),
(243,514,l),
(52,514,l),
(52,0,l)
);
},
{
closed = 1;
nodes = (
(548,586,o),
(596,643,o),
(604,735,c),
(500,735,l),
(496,703,o),
(478,685,o),
(446,685,cs),
(400,685,o),
(350,738,o),
(267,738,cs),
(184,738,o),
(135,681,o),
(127,590,c),
(233,590,l),
(236,617,o),
(251,640,o),
(289,640,cs),
(333,640,o),
(386,586,o),
(461,586,cs)
);
}
);
};
layerId = "E5B4AC11-8521-476B-8B52-54F023F880B1";
shapes = (
{
ref = n;
},
{
pos = (127,0);
ref = tildecomb;
}
);
width = 722;
}
);
unicode = 241;
},
{
glyphname = eng;
kernLeft = n;
kernRight = n;
lastChange = "2024-12-19 13:17:24 +0000";
layers = (
{
anchors = (
{
name = bottom;
pos = (366,0);
},
{
name = top;
pos = (366,514);
}
);
background = {
anchors = (
{
name = bottom;
pos = (366,0);
},
{
name = top;
pos = (366,514);
}
);
shapes = (
{
closed = 1;
nodes = (
(592,-177,o),
(675,-115,o),
(675,28,cs),
(675,324,ls),
(675,485,o),
(540,526,o),
(431,526,cs),
(332,526,o),
(257,494,o),
(220,437,c),
(246,304,l),
(247,365,o),
(293,391,o),
(364,391,cs),
(434,391,o),
(481,365,o),
(481,304,cs),
(481,21,ls),
(481,-46,o),
(442,-54,o),
(405,-54,cs),
(368,-54,o),
(331,-50,o),
(295,-47,c),
(295,-165,l),
(343,-173,o),
(389,-177,o),
(451,-177,cs)
);
},
{
closed = 1;
nodes = (
(246,0,l),
(246,394,l),
(243,393,l),
(243,514,l),
(52,514,l),
(52,0,l)
);
}
);
};
layerId = "E5B4AC11-8521-476B-8B52-54F023F880B1";
shapes = (
{
closed = 1;
nodes = (
(592,-177,o),
(675,-115,o),
(675,28,cs),
(675,324,ls),
(675,485,o),
(540,526,o),
(431,526,cs),
(332,526,o),
(257,494,o),
(220,437,c),
(246,304,l),
(247,365,o),
(293,391,o),
(364,391,cs),
(434,391,o),
(481,365,o),
(481,304,cs),
(481,21,ls),
(481,-46,o),
(442,-54,o),
(405,-54,cs),
(368,-54,o),
(331,-50,o),
(295,-47,c),
(295,-165,l),
(343,-173,o),
(389,-177,o),
(451,-177,cs)
);
},
{
closed = 1;
nodes = (
(246,0,l),
(246,394,l),
(243,393,l),
(243,514,l),
(52,514,l),
(52,0,l)
);
}
);
width = 722;
}
);
unicode = 331;
},
{
glyphname = o;
kernLeft = o;
kernRight = o;
lastChange = "2024-12-19 13:17:24 +0000";
layers = (
{
anchors = (
{
name = bottom;
pos = (379,0);
},
{
name = center;
pos = (379,257);
},
{
name = ogonek;
pos = (677,10);
},
{
name = top;
pos = (379,514);
},
{
name = topright;
pos = (731,514);
}
);
background = {
anchors = (
{
name = bottom;
pos = (379,0);
},
{
name = center;
pos = (379,257);
},
{
name = ogonek;
pos = (677,10);
},
{
name = top;
pos = (379,514);
},
{
name = topright;
pos = (731,514);
}
);
shapes = (
{
closed = 1;
nodes = (
(561,-12,o),
(729,82,o),
(729,257,cs),
(729,433,o),
(575,526,o),
(379,526,cs),
(182,526,o),
(28,433,o),
(28,257,cs),
(28,82,o),
(196,-12,o),
(379,-12,cs)
);
},
{
closed = 1;
nodes = (
(286,120,o),
(223,173,o),
(223,252,cs),
(223,262,ls),
(223,342,o),
(286,394,o),
(379,394,cs),
(472,394,o),
(534,342,o),
(534,262,cs),
(534,252,ls),
(534,173,o),
(472,120,o),
(379,120,cs)
);
}
);
};
layerId = "E5B4AC11-8521-476B-8B52-54F023F880B1";
shapes = (
{
closed = 1;
nodes = (
(561,-12,o),
(729,82,o),
(729,257,cs),
(729,433,o),
(575,526,o),
(379,526,cs),
(182,526,o),
(28,433,o),
(28,257,cs),
(28,82,o),
(196,-12,o),
(379,-12,cs)
);
},
{
closed = 1;
nodes = (
(286,120,o),
(223,173,o),
(223,252,cs),
(223,262,ls),
(223,342,o),
(286,394,o),
(379,394,cs),
(472,394,o),
(534,342,o),
(534,262,cs),
(534,252,ls),
(534,173,o),
(472,120,o),
(379,120,cs)
);
}
);
width = 757;
}
);
note = o;
unicode = 111;
},
{
glyphname = oacute;
kernLeft = o;
kernRight = o;
lastChange = "2024-12-19 13:17:38 +0000";
layers = (
{
background = {
anchors = (
{
name = bottom;
pos = (379,0);
},
{
name = center;
pos = (379,257);
},
{
name = ogonek;
pos = (677,10);
},
{
name = top;
pos = (461,758);
},
{
name = topright;
pos = (731,514);
}
);
shapes = (
{
closed = 1;
nodes = (
(561,-12,o),
(729,82,o),
(729,257,cs),
(729,433,o),
(575,526,o),
(379,526,cs),
(182,526,o),
(28,433,o),
(28,257,cs),
(28,82,o),
(196,-12,o),
(379,-12,cs)
);
},
{
closed = 1;
nodes = (
(286,120,o),
(223,173,o),
(223,252,cs),
(223,262,ls),
(223,342,o),
(286,394,o),
(379,394,cs),
(472,394,o),
(534,342,o),
(534,262,cs),
(534,252,ls),
(534,173,o),
(472,120,o),
(379,120,cs)
);
},
{
closed = 1;
nodes = (
(562,727,l),
(434,780,l),
(298,602,l),
(415,572,l)
);
}
);
};
layerId = "E5B4AC11-8521-476B-8B52-54F023F880B1";
shapes = (
{
ref = o;
},
{
pos = (298,0);
ref = acutecomb;
}
);
width = 757;
}
);
unicode = 243;
},
{
glyphname = obreve;
kernLeft = o;
kernRight = o;
lastChange = "2024-12-19 13:17:38 +0000";
layers = (
{
background = {
anchors = (
{
name = bottom;
pos = (379,0);
},
{
name = center;
pos = (379,257);
},
{
name = ogonek;
pos = (677,10);
},
{
name = top;
pos = (379,732);
},
{
name = topright;
pos = (731,514);
}
);
shapes = (
{
closed = 1;
nodes = (
(561,-12,o),
(729,82,o),
(729,257,cs),
(729,433,o),
(575,526,o),
(379,526,cs),
(182,526,o),
(28,433,o),
(28,257,cs),
(28,82,o),
(196,-12,o),
(379,-12,cs)
);
},
{
closed = 1;
nodes = (
(286,120,o),
(223,173,o),
(223,252,cs),
(223,262,ls),
(223,342,o),
(286,394,o),
(379,394,cs),
(472,394,o),
(534,342,o),
(534,262,cs),
(534,252,ls),
(534,173,o),
(472,120,o),
(379,120,cs)
);
},
{
closed = 1;
nodes = (
(493,569,o),
(572,629,o),
(579,732,c),
(460,732,l),
(456,687,o),
(427,662,o),
(379,662,cs),
(331,662,o),
(302,687,o),
(298,732,c),
(179,732,l),
(186,629,o),
(265,569,o),
(379,569,cs)
);
}
);
};
layerId = "E5B4AC11-8521-476B-8B52-54F023F880B1";
shapes = (
{
ref = o;
},
{
pos = (179,0);
ref = brevecomb;
}
);
width = 757;
}
);
unicode = 335;
},
{
glyphname = ocircumflex;
kernLeft = o;
kernRight = o;
lastChange = "2024-12-19 13:17:38 +0000";
layers = (
{
background = {
anchors = (
{
name = bottom;
pos = (379,0);
},
{
name = center;
pos = (379,257);
},
{
name = ogonek;
pos = (677,10);
},
{
name = top;
pos = (379,734);
},
{
name = topright;
pos = (731,514);
}
);
shapes = (
{
closed = 1;
nodes = (
(561,-12,o),
(729,82,o),
(729,257,cs),
(729,433,o),
(575,526,o),
(379,526,cs),
(182,526,o),
(28,433,o),
(28,257,cs),
(28,82,o),
(196,-12,o),
(379,-12,cs)
);
},
{
closed = 1;
nodes = (
(286,120,o),
(223,173,o),
(223,252,cs),
(223,262,ls),
(223,342,o),
(286,394,o),
(379,394,cs),
(472,394,o),
(534,342,o),
(534,262,cs),
(534,252,ls),
(534,173,o),
(472,120,o),
(379,120,cs)
);
},
{
closed = 1;
nodes = (
(310,582,l),
(433,700,l),
(325,700,l),
(447,582,l),
(609,582,l),
(452,734,l),
(306,734,l),
(149,582,l)
);
}
);
};
layerId = "E5B4AC11-8521-476B-8B52-54F023F880B1";
shapes = (
{
ref = o;
},
{
pos = (149,0);
ref = circumflexcomb;
}
);
width = 757;
}
);
unicode = 244;
},
{
glyphname = odieresis;
kernLeft = o;
kernRight = o;
lastChange = "2024-12-19 13:17:38 +0000";
layers = (
{
background = {
anchors = (
{
name = bottom;
pos = (379,0);
},
{
name = center;
pos = (379,257);
},
{
name = ogonek;
pos = (677,10);
},
{
name = top;
pos = (379,720);
},
{
name = topright;
pos = (731,514);
}
);
shapes = (
{
closed = 1;
nodes = (
(561,-12,o),
(729,82,o),
(729,257,cs),
(729,433,o),
(575,526,o),
(379,526,cs),
(182,526,o),
(28,433,o),
(28,257,cs),
(28,82,o),
(196,-12,o),
(379,-12,cs)
);
},
{
closed = 1;
nodes = (
(286,120,o),
(223,173,o),
(223,252,cs),
(223,262,ls),
(223,342,o),
(286,394,o),
(379,394,cs),
(472,394,o),
(534,342,o),
(534,262,cs),
(534,252,ls),
(534,173,o),
(472,120,o),
(379,120,cs)
);
},
{
closed = 1;
nodes = (
(345,580,l),
(345,720,l),
(172,720,l),
(172,580,l)
);
},
{
closed = 1;
nodes = (
(587,580,l),
(587,720,l),
(414,720,l),
(414,580,l)
);
}
);
};
layerId = "E5B4AC11-8521-476B-8B52-54F023F880B1";
shapes = (
{
ref = o;
},
{
pos = (172,0);
ref = dieresiscomb;
}
);
width = 757;
}
);
unicode = 246;
},
